<mxfile host="65bd71144e">
    <diagram id="2GgXyioefm89g6jYB8ue" name="Page-1">
        <mxGraphModel grid="1" page="1" gridSize="10" guides="1" tooltips="1" connect="1" arrows="1" fold="1" pageScale="1" pageWidth="850" pageHeight="1100" background="#ffffff" math="0" shadow="0">
            <root>
                <mxCell id="0"/>
                <mxCell id="1" parent="0"/>
                <mxCell id="6" value="　.sln" style="rounded=0;whiteSpace=wrap;html=1;verticalAlign=middle;horizontal=1;fontColor=#000000;labelBackgroundColor=none;fillColor=#FFFFFF;fontSize=18;strokeWidth=2;strokeColor=#000000;" vertex="1" parent="1">
                    <mxGeometry x="10" y="10" width="100" height="220" as="geometry"/>
                </mxCell>
                <mxCell id="7" value="&lt;font style=&quot;font-size: 12px;&quot;&gt;アプリケーション&lt;/font&gt;" style="rounded=0;whiteSpace=wrap;html=1;verticalAlign=top;horizontal=1;fontColor=#000000;labelBackgroundColor=none;fillColor=#FFFFFF;fontSize=24;strokeWidth=2;strokeColor=#000000;spacing=-10;" vertex="1" parent="1">
                    <mxGeometry x="410" y="10" width="100" height="220" as="geometry"/>
                </mxCell>
                <mxCell id="9" value="" style="shape=image;verticalLabelPosition=bottom;labelBackgroundColor=default;verticalAlign=top;aspect=fixed;imageAspect=0;image=data:image/png,iVBORw0KGgoAAAANSUhEUgAAAScAAAHpCAYAAADAuPqFAAAAAXNSR0IArs4c6QAAAARnQU1BAACxjwv8YQUAAAAJcEhZcwAAFiUAABYlAUlSJPAAAEISSURBVHhe7Z3rs1zFdfYPX2wcA7Zx/oRUPqbyefPNLttVLpfLLuNLxRWociqTMgZhbPLKxBgkdEGXI2lLgISQhI6u5irwRSOCCDJGgIHEF4wJaAIOuDDIkUASEqAjifWutbp7T++e3reZOdKcc55f1SrN9O77XuuZ7t77wBgAAAAAAAAAAAAAAAAAAAAAAAAAAAAATHd27NhB27dvp23bttGWrVtpy5atNDExQXfeuVlt06ZNtGHjRrpjwwZaf8cddPv69fTAAw/SmTNnyFYBAADDR4RJhOa02OmYnVY7xSb5du7cSQcPHqRdECgAwFSyzYrT5KlTNDlp7GTOJunkyUl6n00ESsTp2LFjKlD33b8LAgUAmBpkKyerpqbiJPYmC9Q9994LcQIADJ8tW7bo9i0uTHFxGh8fzyxdvWZWiVMnTWgsSalDNOtFmdotnoOEUp4MmwTA8Ng8MaHi06+tXJXWdkzikO6wQyfJmJTJLEla1J4mDj6oOFEnpUTG3Wqf0/HKvWi3xoi70Xc/RlGc2nJ/xtif8OMx/blz8+ao6NS1uuJE7C4tFaWEklZK7XbbWsrprWnz6zuoOJnyPAfnMKj5F8LeC4gTGGHkdYGY6Bw9+lru+/Hjb+W+O1uxclWlE8ivdKrBMH1WSEUMIk5uHlo8CfJvwlFtL50VtP2WBC/fCxXImSdOYAaxcdOmHsF56qnv0N69n8ulyffHH788lyY2vmJlpWNqQM8QJx5InDSYza/6oCuwfjCr10TFUT9DnMAos3HjxpzYyIppz55L6PDhF3Lpb775jKaHK6pl4+Oljpmtmhqcsci2I/uFV5OtYLsnkLMAl/wcdJykFubNrRhsfRKgetHSuE2/fm+bJJbw9dgKUc543DyYs6d4YHfbCPodOZtrktenqTj1jJG35nJ+GBOnqvlo0uc6984nvD9Tcu8lf4m/gSGxYUNenE6ceEtFSMTIT3fiJNf99GXLK8TJHgDX3cJkB8bqqOy+YhwEJq3rdIJxFnYkuxqQvObModteJo5efe20RS2vP83b9Jw/KysBKGVdYHJdXrlQDMpE27TBfZRxpez42h85m+utt0lenybi1DtGOUw328JQnOrMR90+17l3If79mZp7X+5vYIjIn6T4YnPkiFk5heJ06NALmi7X/fSly5aX3hR382sFQeZMeacQYvWos0Tq1hVK5qDlQdhXmz3Ony/r2vQd1t/S2STb/3yaUDQu1x+/3iZ5feqKU9n8mLa74lR3Pur2uYmAOrTu7P5Mwb2P1Of7m00Cw0D+Vs4Xm337vhI9WxKTs6jw2pKly0pvSFWQ+MSC2pE5EnuGTbLOUhTcJj0rJ0EU2Q701Wbg/GHZsFxREMQCQCgaV5M5iOX1qRv4pfMTbOvqzkfdPmffC+5djPz9KS/f172v8DebBIbButtvz4lN0zOnxTcvKb0hzgGKgsSnKFiFQmeJ/GKFziJlZRsiH8VRdSvhrg3QpivLyXGz5ermcxSNS/DPrYQmeX1qi1PZ/ITiVHOcTfpcdu9ihHVP1b23SYqmQ5yGz9p163JiI1a2rQvFaVGFOAnqcDVunnOWflYxNkkpchapIztPsPUM0mbm3FxWzypCs+1n/Ynl0WvdABeKxtVkDmJ5faZSnGrNR8M+y7Xw3sUoq3uY994mKZoOcRo+t63Ni5NbOYkY+elF4rRw8c2VN8Q5QezG+mQOEXOuSJD06yz+GcEgbcYcOKQqTyxATP/zgiUU9qdmXp/a4lTSf/Oj44lTjfkQ+u2z4N87m5TDvz82Kcew7r1NUsx4IE5D59bbbsuJjVjRe06S7qeJLVi0uNYNkV9ZudnilK007b4hzp/9N8SdU0SfngROX8dZNAilfvt0pcP1h9vMQdo0qwcWF3nrPSsrY+Lv2ry53iTgTBvmqVDWb9efYLxN8voUiVMsYHvHaB69S5uhyFTNh+Sp2+eqexfrq39/pvreOzQd4jR8brn11h7BEQtfGSiymxYurH1D+K4bp5Ybnxl/F0f2bqzkk8fM8tFY/KyhjrMYB87XFXsvZZA2u4/BrXE9rqxZXZQ7rgnobpBnbUgwefWWv3tTndeniTgJWcCqyfj4atBvR9l86PWafa66d9XiNPX3XtB0iNPwWXPLLVHRqWvzF9QXJ1CPoiCI0STvqDCVfa7a9oFpxOo1g4nTjfNvghMMGYhTf2QrKV4d2SQwnUlXr46KTl2DOA0fiFMz5NxSzovMKwO920wwTVmVrtb/7MmKlSv1j3iXj6/QP0mRN7/lBcvFS5bq6wLyVG7BokW0YOEi3crNu2mBCtMN8+bDEYYMxKkZ5lzPnhW1e18LAAAAAAAAAAAAAAAAAAAAAAAAAAAAAAAAAAAAAAAAAAAAAAAAAAAAAAAAAAAAAAAAAAAAAAAAAAAAAAAAAAAAAAAAAAAAAAAAAAAAAAAAAAAAs4BlSxbTdXOvrWWS9/XXXydbFAAApg4RncnJyVpmBGoRBAoAMPU0FafXXv1fCBQAYOppKk7yLwQKADDl9CNOYrNVoDppQmNJSh2iWS/M1G7xHCSU8mTYpJ75wXyBvomJ04l336OfP/ok/XTvfv78bpa+9OaFKlC+zZ/3o9pOR+yiHXboJBmTMpklSYvanoOPMoMGG3VSSmTcrfY5Ha/ci3ZrjLgbffcD4gSmFF+cjhx7h377hwP06+dfovt2P0r3/OwR+h1/3/fEs/T2kaNZPt+kvK2qFKI2tVSUEkpaKbXbbWspp7dyDj7KDBpspjzPQRDUZxP+hbD3AuIERhhfnB57+jd0X3sf3fPzR+jHP3mYdj7wEG2/fzdtuedn9Mgvf5UTJWd1xEl+pVMNhumzQipikGBz89DiSZB/E45qe+msoO23uP/80QgkxAmMML44/d/ht2nXnn2088F/pyNHj+lqaeLun9CmnQ/Qwb8cyomSszripA56DlcKw2QgcdJgZoHmsuciaM3qNVFx1M8QJzDK+OL0l0Nv0Y5de2jbfbtVmN56+wht3HE/Tdz1AL1x8C85UXJWJU7ZqqnBGYtsO7JfeDXZCrZ7HDxzfMnPQcdJamHe3IrB1icBqhctjdv06/e2SWIJX4+tEOWMx82DOXuKC3a3jaDfkbO5Jnl9mopTzxh5ay7nhxAnMGX44iRnS7KF23zXg7xa2kUbtt1H67fcTWs376RdP384J0rOKsXJHgDX3cJkB8YaXBxyYhwEJi3v5MbxWUTsakDytiXNay8TR6++dtqiltef5m1207plRZCkrAtirssrF4pBmWibNriPMq6UBVL7I2dzvfU2yevTRJx6xyiH6WZbCHECU4YvTrJa2vvYk/Tsb39P67feTesmfkyPPfks/eKJp+nwW2/nRMlZXXGqFQQuYCPOHKtHHT9St65QbB1VQdhXm1nd8bKuTV+Q/S2dTbL97xWQonG5/vj1NsnrU1ecyubHtA1xAlOEL07Ojh8/QRu330sbWKDe4c+StmDFGpq/dGVP3mGunGJB7YitNExwFAW3Sc/KSRAFWzmhrzYzcYqXDcsVBXhM/ISicTWZg1hen/riVDI/2NaBqSQmTr7d/eDP6Ls/nE//NOdauvzbc+ifr7qG7rp/V3a9UpyscxcFiU9RsApVQmGTlDBgpaxsQ+SjBJNuf9y1Adp0ZTk5brZc3XyOsoD2z62EJnl9aotT2fxAnMBUUiVOD+55mL511ffpjTcP0p/feJO+dtm36Mf33JddrxInQYMk8use4gKhn1WMTVI0vWA1kZ0l2XoGaTMLXC6rZz2h2faz/sTy6LXyAHc0mYNYXh+IExh5qsTp/p/spn/8lytZmN6g1//8Z/ry179J23belV2vI07OwaucNAuoWLBFgqTI8TW9RAzzZ1L9t1klAEKlSNg2fHE0/c8HvVDYn5p5fepv64r7b350IE5giqgSp3sf/Cl964qr6dJvXk5f+to/0Ne/eRmtW39Hdr2OOAnyKyvBIs7cSr03xPmz/4a4C6rok7MgQIoc3wSsEScNQqnfPs3rcP3hNnOQNs3qgcVF3nrPysqY+Ls2b66XiYAvlvLdtGGeQmb9dv0Jxtskr0+ROMXEuneM5rULaRPiBKaMKnFydvW1c+nKa77Xk15XnASOGuPU/FG+GuPv4vSe80o+eTQuH43lz4kcRY6v6Zk4SbDl64q9vzRIm91H99a4Hle2zpbWBH83yLM2REi9esvf9arO69NEnIRM8NRkfHw16LcQzk9svgCoRV1xKrIm4gTq0SSgEfxgxgJxGj0gTgAwEKfRA+IEACP/wTgRmH5NytuqwJCAOAEAAAAAAAAAAAAAAAAAAAAAAAAAAAAAAAAAAAAAAAAAAAAAAAAAAAAAAAAAAAAAAAAAAAAAAAAAAAAAAAAAAAAAAAAAAAAAAAAAAAAAAAAAAAAAAAAAAIbIsiWL6bq5106JSd22GQAAaEZMVJra/v37o/+K2WYAAKAZIiCTk5NTYjNdnDppQmNJSh0iiDAAw+ZciRNxSHfaLUqSMcmTWZK0qM3RLnlGnUHFiTopJTLuVvucjlfuRbs1RtyNaTHvYJbgxGnr1q20du1a/deJy99vfo3+es0r9MnVL9MnU7ZV/0MXr+zQxSsO0MXjB+gTy1+iv7u9k+UP6ygSJ6I2tVSUEkpaKbXbbWspp7conSXiZMrzHPA8nKsx8y+EvRcQJzBilK2cLg7E6OLxl+gTy15k+2/6+JIX6OM3/0EtVlYsJk7yK51qMEyfFVIRg4iTm4cWT4L8m7A62UtnBW2/xf3nj0YgIU5gxChbOakYLbditNQTpMXP08cW/Z4+tvA5umjBc1n+OisnDehzuFIYJgOJE29pVaC57KArsH4wq9dExVE/Q5zAqFG2clIxElv8BytGbCxGF930O7povthv6MIbfxMtKxaKU7ZqanDGItuO7BdeTbaC7Z5AzgJc8nPQcZJamDe3YrD1SYDqRUvjNv36vW2SWMLXYytEOeNx82DOnuKC3W0j6HfkbK5JXp+m4lQ2RiO6+bpi973uPIFZTNnKyV8dGUH6LV04TwTp13ThDWw/+i+64Pr/zPJXrZzcAXDdLUx2YKzBxSEnJofompYXBROYLCJ2NSB525LmtZcFiVdfO21Ry+tP8za7ad2yEmhS1gUg1+ULWCAGZaJt2uA+yrhSFkjtj5zN9dbbJK9PE3GqM0YVXm9etF/e9brzBGY5ZSsnEaOLImJ0wQ+fVfvodc/QR3/wdLSsWJE41QqCTEjygiDE6jEB0Fu3HyhVQdhXm1nd8bKuTV+Q/S2dTeoJYEfRuFx//Hqb5PWpK051x+h/D+tuMk9gllO2crrwBhajH7EYXW/F6N9YjK57WgXpr+Y+RX/1/9j+9cksf2iDrJzKnDVzcPZ4m1QR3CY9KydbKF5d2SwZfbWZiVO8bFiuMDgj4icUjavJHMTy+oQCUkTdMQpOgFve9lVoUgeY5ZStnC5gMbrAro4+OvdXmRh95Non6CPfZ/vefrbHo2XFesTJOmYdBywKVqEwMIOAF8KAlbLt7DzGbn/ctQHadGU5OW62XN18jqJxCf65ldAkr09tcWrQ92y+grO0puMHs5iylZOujliMuoK0n86/5nH6CNv53/0lnX/1Y/ThOb/I8ocWipOgQRL5dQ9xTtzPKsYmKaE4OaSO7CzJ1jNIm66snF/pWU9otv2sP7E8ei0fzEXjajIHsbw+TcWpaoyCWTnJGWC+3SZ1gFlO2cpJxYhXRiJITozOn8OCdNU+Y995lO0/omXFYuLknLPoF96RBVQs2JyDe8FUFJiZGBS0lT+T6r/NKgEQKkXCtuGLo+l/75O8wv7UzOtTW5xqjFHwt25h23XrAKBUnP523tMqRufz6ujDV7IYXfkofYjF6ENXPEIf+raxv/nh/mhZsZg4CfKrKg4rgdRK0+4b4vzZf0PcOXb0yVng3HXESYNG6rdP8zpcf7jNHKRNs1rgoJS33rOyMib+rs33PmYP8cVSvps2zFPIrN+uP8F4m+T1KRKnTEgajFHyhGMIV8t16gCgVJwGtSJxEtgb9V0cDZzM+Ls4rOegkk8ejctHY/lzIkc9cZJgy9cVe39pkDa7j+6tcT2ubJ0trQnc7uona0OE1Ku3/F2v6rw+TcRJKBujme/86s3V74t7WR2aAYBzJU6gHjEBLKJJXgBGnmVLFqmITIVJ3bYZ0CcQJwDASAJxAgCMJBAnAAAAAAAAAAAAAAAAAAAAAAAAAAAAAAAAAAAAAAAAAAAAAAAAAAAAAAAAAAAAAAAAAAAAAAAAAAAAAAAAAAAAAAAAAAAAAAAAAAAAAAAAAAAA+uDUqVP0/vvv08mTJyvtgw8+IFsMAACmDhGmd999t7a99957dObMGQgUAGDqkFWQiM3ExAR99rOfpU996lOlds0119Crr76qqywIFABgyhBxktXQDTfcoOLT3r2n1L7whS/QVVddRS+//LKWO336NAQKADA1+OJ05O2jpfblL32ZPv3pT9PcuXPp8OHDKlCzbQXVSRMaS1LqEEGYG0DtFs9XQilPnE3CXIJymorTIFs8YjfssJMmyZjkzyxJWtT2nHaUGTSgqJNSIuNutc/peOVetFtjxN04K/2AOIHGxMRp8aLFdP3112cWEycxf4tnqyuEqE0tFaWEklZK7XbbWsrprZzTjjKDBpQpz3MQBOrZhH8h7L2AOIERJiZOoQgVpcsW75FHHqkUJ/mVTjUYps8KqYhBAsrNQ4snQf5NOFLtpbOCtt/i/vNHI5AQJzDCNNnWhSZlHn744UpxUic8hyuFYTKQOGmAskBz2XMRmGb1mqg46meIExhlplqcslVTgzMW2XZkv/BqshVs9zhx5tySn4OOk9TCvLkVg61PAlQvWhq36dfvbZPEEr4eWyHKGY+bB3P2FBfsbhtBvyNnc03y+jQRp6Zt9MwHb+PlrLFYnJr1HcwSYuJ02WWX6RYuZj/4wXXNxMkeANfdwmQHxuqg7LZi7NgmTRw5dG4WEbsakLxtSfPay8TRq6+dtqjl9ad5m920blkRJCnrApPr8gUsEIMy0TZtcB9lXCkLpPZHzuZ6622S16e5ONVro3c+5ODdbCHj4tS872AWIE/ZRFgOHDhAzz//PJ04cYKOHz9Oq1evpjlz5tCcq3pt5cpVfYlTnSDoCkleEIRYPerckbp1hWLrqArCvtrM6o6XdW36guxv6WyS7X9vEBaNy/XHr7dJXp/G4lSjjbK5NHVExKlGvWCWIX+2Im+Hv/jii7RmzRq68cYbad68ebR582Z67bXXWKRO0NEjxzIhitmwV06xoHbEVhrGuYuC26Rn5SQweHVls2T01WYgfGHZsFxR0Lq5CYOzaFxN5iCW16e5OFW3UTqXRdu6PvoOZjCyYhJheumll+irX/0qfeYzn1GhEZM/Y/nGN75Bf/zjH+mdd45HRclZLXGyDlvH0YqCVSgMzMJf6a7TS1nZWshHCRDdQrhrA7TpynJy3Gy5uvkcReMS/HMroUlen8biVKON0rksPXNq1ncwg5H/uoCsmESYnCiFdsUVV+gKSt5l8tNla9dEnAR1tMgvZIhz7n5WMTZJ0fSCX+TsLCkIqL5WTi4Yuayel4Rm28/6E8uj1+oFbZM5iOX1GYY4hW0MS5yq+g5mMLJqkq2cv2IK7fOf/zzt379fV1f+39c9sf+JxuLknDbmiD6ZU8YcNuL4Rc6t6SViqGJpyw3SZp0gqsrj2vDF0fQ/H8hCYX9q5vVpvq2rbqNsrOYHKiJOffQdzGBETOSMKRSk0ER4Thw/kYlRaC5PlTgJ8sspDifO2Eq9N8T5s/+GuHPM6JOzwOl9obBJinF6I04ahFK/fZrX4frDbeYgbZoVAYuLvPWelZUx8Xdt3lwvCzRfLOW7acM8hcz67foTjLdJXp8icYqJdZM2eufDvKIhZaPi1EffwQxGxEQOv0Mx8k3e/t67d+/QxElgzzOOKs6XGX8XR/YdXB/HizN38/jnRI5QKByanomTBFu+rtj7S4O02X38bY3rcWXrbGlNQHcDN2tDhNSrt/xdr+q8Ps3FqX4bmcCoyVxwrmCMQr99BzMYERN5Klf233D64he/SM888ww99NBDub+z803y7d69W19BsFWDIRATwCKa5O2Xs9EGAMrk5KQedstTuVCUnF199dX0+uuv0+WXXx69LnbppZfSc889V3vlBOoBcQKzFvfy5SuvvKJP5eTwW8RGtnKyYhJh+tOf/qR5ykxWTPKvvDNlqwZDAOIEZjXuXac33nhDn8rJ2ZGcMclW7tChQ3pN/kuXVSb14H96MFwgTmDWI6Li3hR3qyH5LGkQHAAAAAAAAAAAAAAAAAAAAAAAAAAAAAAAAAAAAAAAAAAAAAAAAAAAAAAAAAAAAAAAAAAAAAAAAAAAAAAAAAAAAAAAAAAAAAAAAAAAAAAAAADE2LFjB23fvp22bdtGW7ZupS1bttLExATdeedmtU2bNtGGjRvpjg0baP0dd9Dt69fTAw88SGfOnCFbBQAADB8RJhGa02KnY3Za7RSb5Nu5cycdPHiQdkGgAABTyTYrTpOnTtHkpLGTOZukkycn6X02ESgRp2PHjqlA3Xf/LggUAGBqkK2crJqaipPYmyxQ99x7L8QJADB8tmzZotu3uDDFxWl8fDyzdPWaWSVOnTShsSSlDhFEGUwJnbRFydiY+Jdaq/3B7PS1zRMTKj792spVae2JIw7pTpsnPulOvFiStKjN0S55Rp1BxYk6qXG8VvucjlfuRbsljj/6896WOR9jH5kFPwh8U+g8/qeVHqBOh+NFbXjjbqeXcP0t2v3BNJjLOzdvjopOXasrTsSu1VJRSihppdRut62lnN6idJaIkynPc8DzcK7GzL8Q9l6MljiJYKY8N2GfZos4mfGfpz9crB1TMtbpJU53xsXp6NHXct+PH38r993ZipWrKgdpJl2CYfqskIoYRJzcPLR4EuTfhNXJXjoraPstCXS+FyqQoyZOLJoj1qeziY7/PPGLA7Ny/D1s3LSpR3Ceeuo7tHfv53Jp8v3xxy/PpYmNr1hZOZEa0OdwpTBMBhInXrK7FcCgK7B+MKtXWZlIq6MnBBAniFOOjRs35sRGVkx79lxChw+/kEt/881nND1cUS0bHy+dyGzVxB5nkyqRbUf2C68mW8F2TyBnAS75Oeg4SS3Mm1sx2PokQPWipXGbfv3eNkks4euxFaKc8bh5MGdPccHuthH0O3I21ySvTxMh6M6zbMGlftNvfzw+YXqd+6RlbHpmto5wzv36uvPevae5A+WCeahzz6I+4a12h+mnkkfOmty1vPF8Hwj75u6FMTkqkfPc8yJ5fTqyreO+HLDbumhs7K4XG64OR1b3Ac5/iT/O3T15a7FhQ16cTpx4S0VIxMhPd+Ik1/30ZcsrxMkeANfdwmQHxupU9kBQDtE1reuggrnpPFF2NSB5zflEt71MHL362uy8rZyTNW2zm9YtK84tZZ3Tc11euVAMykTbtMF9lHGl7MDaH+eM+Xqb5PVpLk4yz/kAbiZO1fdJ5077ZPL4gevPebc+Oas05XQuJbA4iEw/JZ3ngesL72Gde+bmR+Y2df2ReeU5ztdR12eKxm9WSdn4deVk76NtU3/EPMHRtjlft//ycIPrl7YbiJP64CXn6Rh2u3oisXGJttXNI+M0aV2RE0zdbpzmQN+ccZlxSpM2az3kT1J8sTlyxKycQnE6dOgFTZfrfvrSZctLG3Q3sU4QdIUkf3OFWD160yN1a3DYOqqCsK82s7rjZV2buV9ZvqFRYYkISNG4XH/8epvk9WksTuL0PEibpDQSp0hb/n2S70V90vJevlh/umIS3Aud927euvdM+1Yg7sPzUxEGDnBbh/Yh2NZpfed1Bce0nS/n0PoaiZO0dx6vlOKvKmhbKl55ERKkXyJQUtaJjtbNl/w0of0v5+VWa7WRv5XzxWbfvq9Ez5bE5CwqvLZk6bLSBquCxCd0EJ/MIXqcvii4TXpWTm4a/2rZLBl9tckTLU5ZVDYsl3235TQTE3NkoWhcTeYgltfH9T1sO0ZRG83Eqfw+yfeiPmk+b+5i9RWN18yxL07V96zMJ4Sy603ukaTLk7O2DVqtt1KcevM4RIibbOu0ryI+UibYygmmrfO0LV9shKwsb9k+sP034iRPAvNiV5Reybrbb8+JTdMzp8U3Lylt0N3ImBOHFAWrUHjTg4AXQmeQsrLslY9yI3T7464N0KYry8lxs+Xq5nMUjUuIBn7NvD7uvvDl6HWfojYaiVOt+xTvU1g+Vp+7Vz2io3PviVONe1HmE0LZ9SqfsUmKpDcWJ/0ubfcGelNxku/SX4kNc97VGxtudSTffXScMXHy6nb0LU5r163LiY1Y2bYuFKdFFeIkqLN6TliEu+mNfpEKbnqsPakjOxew9QzSpisre3Tdi4dm28/6E8uj17rBIxSNq8kcxPL6zHZxKrtnZT4hlF1vco8k/VyLk0P6rbHBdavg2HkQcWq0corU3bc43bY2L05u5SRi5KcXidPCxTdXNuhuZuwG+WQ3NpLP1eE7btlNLxNDDR5bbpA2s7KeI4ZU5XFt+I5u+p8XLKGwPzXz+gxNnIJ5dvWOrDjZfLXuWaTPQtn1Kp+xSYqkNxYnbVtEofdFzaZnTjYph9ThrmtbTc+cInn7Fqdbb7stJzZiRe85SbqfJrZg0eJaDYqqy00zS8e0+4Y4f/bfEHc3N/oUJHCospvunF5vuNTvnrhw/WHwDNKmjEv+0bfes7IyJv6uzZvrvrOG+GIp300b5qlH90mR7U8w3iZ5fYqEIBZ4RfPsxjYmj7F17DLX0hdJ61+cJK/MpfhHlq+iP67fVeIkVN0zzVPkE3We1lX4jEPSm4qTIP3XJ2BZ/82jfvEBX5wyIeO2OUnTfAHR9i4JYsNbOWkdnGaezLG4eOPUNG/VJAxdnG659dYewRELXxkospsWLqzdII/KTCJ/lK/G+LtMsnfjJJ84uXw0lt8LO8puelec5Abl64q9izJIm91H99a4Hlc2troIMcHSDaCsDXEWr97yd2iq8/oMQ5yELCDFeNw8bDNmL0CLymt6MDcyF64+JwRh+Vh9TcRJKLtnmoHp8QnJ4z1UGYaf9iNOQm7etV2undP8bV21OPF1732kwWNjyOK05pZboqJT1+YvqC9OoB5FzhyjSV4wswnFLoa/bbNJo8vqNYOJ043zb0JQDBmIE2hKbJUUYlZKnMfbto006erVUdGpaxCn4QNxAmXon+f0nJeZ7Va4/RPkXFfymlcGJE/D7dW5YlW6Wv+zJytWrtQ/4l0+vkL/JEXe/JYXLBcvWaqvC8hTuQWLFtGChYt0KzfvpgUqTDfMm4+gGDIQJ1AGqRjxfdfzH2Nl/0008xTPnhVFXrYEAAAAAAAAAAAAAAAAAAAAAAAAAAAAAAAAAAAAAAAAAAAAAAAAAAAAAAAAAAAAAAAAAAAAAAAAAAAAAAAAAAAAAAAAAAAAAAAAAAAAAAAAAJgR7Nixg7Zv307btm2jLVu30pYtW2liYoLuvHOz2qZNm2jDxo10x4YNtP6OO+j29evpgQcepDNnzpCtAgAAho8IkwjNabHTMTutdopN8u3cuZMOHjxIuyBQAICpZJsVp8lTp2hy0tjJnE3SyZOT9D6bCJSI07Fjx1Sg7rt/FwQKADA1yFZOVk1NxUnsTRaoe+69F+IEABg+W7Zs0e1bXJji4jQ+Pp5ZunrNjBWnTprQWJJSh2jGjpHaLR5bQikP0iYBMBpsnphQ8enXVq5Kazk1ddrUSjjY+WNmSYvaIxwUg4oTdVJKZJyt9siOcRTFqS3zPsa+MYN/FEAN7ty8OSo6da2OOEkAaJCyGKXtNrXVUhYr/j6DxcmUT3jso7sygTiBkUVeF4iJztGjr+W+Hz/+Vu67sxUrV5U6EHFop4kI0/TbHg0iTm7cLV4ayr8JR7+9NFJgWwdGlo2bNvUIzlNPfYf27v1cLk2+P/745bk0sfEVK0udmvj3r8X/jPLWpoiBxEmD3vz6D7oCm0ogTmBk2bhxY05sZMW0Z88ldPjwC7n0N998RtPDFdWy8fFKp263WJxqBICcS6Ut2QZJfmMJi5of1Fmg6xmWy5foCsVct1tIsciZVlcoeEXDbXFSjbzddHN2ZsuwJXw9dm6mY7aCbM6e4uPvrz/VeWP09L3FdRWIU9U4m/RFV5F+Hu9+xQjnvU555zvy0Rj7UeA7Qla35PfOQGN5wTlmw4a8OJ048ZaKkIiRn+7ESa776cuWV4uTrp6so5c5gZ5NccC02fE6HTb5LmU4cmwW61zseBwEqeRRJ7MOy85pgkjSU7Ni85xcMOVb3B/On3JftB05/5I6OLB68npB4g64szbcuPLl3GqRh2rKcQ3aRytWPs37Uy9vSG/fOzzd7ocgL051xlm3L9nYOW/WLv+AtLx7GuLPe53y3f528zjf8e+fYOoWP+F+Wz8zZ1x5PwMjgPxJii82R46YlVMoTocOvaDpct1PX7psea0bKk4mwSAfVUjEoT2nKUJXIJ6DqXOFwWTFIHTE2JbFlO8Kh8M5eK8QhkEStGHb9suZdrsBKph282lC4/7UzOtT1HfB1Nmdo7rjrNuXUKjroHVn815evmxsri9+2aJ+h34GRgD5WzlfbPbt+0r0bElMzqLCa0uWLmt0M/mnqitSsWDR5bn5RU7E6YJ8xrnyQZ45KHucTVKMc8bEqVckYnXEgiQUgLBcYXBHAkVo3J+aeX2K+i6EAl53nHX7kn2XNkq2cj75eS8vXzq2oC9CUb+L0sE5ZN3tt+fEpumZ0+Kbl/R1M01Q5J3KiVbC4qSvHLgldyhOYeBbJ+wJqCJxCso7/HMiIRckVlw4OW4uGGvmc/TbH5uUEeb1KRJGoUecava/SV/k/jRZNYd1l5UvHRvniopTpN+aDnEaLdauW5cTG7GybV0oTov6FafAcYqcLHSmmHO5ugYRpypHzvrHlemZRmh+/8TJY3n02nD6Y5OUWF6f0gAuEKda42zYF7mWnQUV9FUoqzss7/rbaOUUqVvTIU6jxW1r8+LkVk4iRn56kTgtXHxzXzfTLcdDJ+OvWX2Zc3nOFHMul6+2OAVpQqx9v62Yo4dU5YkFUuP+1MzrU9YvXeX44lRjnEK/fRG0zYhAOPx5t0k5/PJZfyP5q+6pTVLMeCBOI8Wtt92WExuxovecJN1PE1uwaHHpzVQR0ic68hTOfzs8DAorVtkTF/OoV56q+M4Ucy7noPVXTqZeOcPQ1YD7NQ7qDdvKtqLyRNGtJHQs/J3zuOtNArN5f6rzxgK2t+/m0bvObzBHVeOUPPX7Ivdftuk2D9+T3I9SpK/+vFeVF5wIRZ/WefmE8J46NB3iNFrccuutPYIjFr4yUGQ3LVxYejOdOMnHrrFTq+PnHUGczIiWyaOPegNnijlXc3Hi8rm2JBB7z0FibXUfl1vjsbkzELMKKXdwE/jdPvXVn4q8RauJLGDVpN98NeiPo2ycer1RXzivq4fb8vNUi1N5eQerEfcjny92thW7p4KmQ5xGizW33BIVnbo2f0G5OI0aRc55rmjSn1Hq+1T2pWrbB2YJq9cMJk43zr9pWjkQxGk4TFVfspUUr45sEpitpKtXR0WnrkGcBgPiZGjLmWTHvTLQu80Es5BV6Wr9z56sWLlS/4h3+fgK/ZMUefNbXrBcvGSpvi4gT+UWLFpECxYu0q3cvJsWqDDdMG/+tHIiiNNwGLo46XmdPStq974WAAAAAAAAAAAAAAAAAAAAAAAAAAAAAAAAAAAAAAAAAAAAAAAAAAAAAAAAAAAAAAAAAAAAAAAAAAAAAAAAAAAAAAAAAAAAAAAAAAAAAAAAAAAAQCnLliym6+ZeW8sk7+uvv062KAAATB0iOpOTk7XMCNQiCBQAYOppKk6vvfq/ECgAwNTTVJzkXwgUAGDK6UecxGaDQHXShMaSlDpEM3aM1G7x2BJKeZA2qWfcs2EewAgSE6cT775HP3/0Sfrp3v38+d0sfenNC1WgfJs/70e1HJY6bWol7OT8MbOkRW0vKEaNQYOSOiklMs5We2THCHECI4svTkeOvUO//cMB+vXzL9F9ux+le372CP2Ov+974ll6+8jRLJ9vUt5WVYgEgAYpi1HablNbLWWx4u8zWJxM+YTHng/+UQLiBEYWX5wee/o3dF97H93z80foxz95mHY+8BBtv383bbnnZ/TIL3+VEyVnVeJE7NJpIsI0/Zx7kKB0427x0lD+TTj67aWRAuIERhZfnP7v8Nu0a88+2vngv9ORo8d0tTRx909o084H6OBfDuVEyVm1OPF2jv8Z5a1NEQOJkwY9b1u57CgHN8QJjCy+OP3l0Fu0Y9ce2nbfbhWmt94+Qht33E8Tdz1Abxz8S06UnFWJk9BusTjV2NrIuVTakm2Q5DeWsKj5QZEFip5huXyJrlDMdbuFFIucaXUDjVc03BYn1cjbTTdnZ7YMW8LXY+dmOmYryObsKT7+/vpTnTdGT99bXBfECYwqvjjJ2ZJs4Tbf9SCvlnbRhm330fotd9PazTtp188fzomSszripKsnGxSh2Pjo2RQHTJsjrdNhk+9ShiPHZrGBwgKm51WSjwVN62aBEmFTsZD01KzYgqAy5VvcH86fcl+0HTn/kjrMSsdm7QnK7IA7a8ONK1/OrRZ5qKYc16B9jKwem/enXt6Q3r53eLrdDwHECYwgvjjJamnvY0/Ss7/9Pa3fejetm/gxPfbks/SLJ56mw2+9nRMlZ3XESZAAlWCQjyokElw1nF1XIGGgBMGUbR2DACrcsvAlJxwOF7y9QmjqLDo7c2375Uy7EWGJCEjj/tTM61PUd8HUCXECI4gvTs6OHz9BG7ffSxtYoN7hz5K2YMUamr90ZU/euuLk4J/srkjFgkVWQi2zOkh0RZDPZ4IpXKnEVyYmaGPi1CsSsTr8oIyJkBCWKxQxKyChsDTuT828PkV9FwoFPJzzyL0CYEqJiZNvdz/4M/ruD+fTP825li7/9hz656uuobvu35VdbypODhMU+YBxopWwOOkrByJkNQLFBWePcBSJU0Gg+edEgp/XiQsnx82JU818jn77Y5Mywrw+RcIoQJzAyFIlTg/ueZi+ddX36Y03D9Kf33iTvnbZt+jH99yXXe9bnNjVcyuOspVFRaAMQ5xiqw8/b9Y/rkzPekLz+yerm1gevTac/tgkJZbXB+IEpiVV4nT/T3bTP/7LlSxMb9Drf/4zffnr36RtO+/KrvcvTvacyAZULICyoKsIFJevtjgFaUKsfb+tKgEQ6oqE38/G/amZ16esX7rigjiBUaRKnO598Kf0rSuupku/eTl96Wv/QF//5mW0bv0d2fUqcVIR0qdL8hTOfzs8HxSZWOljcVlpyFM4OXeqDpTG4mTrTYOngmG9YVvZVlSeKLrVkI6Fv3Med71IJIToAX+j/lTnzcSotO/2tQ2uC+IERpIqcXJ29bVz6cprvteTXlec5GPXOCg0SPLOLmJiRMvkkXeX6gRKc3Hi8rm2JGh7nx7G2uo+urfGY3NPHs0qpPfA2ifcRvXVn4q8MXESMiFTk37z1aA/Qjju2DwAMOXUFaciqxKnUWPUAq1JfyASYFYBcTq3QJwAKADidG6BOAFQgPwH40Rg+jUpb6uaFkCcAAAAAAAAAAAAAAAAAAAAAAAAAAAAAAAAAAAAAAAAAAAAAAAAAAAAAAAAAAAAAAAAAAAAAAAAAAAAAAAAAAAAAAAAAAAAAAAAAAAAAAAAAAAAAAAAAAAAs4xlSxbTdXOvnRKTum0zAADQjJioNLX9+/dH/xWzzQAAQDNEQCYnJ6fEZpI4ddKExpKUOkQQXADOBudCnKjTplbCwc4fM0ta1ObIl+ujyKDiRJ2UEhlnqz2yYwRgpHDitHXrVlq7dq3+68Tl7ze/Rn+95hX65OqX6ZMp26r/oYtXdujiFQfo4vED9InlL9Hf3d7J8od1xMSJ2i0TpCxGabtNbbWUxYq/z2BxMuUTHnsy0uMEYGQoWzldHIjRxeMv0SeWvcj23/TxJS/Qx2/+g1qsrFgoTsShnSYiTNNvezSIOLlxt3hpKP8mrE72EgCgiLKVk4rRcitGSz1BWvw8fWzR7+ljC5+jixY8l+WvWjkR8XZOVk3TcGszkDjxanFsjLetXHbQFRgAs4aylZOKkdjiP1gxYmMxuuim39FF88V+Qxfe+JtoWbFQnIR2i8WpxtZGzqXSlmyDJL+xhEXND+os0PUMy+VLdIVirtstpFjkTKsrFLyi4bY4qUbebro5O7Nl2BK+Hjs30zFbQTZnT/Hx99ef6rwxyvpuxFRWet16slWv98NSd/wA9EXZyslfHRlB+i1dOE8E6dd04Q1sP/ovuuD6/8zyV62cBF09WYcOxcZHz6Za7Ozs7Z0Omz2r8rdEJkBZwPS8SvKxoGndLFAibBoskp6aFZsGc7c9U77F/eH8KfdF25HzL6nDrHRs1h5xyg64szbcuPLl3GrRBXosyB3N+1Mvb0idvqugeuPV9rzrdccPQN+UrZxEjC6KiNEFP3xW7aPXPUMf/cHT0bJiMXESJEDb2a+9Da4aDh0PmPwqJNs6evkEsxrI5zXl8ysEwQVerxCaOjOBCduwbfvl/C2dTeoJdEfj/tTM61O37/73QoGtMX4A+qZs5XThDSxGP2Ixut6K0b+xGF33tArSX819iv7q/7H965NZ/tCKxMnBP7ddkQocXdCVUMusDhL9Vc7niwV50crEBG1MnHpFIlaH5rVtFwVhWK4wiK2AhMLSuD818/rU7bvghLXlbUuFJnUA0DdlK6cLWIwusKujj879VSZGH7n2CfrI99m+t5/t8WhZsSpxcpggyDu7E62ExUlfORAh8wRC8viCId8FFyA9gVMkTkF5h39OJOTEyYoLJ8fNlqubz9Fvf2xSRpjXp0mfMrEJV6cNxwVAX5StnHR1xGLUFaT9dP41j9NH2M7/7i/p/Ksfow/P+UWWP7Ta4uSCwDq1c37+misfBmQsQIchTmF/BD9v1j+uTM96QvP7J6ubWB69Npz+2CQlltenbt8FtxXWVatXX5M6AOibspWTihGvjESQnBidP4cF6ap9xr7zKNt/RMuK1Rcns00oE6cs6LyAjAWoy1dbnII0Ida+31aVAAh1RcLvZ+P+1MzrU6fvgr91C+usWwcAA1EmTn8772kVo/N5dfThK1mMrnyUPsRi9KErHqEPfdvY3/xwf7SsWChO6vD6dEmewvlvh7Oje4GWiZU+FpdfY3kKJ7/geTEaijjZetPgqWBYb9hWthWVJ4puxaBj4e+cx10vEgkhesDfqD/VeTMhadB3yRP2Tb97Z1x16gBgIMrEaVArEif52DUOMHXwvEOLmBjRMnnk3aVQIMLvQnNx4vK5tiTgep8extrqPrq3xmNzTx7DYI5hArzbp776U5E3Jk5CWd+17mCush8Mb7VUVodmAGAQzqY4jRoxwTmXNOnPqPUdgKGzbMkiFZGpMKnbNjOSQJwAACMJxAkAMJJAnAAAAAAAAAAAAAAAAAAAAAAAAAAAAAAAAAAAAAAAAAAAAAAAAAAAAAAAAAAAAAAAAAAAAAAAAAAAAAAAAAAAAAAAAAAAAAAAAAAAAAAAAAAAAJihnDp1it5//306efJkpX3wwQdkiwEAwNQhwvTuu+/Wtvfee4/OnDkDgQIATB2yChKxmZiYoM9+9rP0qU99qtSuueYaevXVV3WVBYECAEwZIk6yGrrhhhtUfNq795TaF77wBbrqqqvo5Zdf1nKnT5+GQAEApgZfnI68fbTUvvylL9OnP/1pmjt3Lh0+fFgFaiavoDppQmNJSh0iiDBD7RbPQ0IpT4hNwhyBqaOpOPW7xaNOm1oJOzJ/zCxpUdtz9FFj0MCjTkqJjLPVHtkxNgHiBM4qMXFavGgxXX/99ZnFxEnM3+LZ6qKIU2uQshil7Ta11VIWK/4+g8XJlE947PmAnq5AnMBZJSZOoQgVpcsW75FHHikVJ2K3TRMRpunnwIMEnht3i5eG8m/CEW0vTVsgTuCs0mRbF5qUefjhhyvEibdz/M903NoMJE4ayLxt5bIzJYAhTuCsMtXiJLRbLE41tjZyLpW2ZBsk+Y0lLGq+42fBoGdYLl+iKxRz3W4hxSJnWt1g4hUNt8VJNfJ2083ZmS3DlvD12LmZjtkKsjl7io+/v/5U5w1pWrZnnC0uWypOzfsEQCkxcbrssst0CxezH/zgusbipKsn6+ih2Pjo2RQHQZu9utNhk+9ShqPBZrHBwALGzp9KHhE0rZsFioPDiIWkp2bFpoETBlOL+8P5U+6LtiPnX1IHB1RMCG1adsCdteHGlS/nVos8VFNOAlfyRVaPzftTL29Ik7K94+zwrXE/GjFx6q9PABQiT9lEWA4cOEDPP/88nThxgo4fP06rV6+mOXPm0Jyrem3lylWNxUmQABUHl48qJOLINRxXVyCeQGgwBAGSbR0DISrchvAlJxwOF5C9QmjqLDo7c2375Uy7EWGJBGvj/tTMG1K3bNE4BVNH//MJQC3kz1bk7fAXX3yR1qxZQzfeeCPNmzePNm/eTK+99hqL1Ak6euRYJkQxayJODv5p7YpULABkJdQyv8SJ/vrm85lgCH7pXUBxhNgkxQRILJh6RSJWh+bNxKlXhISwXKGI2WANg7hxf2rmDalbtmicQrHY99cnAHqQFZMI00svvURf/epX6TOf+YwKjZj8Gcs3vvEN+uMf/0jvvHM8KkrO+hEnh3H0fBA40UpYnPSVAxEyTyAkjy8Y8l1wgdAjHEXiFJR3+OdEgp/XiQsnx80Fd818jn77Y5MywrwhdcsWiahQKE599gmAHuS/LiArJhEmJ0qhXXHFFbqCkneZ/HTZ2g1FnNidc7/YZSsLz/ljwTAMcYr90vt5s/5xZXquEprfP1lJxPLoteH0xyYpsbwhdcsOS5zq9AmAHmTVJFs5f8UU2uc//3nav3+/rq78v697Yv8TQxIne05UEhSZg3vOHwsGl6+2OAVpQqx9v606wVaVx7Xh97Nxf2rmDalbtmwMuhIaYD4BqETERM6YQkEKTYTnxPETmRiF5vKUiZOKkD7Jkadw/tvheUfPxCpxqw55CifnTl2BkHy+YMh3obE42XrT4KlgWG/YVrYVlSeKbjWkY+HvnMddLwtIDfCe8TTpT3XeTGD6bKd3nPYVDy4bFaea9QJQiYiJHH6HYuSbvP29d+/eoYmTfOwaO7M6ft5xRUyMaJk88u5SKBDhd6G5OHH5XFsSiL1PD2NtdR+TW+OxuSePZmXRezjsE26N+upPRd5icarXjpAJjJqMkXMFfRea1gtAKSIm8lSu7L/h9MUvfpGeeeYZeuihh3J/Z+eb5Nu9e7e+gmCrHnlignMuadKfQfo+auMGIMrk5KQedstTuVCUnF199dX0+uuv0+WXXx69LnbppZfSc88919eZ07kC4gRxAiOMe/nylVde0adycvgtYiNbOVkxiTD96U9/0jxlJism+VfembJVjzwQJ4gTGHHcu05vvPGGPpWTsyM5Y5Kt3KFDh/Sa/Jcuq0zqmU7/0wOIE8QJTANEVNyb4m41JJ8lDf+XFQAAAAAAAAAAAAAAAAAAAAAAAAAAAAAAAAAAAAAAAAAAAAAAAAAAAAAAAAAAAAAAAAAAAAAAAAAAAAAAAAAAAAAAAAAAAAAAAAAAAAAAAADE2LFjB23fvp22bdtGW7ZupS1bttLExATdeedmtU2bNtGGjRvpjg0baP0dd9Dt69fTAw88SGfOnCFbBQAADB8RJhGa02KnY3Za7RSb5Nu5cycdPHiQdkGgAABTyTYrTpOnTtHkpLGTOZukkycn6X02ESgRp2PHjqlA3Xf/LggUAGBqkK2crJqaipPYmyxQ99x7L8QJADB8tmzZotu3uDDFxWl8fDyzdPWaGStOnTShsSSlDhEEGDSik7YoGRsTv1FrteFDjdk8MaHi06+tXJXWmnTqtKmVcLB7N2wsaVGbI1+ujyKDihN1UuOg7Jk2adbSlrkc4/s9C4Se2i0ZI7XSDnU6zoY37mwuP5jhc3nn5s1R0alrdcRJbpYGKYtR2m5TWy1lseLvM1icTPmEx56M9DiHCfFspTzmcKUwW8TJjH9qf5BmjzjdGReno0dfy30/fvyt3HdnK1auKp2g7GZNw+3RIOLkxt3ipaH8m7A62UszGmL5afE/s3Ub48Y/W+73lLJx06YewXnqqe/Q3r2fy6XJ98cfvzyXJja+YmXpTXA3azpubQYSJ13am5XCoCuw6QTECeI0NDZu3JgTG1kx7dlzCR0+/EIu/c03n9H0cEW1bHy88ia0WyxONbY2ci6VtmQbJPmNJezlflBnga5nWC6fbCOMM+QOIiNnWl2h4BUNt8VJNfJ2083ZmS3DlvD12LmZjtkKsjl7io+/v/5U5w3pzptsp6Wc6Y/fT58wvVue75F3dujfH3OfA7N1hHPp19fPfRTq3AvnU/LRGPuXJxzR696YHHXGr3myekLrvf/iF7n+t7h+/lE7T/Ie6B2vQ9o5j/vCWTSPrtKDMbh5dNQf5yWm7p5x7u7JO+Vs2JAXpxMn3lIREjHy0504yXU/fdnyanHSXxN7E2IT4tCzKb5BbZ5YPUS0Z1W+Mxkn4Yllh031oFEm0d4QnnzjoJLON57L+gEhmPIt7g/nT7kv2o5zEg6Cnrzd8tkBd9aGG1e+XLh6KDuHaN6fenlDuvOWD+Bm4iTljeNL2+bso3t/ZJw6Jzp2k8fNXTiX3fr6u4917oW7DzJnaeZTXB/PXb4OLqN1yHV3Phrzm/rjT9z9sW2GP07a9nl+/7k+Gbe0LXlripPxrfNyY2izsMthvM3utdWi3TaPjtO2f8A7uzLi1DvO83RMB4izFvZr6MifpPhic+SIWTmF4nTo0AuaLtf99KXLltfqrEyiTL58VAeUm1djoBoknqOok4Q3OnPCwIH5BoR5TfnebYdz1F4hNHVmAhO2YdvO/RpruxFhiQhI4/7UzBtiyubnQmgkTpG2w/sTCrNDyw/pPta9F9q3AtEuqkNw8+mPoen4c/6g9cX771Y/jnaLhUby1hYnbo9FptX+IJrftCXi1duW9OsSKbu7W1bFiS/5aYL0S9s8m4fw8rdyvtjs2/eV6NmSmJxFhdeWLF3WqLMsxV2R8m6qQ39BW2Z1kOgvYT6fcZK8w2U32wsmIXQKIVZeiNWheW3bMacTwnK+4/ljizm80Lg/NfOGFJVtJk695cN0N0/RcQ7pPta5F0V5HGXXm8x90fjLxcnlOZCrSxAhbrKtM321gsYrHZslQ9tiAYq2JWUv4bK8ZXMrIiNOvMIKRKibHhfBKWHd7bfnxKbpmdPim5f01Vnza5i/iU60EhYnfeXALil7nDoMfOtMPc5aJE5BeUc0IG1eJy6cHDdbrm4+R7/9sUkZRSLjKCrbSJwi5TU9EpxctDefVz5WX937WGeOXZ6wH46y664fg4y/VJyytnsDvak4yXfpb9GuRNsqWFnpOGPiJHWPgjitXbcuJzZiZdu6UJwW9StOgQMUOcswnVoocrIqh8z6x5Xpnj00v3/irLE8em04/bFJSixvSFHZ6SxOZffC5QnrcpRdbzL3ReM/m+LkkH5nZ2bcdxEcbavpyknqHgVxum1tXpzcyknEyE8vEqeFi2/uq7PuJjoH6N6w7qRkTjIkpxaMM+XThFj7fltZXzyHDanK49rw+9m4PzXzhsTmTVAR8oJLCO+NUFTe9Oksi5PNV+teRPoslF2v8gWbpBSNv1ScXNvcgBMFR9MzJ5uUQ+uw101b3e82iyL9ip45Sd5REKdbb7stJzZiRe85SbqfJrZg0eLSzurNkpP/NLVvhru3w/nm5G6YDYjsqYN5lClPDXynGMSpBVPe1Nt9glP2hKablm1F5Ymi+5XWsfB3zuOuh4Hpo2LQM54m/anOGwu82LwJrs9j8hhbx2Tul573ecFfVF7TI8EpeXVbzvc7y1fRnyb3sepeaB4rMj1P4+o8rQuEr+n4y8RJMCskv/9y1mr93ROnmLhIm06cTHx5TyO5LTlj8oVP25e02NM6b9UkjJQ43XLrrT2CIxa+MlBkNy1cWNpZM3ky4TwRmfFN0JuSnwCZRCNaJo8+yhyyU2flc22Jk/Q+PYy11X10b43H5vb4sVVIiAmqbp/66k9F3ibiJGQBKabCZ8fiBWhReU0PxixjdPU5IQjLx+prch+FsnuhGRiOQs4jffTysF/pRabnuvhdUIdQd/x1xUnIzbu2yxk4zd/WVYuTXM/3P+Y79cc5QuK05pZboqJT1+YvKBenUaPIyc4VTfozan0Hw0eFR8QuEAcff9tmk2Ymq9cMJk43zr9pWk0QxAmMKrFVUkiWh1dH/nZsRpKuXh0VnboGcRoMiNPsRP88p+e8zGy3YofhbTmz5XzmlYF4nhnHqnS1/mdPVqxcqX/Eu3x8hf5Jirz5LS9YLl6yVF8XkKdyCxYtogULF+lWbt5NC1SYbpg3f1pNEsQJjAKkYiRC486Axkj+lCc8h3WYp3j2rMg7MwMAAAAAAAAAAAAAAAAAAAAAAAAAAAAAAAAAs4qxsf8Pl1ZREE+FZH8AAAAASUVORK5CYII=;" vertex="1" parent="1">
                    <mxGeometry x="410" y="37.5" width="99.54" height="165" as="geometry"/>
                </mxCell>
                <mxCell id="14" value="" style="shape=image;verticalLabelPosition=bottom;labelBackgroundColor=default;verticalAlign=top;aspect=fixed;imageAspect=0;image=data:image/png,iVBORw0KGgoAAAANSUhEUgAAABsAAAAaCAYAAABGiCfwAAAAAXNSR0IArs4c6QAAAARnQU1BAACxjwv8YQUAAAAJcEhZcwAAFiUAABYlAUlSJPAAAAHDSURBVEhL1ZSxT8JAFMaZCRsjIyMTCwMjAyMLE2yusjq7aTShMSE2YXA0Lv4JrhpMkETjQEiMERd1MYZqKBR49rtyzbVcr1A66Jd8eXfv3r1fe7k28W/UbrfJDkova2IRFQoFKpVKUmMNNU7p9qJisUjVapUajQaVy2UWuTFHjVO6vahWq5FhGKwhxr1ejwaDgTtHDcYeHRw3aVPb29jT483QI5fLEazrOnW7XTZGDdY8kjULs72NstksM3og5vN5Go1GVK/XeV4OWw43EWUyGWZMEDVNo06nI+bjg6XTaeZKpeJGvB3Po8YpFRQVlkwmKZVKSY011DilgqLAcBHsoPSyxisV7H34TdruLZ3t39Ow/7VSt1gsCJ7P565nsxm/RKtqnrSkC+Mfi4EOd25cX108E/JYDwIpYa9Pn+7T80aImIsgbn3vjkGCQJZlyWEP1x+eRhx42ep78n6rQIEwWSP/0cmsAk2n0/VhfgOOoxNzKlAoDMcmeyPkcCPPjx49eRVoMplEh729GCswFSgUpjKAp75jVIFM04z3gqhAgbCoVx970VBlBvBL/CWt+1GzjXEKQP+Rir+r2BX2I/6DSiR+AZqRCyp+DNi5AAAAAElFTkSuQmCC;" vertex="1" parent="1">
                    <mxGeometry x="20" y="107" width="27" height="26" as="geometry"/>
                </mxCell>
                <mxCell id="17" value="" style="shape=flexArrow;endArrow=classic;html=1;fontSize=16;fontColor=#000000;fillColor=#dae8fc;strokeColor=#6c8ebf;gradientColor=#7ea6e0;entryX=0;entryY=0.5;entryDx=0;entryDy=0;exitX=1;exitY=0.5;exitDx=0;exitDy=0;" edge="1" parent="1" source="6" target="9">
                    <mxGeometry width="50" height="50" relative="1" as="geometry">
                        <mxPoint x="130" y="120" as="sourcePoint"/>
                        <mxPoint x="400" y="120" as="targetPoint"/>
                    </mxGeometry>
                </mxCell>
                <mxCell id="10" value="IDE&lt;br&gt;&lt;font style=&quot;font-size: 16px;&quot;&gt;(Integrated Development Environment)&lt;br&gt;&lt;/font&gt;統合開発環境" style="rounded=0;whiteSpace=wrap;html=1;labelBackgroundColor=none;strokeColor=#000000;strokeWidth=2;fontSize=18;fontColor=#000000;fillColor=#CCCCCC;" vertex="1" parent="1">
                    <mxGeometry x="140" y="10" width="240" height="220" as="geometry"/>
                </mxCell>
                <mxCell id="11" value="" style="shape=image;verticalLabelPosition=bottom;labelBackgroundColor=default;verticalAlign=top;aspect=fixed;imageAspect=0;image=data:image/png,iVBORw0KGgoAAAANSUhEUgAAAL0AAADFCAYAAAABpvOcAAAAAXNSR0IArs4c6QAAAARnQU1BAACxjwv8YQUAAAAJcEhZcwAAFiUAABYlAUlSJPAAADjnSURBVHhe7Z2Hu1RFtvbnr7rf3Dvx3nHUmTHr6AQdFSOioiCKiIojigGFQ84ZlCCKmBMgKIiKIiBZokQJJzOjzvpqpapVtasPBzgijbWe530q7j5t+9svq2rv3v2zEiVKlChRokSJEiVKlChRokSJEiVKlChRokSJEiVKlChRokSJEiVKlChRokSJEiVKlChRokSJEiVKlChRokSJEiVKlChRokSJEiVKlCjxg8TmtXthxINvQ79rX4Cel8yEuy+dBQNvfxmeG/UhHD3cAjKtRImzI1Yt2wZ9rprtYJ9FwKPuvHiGE5dP3fUa7NncCP869q8Cf4n6j/Wf7YaeztU97Jcg7LHuuHg6PHLtAti+5Bi0NRfwS9RxbFm3F/pciQ6vwKvDx8CTLpoKbwzaDZtmfw9Ht38Lx4rrl6i3OHywER65ZUEHDi+wE/DTCPpHr10I6yYCrJv8H9i56Ds41l7AL1En0dzUCgNvWxiAj2C3wCPs0+B2BzxrEqx10K+d8B/Sprnfw6Et/y7glzizo7WlHWY2fOiBZ+gt/NMZenL3GPruF0zwwHu5k2DPyu+gram4fokzMDAPf2XW5w5wu0tjnd6mMwq8Qj+FoF8z/j+wJgEf2+tnfQeNewv4Jc6gwO3GRQu+hJ6XpduS6u6yaEXYKa3RlGYq9LhwitNkuPWC8R54hV9FJ8Ck/8Cupd8X1y9xZsTq5Tug95+TvXi/eBWHR9iTPF6BJ+j/NC6A7qBXl09PgE3zvocjO74t4Jf48WLz2j3Q/zq80ppLa2oAb2BH3abQW8C1rifA+O9De/L3sPP9b4vrlzj9cehgE9z7lzlwFwHP0Ns8noF3wrTGODzm8AH4SXDbBZPglj+O9aB7lxfYozb1cblh9ndwdNe/ytXcEqcnmo62wlN3vS6w27QmuDw5veTxYdGKaY11eYR+ooN+DHyBbu5EJcFtyrRO+g/t6+9a9m3Z1y/xw8fge950Dv+cgR7lYE9z+cjh1eWnMOwCfHenmxV6BzaWegLUhD85AdbP+A4Of1X29Uv8AHHs2DF4YcIncPdlz1FaE6c2CfAp9JTLc2qjaQ0C3/1PEwh6BpihpxTGQJ3KnxQkPmbtxO/h6+Ul1y/RhYHAvzVvLdx1qQOelIfe5/ER9AF4gt4Bzy4/gaC/6Q+jPMBUGjePAZcxU8dxnYPlhjnfwZEdBfwSpxh48emLFTugz1VzPfQKu8/nrdMT9DaPrw189z+NJ+gJ3nEIr7g9wa3Oz0CrFHo7picAtZ3r73j/38X1S5x8fL39UAQ8pTYEfhV67/QmtfHAC/QK/K0OeNyuVOgV8kjuRCCl/cfVd/DlzO+hcU/Z4SlxgrF31xF4qNtLcPelzwvwDH3O6XO5PLu8Or24PDl8gP7G80cGWGsB3hH4OpY7QSZ9R3dutpf79Ut0JhqPtMDg3m8Q8Ay9kwc+QB+5vIXeAM9pjbi8EwM/Hm75Ywb6zgCe1FeP+672ca5/w+xvXa7/b8C1ifznlTiVwJy3pbEdGr9htTa31/0H295+DEY/shjuvmy2gd66fABf9+cZek5tUNbl7RalBR4vTN14/ogsrBHIOaA76rNjUl/jcn3c129vLa5/0oGu0XSoHd4Z9TW8OGAnzB+wA+Y/7PTITvh0wTfQ1lqfrtLedgzGP+aAR9gvMy5POT3m8+LycutwcPs4teH0hnN52p6UBayFHrcrb1DoEU4RAk/QK7hOehLYUuvpHHsc97tStG66c/3t6PoF/hOKY84JN684Cgse2wUvPLQjyEE/T+pvjdgDzUfqz/XfeWEd9P7z3Aj6qtPHwFuXD8Cz01uXt7k8Qf+HMXDjecM9kAqyVdwvYGcAD3PkOOxPXlPn4z08X73pcv3i+p0LBPmjeQfI1RV0Cz5Cr3r5iZ3QeLB+wF/+zhbofcWckNacCPSS1hD0ldTG5fN/UugZeExtEPobzh/uIbWAWimsuTFUgDued7zjvpz1LRzaXK7mdhj7t7U4B/86C3kK/LwHt1P5ylO74JvdrWf8B7t53T7oc6VzeAQ+yuU1tWFZ6DmtsdBblw9781mXd9Df9IfRcAM6fQdgBnVmjlVn538LO5d8C61HC/xRYDqz9eOj8HKaznjtpLICvWjhkzvhyP4z1/H37DwMD163AHo52FEW+gB/1ekReLzvRtMbTm2CyzP0nMsr9N7lXT6P0Hc7b1gV+rFY2r5a9ePJzKXXrK0Nc79z4Jd0h6LdLUjfn7ovglzBTvv8mAF+7kOslwfthMN72864DxUX5AO7v+qBz0Hvnd5Dz+CnTh/n8+zy6VblLeT0nNrghalu5w7LQojKnwyqfOrSuX818lr3XLlr82f7tjbD68/G6YyVAu7rXgK9qyPw8x7keS89vhP2bmk+Yz7UpsZWGHjrQgf6HJEAT9AH8LPAdxJ6u2sTXB6hHw03ne+gd07/+XFcmGVhroJdeQ2Cv/YJoPPj476Fwz/Ve3fwbP9qVSO8NJDTFtLDpu7kARdH93UqRa4+V8edsP7CgB2AJ5P8qR8t2lrbYcGUzwzwKfRVpw/QM/jq9gx8SG9wIRtuOzDQq8tHTt/gocvBj325/pPR52O/lTLUwxiXW1/57qcHfUtTO3zy0sEIcAu6lpEM7Ah2AD2MaT9rG+z4ovFH/XBfnfkF9L58bgK97Nwo9MnuTQQ7KTg9QX+hcXlSvIjVBSx+cQTz+QB9cGQCEktp+36UgJkrEWJ/LNZd6Y+VeVzHeQH4cCz3rZn4E/se7sFdLfD6kN0ObE5ZUkWgU99OVwrgrm1TGZQ9AWyJmv/IdtjyydHT/gHjRZkV726Be66oAk/QY1rjoedSnZ5THIXeAU/Q4yJW05uwiA378wh8kt6Qy4+mWxCu//1Qhk8AVBgDkGEsKqM5DHllvo5l+1E8Zv8mSj6qsz/WvXfYLTZld6ZGKuPrCLCWJKyHtgKuzo/1Oc7dFXjV/H/ugO2fn17HX7fqa+j71/lZ4FGR0xuXj9ObkM+z04f0pgeBb6GPbz1A4DW1QeivO3eIhy+AGNoMth1XSaqiSvv969jX+xY+y/Tp8fp68lGdvdHSdAyWP3eALzIlsNfO47EUwLG0YySFPoY81Zz+2yjH37j88Gn5oMPWZB54VcfQG6eX1MYuZKs7NxZ6dnlaxBroY0gZQJLvt6XW0/muLvDGY3oShH5s1/ybri0f19kZB3e2wJsN8e7MfAU9PQGcqnA7CcAKOcn1p4B79Q91hJ7+BXDzt376w6Y6+ASDzgN/Ik7PwAfoeX9ewddFLF+UCqkNQz8Crvt9Cr2oAqUZ832qeE5wc+6j18+9XuXvYvssdvqda5srYHvgUTmXJ4cPsGNJY1iX9AZhVvhTyFUEeyrXv37p4R/kSw+4GzXmn+9nIY8lqY1xentFtgp9ePIB7dyQy+dyege8gV63K284bwRcf+5QgjRKOxyMKbjVOsseF71GOtcDzmBrPT6GJR/b2RP4sNHFk/bC/AFVJycZ2BVqW/fQoxyovhSlgM91QId6Dnjpe4DnrZi7v0vvAMSLT2MeXZwBPJW5MGWgrzp92KpMoUfgeTGr6U28c5M6Pd5hiU6PoH02JgaPYaxCHkkcHOcGeNN2eO30b1AflnRChNeSj+7siEN72uDdsXuzqUsqhdzWI9hRro6g6oI1q8Tpq9Bvg9kOeK3jnE9ePtAlVwbxX42F01cncHekAD6XHUAvOX3k9H4Ry05f3a7UfJ53btDpr/v9sxGgqXJj2ocl12v9y8AK86r9cR8fKx9f/ceGD47AAnuxqQNVIEdJ+pJ181pK83eEuuL21fbs/l/BJwsPnPI9+UsWbsjuxdeWdXotBXqT2gSnT6/GMvTs9LxzU3V6Az06vd+9ETidGyukteTnZtpap9K+Vvq6xv39uPTJx1e/0XSkDRZN2wFT+qyGyX2+gOf7ba4A3ikR9CyEOD0BtO5dH4GPYHZyi1YscTzqN0LXRz3/wFewcsF+aG87OcffuHpPh1uTtRVgj9Ib/4CnOL3R3RtNb1Lo7R69v/3AO/1wSm8URHJsgVDdW2HUfi/bl46Jotfwfcm4fR3UmDq/23Lf7iPwYLdZ8Lf/fRz+/KsBcMUvH4Irf/UgPPDX5+G5fhvzro5ga4kQ67jUFXaFvCLj7j6fN26ObQu5yqY41CZ9BR88vw/aW0/sDs1tGw9A37+dBPCXY1kD+hrpTeT0fhGbQo8uz07P+byB/hxOb2oJIWVH/ncVUOrP1Gmem18Zx9eQfmmnbl/XTr/o1dVw/XlD4er/fQr+9lvUE/DX3zwOf/ntQLjsFw+6E6A/jL/7E+/4DHYqdu4OATeQ41wsEVod13o1jalKQWfxiYD1RRP3OMfvXKpz5JtmGHjrKwRvFuzjKoY+3b3BNCf+8bQAfez0YY+egecLUxH05w+HayWnt9BF0FLbAK/KjWnblav0eBozdSxF8RyRa8tHWV+xef1uuPmCYXD1/w120D8NfyfwHfS/HQR/+c1jcNWvB8Llv3jInRSDYdb97PgR/P4EUFfnPgVb4Vawfd3IwhzDH4Ou8pCL42t9tktzUO+O301fQJf/xGw0NbbAsH7vZEDurGQB2+E+vTo9gi/pTQS93mymTm/26P1Cli9M4UL2WkxvPHQJwCpt5/oVXN/meuVfh1R6jJ8X5srHWV/xzAPz4Zr/e4ahd4qhf5ygv/JX/3SO3x+uP/dJB9lXHmwPusBvQU7bJIRewXewpn0p3Ap02ia4se7yfgWdTwSsc/nepD3QeCh/Tz7u9ox77H3n0g7UU3D51Olz0Ne6rbhWTl91eoVenF7BVfA8jKKo/W9yaHJpPc7MTfu5nfRXXkf6ZEw+0vqK2y4dBdf87lkPPkH/v0866J/w0F/160ddnv8IXPI//aD7n4Y7QLcZ6KvAq6J+cXAV9uli1ZeJcsD7OqY1egL4koUL2+fd+OvDdlUcv72tHV6a/CmBSaB68FU5wHNSl4+h9+BXcvqc08fpDe/eiNNnoMctSw+fQMogplDGdQWU+rBujtV5vm7m2jYpc5x8rPUV//jdEALeuz2lOE9KXu/c/teY4jD0V/zyYbj4v/vCI/94Mbi8QK1lqhh8Tl+wHoFeA3pUBXzps5B70Km+DZ7vJ+1+W+H1hgA+3zW52UHJ+bYH3+lEgVd1aiEr+XztnD5dyAbob5SrsfgFEnb62sCuGs1tlR2vzuNS+6JxbCPgOE9A96+jbSkJonoLcnlx+sjtfxvcHnN7THEQ/Mt/+RBc8F+94NHrFnQMvKYxTgirHbMQd1Y+fdFS5doMu0LPsOtJgHpjxG5o/KYNlrz6Jdx9BQPIQDL4AX6GOA86qzft2qhOBHq94YyhD/v08W3FmNog+Az9KBLu0Wt6g6Dl5KE1IGfbGeGxEdS1jrH9UheM6ivI6Q34DD0vaFFpbn/FLwfQjs7FP78PBt/8TgRzLbdHIbi2XlXoV3dHgH2ftGOXt/UAOUndXvTKMzug3zVzBLhpBCCCqOB7cAVkC3peJ+70ufTG3laM4Mffi3XpjXN6m9N76BL4OqPIzfG45FgLv+2zbSscE4zqKxB6TnEs+Aj9097tw05OSHNwYYtbmVPvXdsh7KRcPp/0oRT2ap2hprq0EWQPuwUc68bpeZzbE3utcU79HEGH8HUEfh70WAw8gl8L+lnu9TWnV7dPodf0JlyYQuhR6vQIfTeE/pxnGLjOgp7Oy4Du+3NtKQl8WzfzBKP6Cg+9A/4fxu05t2fw/b49pjkG/Ev/5wG49Bf9YFqfdRHkdBI4OBV4n8cLxKi0jbJghz7Tj3VXItia1ijoBDfKLWArJ4Gpz7hvo4MQ3Z4dn3PtAH6An508BztLXV5VhZ726dMfR67h9KjoFgTzNUF2es7pP3WgefAUToTRpiWuxHl+DtVl3PbLsVF/TjKmebztF4zqKxR6BR+F0AfH190cm+Yo+APgkv/u5+Y9Bs/12+yhV9gRVOvyCrP2aRtLC7y2WdU6ApyW6ubPPeBKBR3LqL7Vvc+tMKPvJrjn8ufpm0vk+gi+c2MGNYCvKYyFPeT0DD2VAnwKPaU2mt7oDk4Effyl8HSfnpxe0htayJ7j0hsF1OnT0f+qQEhydQ+99ktJx5h2OseeLFRP5yR9glF9hYWenF7c/hpye9y7F/DNwtaCf/kvHnbg3+/AGUMAWle38OfaLDkB3LH+JIhAz8sDL7B7sH2dAadx1491q+n3boS+V80j8DXV4Rw8TnVy4FvovWpAH3L6ZJ/e32UZcnpy+hR6J1rInj8cxjz+qsD4rxheJws51tPxtG6B9nUr7e/oWCfBqL4ihp7Bt/CHVCfs32OqQ+BjquPcHu/Tuej/3Qv9/jLLwMyOzpCnoLMQWl+Xtgee2trHIGtd21UnVynwoZ7TjPs2wX1XziX44lRnJjm+BV9d3YKfAu+hz95wdoLQmy3Lm/44EiYOfgtaW9o8jAok1wVw6eeTQus8j+dqf+L2Ms+Pmb/Bx6j0dUIpGNVXVKFn8DXHv1rA1x0dcnzcv/9NvKODtypc9N/3wcPXvEAQVx09FgNt6yFv5xLhDtuRHnSVAzrqcxBrv7YRbGx70O8PwGt7+r0bnOM78NHx8WnCHnzj+HIBC8XpjZ4AAn26kPXQS4pD0PPrVnP6OL2Jc/pRrhwN04cvAryohtcZFL4ciNjmem5emKsKc2xb+/jE0PGc8BjBqL4iDz1K3B6VOj65fQ3wf34vjL3r4wh6vHoalQ5KPyaQ83joi/J6V4+Bxn7tY7DpBMBxA7nOj0DPaLpz/Hv/jNuZIdVh8NnxA/wBdg+8WcR66An81Omdy4vTo6q7Nwi93obA0CPwz41ZCvjDD/j/CqFnOK0sqLUUQK4tO5cV/lZuDpcEUb1FHvggD/7vguP/TcGXrUze0dE9/P5wyc/7wqg7V3iYc1KYLdgKO4KKpZ/n5MGmuri6E0KrsFtZqKltXH6WqwdtoXJm3y0w4OqFBGJlcSsgK/gEv3N8reegj9Ib2bKM0huBnsAn6PHBrfFC9u0XV0d3jKrT52HUei0FWD8ZZdvV8bgvnWfHzmLo1fVDqsNpjt/K/DVesQ07Opf+4gF3IjwEU/qsqcCuYpgZdGpTX+gn8Csyjk9CoFkebqkfTwh6WuIJMOCaVwlEdfyeGceP3F6dXuCPoY+3LC30DH7miqyD/tYLx8Hc8R8APgFa/jdRpOlNNSXhNkMdz63dtgpj8WvEY9rGOfLW6ityoFeFKY6mOdbxGXxMc2LwcUenH1xzziCYef8mBlpgZ+AD+L6PbiALcGOpbu7rDs4q9MHtFehc7h7awfUZdIbdauB1bzoYzXamgi9AM+SsAD+O1c7pCfiM04ecnh/RffslE2H22A+yMCn0n4w65sFTCGtBiv08FtrxnBTm0H+8uTgub62+Ig95XlF+b/bwFXy/o4Pg/wpvTrsf7vv7RJg3wOT3ArFNXxTsUA/zCG7pVyGwAXwUthPwcxLItR2Aj8HHVCcPfkh1CH4BX53ej3Vm9yZKb3ghe/vFk+DDdzZUHF4jOL0BT+BTQGNQUQyqHadjzHh8LLd13M/HUuZZyVurr8jBXUs+v48Wtnq7QrywpT185/hP9J0BGz88YqAX2RMgEcGtMPv2Vh4zoCO4tdoKdiSBPg++Fef4j177OvS4CFMdBB+3NIPjs7ML+A76XlRyG/sjp/e3IdRyegf8JZMJePnfko0c9AzpMQ+lFY7bUufpsdTn5wjsdlxKW9dxbctbq6/Iwd2xEvCji1cp+ANgcP/Z9IiOlS/td9Aq7CoLe8jj1bVJ1JbSCUFVqHNw6xwSwh0BviWq54FnIfQz+m6GJ254l+Bkx3fg0+IWwWeoPfwEvDg9yjg9gS/pjT7H0j4CpOdlU+GLlduPCxBCH1IbBtCCaqGm/mROkJwk8jrRfKvoZHJ11xf+Do/JW6uvyIPdkcI9OgF8XdyGHR0FH6HHv4PPlVk0aQ/B7YGP3N5AjzKgewmwNCbjCjFJAPdOTlCrGHiFWscQbu0L4n7VoG7vEKQIq72AxemOk4Gff0qTSw+83b3xtxbzQvauP0+DT5du6RQ8DL0RAYiycFoxqLkxDzrVg8vXmm9BR+nJIm+tviIPdmeUS3UE/N8MctAz+M/0n+M/GPyf9vqw3QSrB14WsNQn4Fuofd0Bq22ENy1V2CboUa5NdSltP/cx5Bb8maatddSw25Ybx0fwpxP0Hn46ARR8Tm+4ZOgZ+Di9uePSqbD83Y2dBidAn4fcgoxzPpZ5oT8GN5LOieZq3fZJv8yTt1ZfkQe6MxLoPfgMvQUfHf/ZB+dFHww+Wwd/PhPh9A7v6gS0QB3cnuH0YyKC1sEbgA997ODs1inw2B/GVbYdHB7bFvqZLtUZd9dnDljn+Bc68BV+SXdQHnwDPDq+5vM2p7/z0mmwdf3eE4JG05sqkNynkMfj+bmx7Dwt7VxpRycVt+Wt1Vfkge6sErenNMfch+/AT6HHOLirFeYNEFd3qoCvwj4SAh67uq2THLCVUhTA7gh4FgFu6wZ6zPGH3LrMwc7pCQLM0DuoBfyel0rpwNeTAaU5PR5z39XPw6Y1X58wMGl6EyBPxSfAxyMZ2vhkCOJ+VfX4uN/Olf6fJvSoBHyf5jD4Qx6an/1g8Cd15j0S0hl0d4SV21J68AVk7Nc6Am36oz6BGes5sNXRtV0LcipNP0KP/Q0u1SHwnRBi3tkR10fofc6vkp0bpweunwu7tn1zUrCo0xPQAl4ELjmxhTw9McKxfELYOXZemBvXQ0l19xry1uor8iCfmOI0J97RGfrwizU/mHVLDvGXPhR0Aty0BXqF2tZJBHTc1j6FHfsD+FoGyLWsiqGfcZ+Urh20iXJ82oGRBa7u7FDKQ+mMiP4VYOgfueVF+ObAyf+aSprTE7wqB6CWdjydW+t4hTieJ3OjkynoJ7iQjaXQK/h6V2ZH0GOsfHG//+IHAool5fRYN9BHwDt4SbYtpQLPdYYax7RuFUNuxY6OdXV3BT7UN8HI21eS4/sFrnd9cX4HPZ8E0+Ghbi/A/j2n9mMSCL2CqUAqpFaVseiYFHZp48micON8cwL4cXusjMtbq6/IAXxyUrc3ju/Ab3j4pQ4/mGNtx+Cj+ftDKmNKhNVDL+1IAruCbsX9VdB5nMsq7AK8Gw/go7TNJUKPd2ZOv3cTTOz1hYPagX/RZHF9FMOvwD9w3Rw4uO/Ufz3FQm/BIxilvnJkezTmxyt9Us+8RiTsM/3+9WVM3lp9RR7gk5WAL66P4DcMWHDcDwafS/Pu+K8FeARdlAM9FQKeBb0KvYLt675PgbYK0JOzuzTHiqAn8DfCqDs+gV6XzQT8Qoi6fg/c4XHgY0pz+GBTl8BB0BvgPkYAFUqVjtOcGNCons43fQi2d3w7ntZdKW+tviIP78lLoacTwIHfGegx8DHb8wfJLo5NZVIJ5OryDLyCzfCHtu13INt6BnKbvmAfpzGmn/J7Lj30922EaQ78cXd9DnddNt2Dj64/sMdLcPRw1wCP4Z0+lYKY1p28gzuRS2PdwmtPHNMfObrOTUsneWv1FTlwT13B7YcNeLnTH8yhva3w4mPbCOYIfIHZQu/bIobZtgPgechRAW5tU93ND7Ab+NHlte5yegQenR6hn3bfBk51LplKd0wOe/CNmjeOnWx0CL0BMR3zsGfGarYz9dwJJG+tviIPbVeI3X7YI52HHmP3xkaC1AJNioBWxU6uJYIaxlzb1Fkun8d+gZrmGLgj0LUtaQ31OYf30IvTT7t3A2lsz89g5ENvQ9PRli4HIsrpE/i0ngU8Ati9Ri24E0WvVWOevLX6ijywXSUH/Qk4PTrjzNGLoM8V0wlEf6VVQNe67VOQuR3ADvl6KoY4lYWcwcZ5oR7GNK0J0E8l4B34fTbA1D7rYfajG2H/zq5LazQQegbbgOdgxDYBasBcOaJ6Amhb56evFcar82y/lby1+oo8rF2n4Y8s7NQHg7/s9+a8z6D7RWPdcYPhwb+/QPBqmkPQixT2FHQVQmzrdALYuoNXywCzgTyVuPx0Kg304vAMPQK/AaY46Kf0+RLmDNwEO9d37e/d6kLWQyhgs7htTwLf7+tG0bEonafHO9Gc/AmhkrdWX5EDtUt0DpedTW92b/sGelyMX4weSw83+sc5z8DgW96LXD1AruDH0DPsoS/Abtxd5nGfgC6ujv0KOdURcmljydCHRSy6O4LvoXdC4FGT71kHM/qvh92buw58dnoGL0gAFTGY6Rydl/SlJ43MUaBDvy1ZOi5vrb6iAmsXqzPQ79p2EG6/iL8yh4/BwC9F33jeSLcYfsotDldnYE/gdoDauorbDmDfz3Xr4Aq9hdvXa8hCj9L0BlObKfco9Gthcu+1rr0W9u3oui1Lgk5htdDW7IthZbk+Pw/HWQH0dvhIxsMJEMas5K3VV+RA7TrhQrbj9Obgvkboe/VsuqhDX5ujZ7Q78P8whp7Lfu05T8OoOz5yADPwNr3JAm/6qK7ykPM4gk19Vgi1lDgHwWbIVSa18dCzw5MoteH0Bp1+kgN+Yu81MPneL2DTJ98ApnDyn31SEXL6WJErW+i9FFoLrjnGSSH3/a7tXzd6TfMarl/eWn1FHtauEG9bdrSQbW5shSH3vUFXLfmCjoDvHB+f/4LPfbnhvAZXDndArfNwK/QWbtvGcYWbFWAPdQY8B75CngPe5vQeelzAeuid0zu3R6ef5JweocetzCl918DmVSd3o5mGTW8CpLFs/0cj2riOfdqfHmf7zZh/HVdS3YxZyVurr8gD2xXqGHr8Cf7RA94FvAVX7zfHe9TxpyYRfH3aF4Lf7dyh0MMtcHHnhKG2CicAytYVcHZuhpraCrgKAa9RMuABeg88yoGu6Y2HHtMbp0m9ndMj9L3WwAQH/YS7V7Pjf3rwpB2foLfwCZAEt6+H8Vp1/xqZkk8Udn5/DJXmZDNj8tbqK/LAnqr4wlStK7L4iLoXJnxKX6jmbxox+HivCjq+go8PP+LnOo6mHw6+8+JxDsYq+JrS1BICzCeAgR7BNnBTv/Y5BdC55D4LPufztE0pbj8Fdc965/LG6Q3043t9DhN6fwYbVp4c+JreKHgEpEraCiurLcxF0Xj1BPH/IpBMqoMlzZPXkT59TSzlrdVX5KE9eeltCAx9/t6bZa9vhF6X65PBwtfr6NbcixD8KXQpH58SwI7PP1CAP0rw0N/nB9gN2Jq7234CWmDXukLuS4XatLkvlAF6rscXpHAByy7v0xsnBF6hx/SGoL/7c/r21fjeq2D1ohP71hSGOj3CZh059AmYTtq242nJMkDLcerq6evoPHuMvLX6ihy4J6/g8HxfvYM+ucty1dLtcI99xvul+LwYfWwGfsMoOD6CHx5siuDjVubT8OSNb8fQRycAu7bWEVasI9RZ+FWuHcPN/Qw5arMDXOt2ESu7NuT06PCyiDXQe6d3QujH9lwFY3p+AsvmH/8JCDYs9ASl1FkIoiqAqYoBDtCGvhOT/m15a/UVeXhPVOHRf/jMS4Je7qdvMPfTb167F+6PfpJenw4WPyuGwL9oWkhzCHz+8bEbzx8BV//uSWjovszD7k8AKhngammdP0lxVK6PYKeS4U7BD8CzNLVRt8fdG4WeF7EMPQKvTj/2LoT+Uxh958ewdF7nwUfoA3h5uKtjoa4uHWDnMXsicX8Y0/7KMdKWt1ZfkYf4xOVTGleyy/Nj//RLJIcONMEjNy4wwLPsA1A5vw+O73d0LuStTFrYOvD595eeJscMsMfygLsxC7i6fySBXNseduPsWFenn+bTG3F7TG1cycAHpw/Qr/ZOP9ZBj8Ar9KPuWAnLXtzun0zcUcTQBwBtuWI4y0Ibzwl1nmf60ravpydE6JO3Vl+RA7jzYodP0xr91hQ+FWHIw/Ph6OEWeLhbFXh2evODZQq+fKka0xxyfNzDR/B1K9MtbLud2wDXn/uMg229OD0DbYH3UritTL9NZbRkVxfwVR5+B7urT8X7bsTlaX/eL2JDejPBQT/eQU9yTo/Qj0XgXXqj0I+8/SNYPGdr9ITiXDD0CqMtrWIwVQHwWnO5HU4a7qM6tVX2mJ+s05uUJgKen3j2ZN/ZMPGJpQnsVjH44SGoFnzO78OOzjj6lY7rzx3q0p0GmOaA846ewm7rRgw2KoU97kehw7PLc59PbTzwAr06vW5XGqdH4BV6cvo7Y+hH3rkC3pu1GfChWPK/phIx9AwlKYJSZcZlfgy+7QuK2+lr2DHuk7dWX5EHuXPSnZrsr5XIk85uu3BC8oPDVek4gS/PhlTw04Vt2MPXrcxnodflUx2EGwhu7/QO0ArsGfhVBLhxc1+XdgDfQC/5vAKfOv1EFELfm3P6cZTTr6o6/R0fwYjbl8PwHh/C65M2QGtzWxYmTW8QzBUCnkKqbdvHsu7NbQuwjtnj9ZgwPxwf/92fGPQIu6Y1nMMj9Bb4x10KMrwCeMdC6KuLW3zGuwf/gsnhVgXc0Tl/FPzjnMHwwF/nMtQWfFUEd+roicsr7Ab6GHasI/AZpxfo8cIUAe+cnhax5PSa3ugiNnb6EbevIOgbblsGc59dDW2tVaAQ+hzcaR+2SVqXeSwHtJYCrj9O5tu2H5d+PyZ1eWv1FTmgjycPvEJvHJ6fbva4W2gOTYDujAR4A70+9lofo4Hghx0dAf8PCP7TMKjbmzHsCrytG8B9HUEmmNMTwrVdP7u8A74POzy7fMbpnYLTh50bTm/Y6TW9QehH3RGcfrhz+mE9PiDoh/ZYCpP6r4SWphh8gt7DiGVr1FaQFXQ7xn2tMk/nyvEynwGPT4roNbRt6vLW6ityUNdWAjs6fAZ4bCO0ebCPJwaf3d7u4WuqwwvbsIfPOzq4h493ZQ7t/j4BjsAq5AF2htrDrhLoycU95GFM2ywGnkvj9M7lw41mkt4I9GG70kFPe/QJ9Oj0dyD0zum7O+i7L4Uh3ZfA5IeWQ+OR8A2sAD3Ca6EM8JMQyhqQpnPDCdGxIuhR0pa3Vl+Rh7uWAvBh4RqAx5QGU5uTBx4VL2xtmuMvXkU7OhP9VuYN5w13Of5gAipALtDTiYAgJ8AL2Bb6dFyBn2qd3tVDemNd3tx3I+mNvxqbOr2kNyMovRHo0ekR+luXwLO3LoKZT3wMTUdbCS7r9BV1Atzjyr2Gwl2BvIYIonqLPNw5VV0+AM95PD7GDx9uWgX55IXQ58DHZ8voXZm8sNU9fPw5+afJZTWlQXBrOr0FXeDGOoKtZdXhFXyGHkEn6OWKLDo9A+90d+L0JqdH6EcS9CvE6SW9EeifuWURPHPzezBz0Eo4cqiFflITQVs+jN3al4l7p22SQpzCLG1/DLZV1NeavJ6puzmCUX1FHvCcEPgaW5Py85oIYQ7cU1G6o6NpDt+VieDzPTr+4tUfGfw7L55AqQaCm0JObQVd+vSECJBbsbPberSQpQWsOD25PENv0xveueGrsbR743duGHqf02N6c1uAfvDN78LTN78D4/svhcMHmg14KgbWSvsCoLZPgE1UawxPLBqTk4MVXk8wqq/IA65idyfgo5RGgKdfEGfgb/nj+Cy0py6EXoTg08IW3d7s6PitTP66Ie7h41Zmz0smEaQ+pXHQKugIsNbTNh1DgFsFl2ch8HolVsFnl9d8vgr9587lwy0I5PR+58ZAr07v0pvBzumfvukdePLGt+CZ29/wsCF4WFqFsRhiO56VA5r+1RCwc6+RSk8Gwai+Ig97EKUzAn20cJWfzEfgb/rD2AysXaV0R0cdv3pzGjt+2NHB25F7XzGVYUaoUQI2w80wVwAX8Fnab6CnfB5lXV6g13weodctS+v0yUKW9+gF+tswvVkKQ2993+Xz4vS3KPRvwmPXvcywaVpj6hGQCazYtiDbtp1Ta9yPCeh2XDCqr8iBHoSwc1pDwJunEevC9brfNxCMeWC7Ugg9i8C3C1vdypSFLW9ljqE9fLwd+dFrFwbwDfC2L8CtgNu6AK+wU10c3i9gq06vOT0CH67GrvLA63YlLmQ99OT075v0xkHv0ht0+oHXv5yBMMCoY3oiKJyR7JjUVdoXlaTwN1D2tQWj+opasBPw4vAhrWGHV+DxJEAI85D+ELKOn+zo0Fam7uFrfj+W7sr8xzlPuQXhYgd3yNuroKcKzo5tLkMfircpdecmOD1emCLgaecGoQ/pTXB6Cz07fYODHlObobeh0y/20D9109sEPTm9AY5ANLIwVuoptB0ca+f6tvYlpWBUX5GDvpLSJA6Pe/FYnl7gVR2ALzs6tIdvv2B+/nAY+vA8eHnIdp/KkMt78BlsK3R0AtynMqnY5SvpjTg9Q483m4X0Rp1e0xtcxFJO3yNA34DQO6f36Q1Bn6Q3CqNKoaQxA3jS96Hp/3BYS2ZeTnIyyDgdZ9qCUX2Fh52eU5NuSzpVLj7h1uQguPOiGRkgT494Ycs7OgS/B9/clSmO3/2C8TBn3DJobW0HfFbm3Mf4KQcp5OriCrqto6bQwtXVqc/VXRkWsBb4GHpyeufwKkpveoY9eruQ9U6v0MtCFqF/4gYHfbeFATiF1JZaJ1XdPMxPTgxXeqdP+qlM+0y/YFRfgXcqMvgOeAd+vGi1W5MMPN5EdvuF07Iwnj6li1vZypRbFdTxcWE7Y/j70NYWLufv39HsU5wAe/XCk/Z5ST/Xg8uHnB63K6vpDbu8E6Y2xul5EcsXpoY7p+cLU+z0Q3Qhe7Pk9LJ786hZyHoZACNwrXJ9InL/jNJ+fu02cnodw1I+1vqKXn+b6KG3+bsCrzm8bk12/9PEBMAfSwJ9BL75UTMH/nOjPsj+T9n5ZSPMuN86vNbjtEZLBl3ruoBll4+cPoVeLkz5fJ6gtzs37PQIvXV6hj7k9Ar9Y24h62FUt/ZtU3fy6UsiC2w6xv18XPg7cRm9ruuTj7S+YsJTbxL0nMd3vBd/4ndN/tAK0DP4mObwxas35qzu8IkDq97YB9P7KvAMuNY96KK4Ty5IWeid208S6Ccq9Hcj9C6nJ5dH4YUp3b1xTi85vd+5Iehljx4XsrcsccAb6N1iFqFH0BBIK3sCWGj9uModi46dnhB+boP0I+D+74S5lXlO8nHWV+AtrHf8eYyD3aY19QG8lprjo9uj3piNwHf8I2A4/sHcPRHUOeCryjs9Q885fez0Iaf3To85PTr97Sa9uY3TG+/03W16866DHp1+YQBPpDAqhNqmPgE3OlEcsKS0n2T7sc5z7d+w49iWj7P+Yt/uQ/Bwj5lVl5c8Hh+oGiA70xTy+3uumAOrlm3r8NtHNo61/wuWzPqaYNfUhpRpI+TaVujDro0TpTap0yv0ktP3VKfnhSxCT+mNW8gOu904/a0o3b1ZBE/f7KCnLUu3kBXwYjGsVjiP5grgXtS2fVzPvy4LIQ/jeqyD3vXLR1mfcfRIM0wduoiuZOK98Ne6Re0N542kBWEetjND+q2re6+cC8ve2HjCD1FqPNQGCxu2VUE3ssCH1CZAjy6vOT0CX8npxenHEPRxTp9z+qEOekxv4i3Lt2CgLGQDkAnQKOPMPG7F/X7cnxDpMbZM61Zd/8MTpz3a29vhw7c2Q79rXqrAdSar799egI8Xbz3p/wGN37TB3Ee3mMWqyLerLm+hJ5d30JPL98KrsQw9urymN2NTp0/TG797s4ycPg+9TW9qQ5kHOAVX+0x/9K9CC3ygbSn5dV2d2nWe3qSxb/dRGNzrzSxgZ5ruvWourPl413Fz+OPFob0t8NxDmz3cFcgFfK1PjpzeLGQFeoSd9+gltZGF7Gjr9B56vAVBd28M9NGWJS5kHfQCnC9VUVvglDrDayDWOdFrmXZuLJ0n4/LxnR2Bv5k0a/hHx/1S94+pPlfNgy9Xfd1lH/zO9Y0w/T6bygjkDnCSAE/QE/gCveTztIhVp6edG3Z6dXkU7twg9CMpvZH7bjCn91uWDnqX4jx7i92yxJyeoUdwVR5QX2rd9Necz2PY5rFQ6jG+pGP4OO1XyUd39gS656dLt8GD1+WeWfPjqt/VL8LGL/Z0+Ye+bulBn9Yo7LqQjcBH4OXCFO/acDnBQ58sYmnnRqH/FEb1lIWs5vV4Pz1Cj3dZ4hVZSm8Wm4VscHoET6XwRX0eYCNp+zkqC7Mcp+PcZ+b7eWG+fGxnX2zbeACe7vWGg+3M2MF5+PoFsO6T3T/YB/7pa/szoIfUBqUuT9BLajOpF0Mf5fPmamzI6atXZMPFKUxv5IqsQu+c/imC/hWCTcFLYfWgSunnpX016rYdH9Mc9du58pGdndHU2Aozhqxw6c7cLIinSw9e9yLs+urUftzgeIG/cvjq8G0ObrzNIIDP6Y7A7sEX4J0mOujJ5Z089M7pKb0Rp89Bj/fe2PQGd3CedeAz9CG9eVygJyAJ+uDMFkQqM2O11Zzp07+hdfd6Q8M87ZeP7OwNTHc2r90H97vUIgfkD61HblwIB/Z07S/21Qr80YhXhm0PsEepTez0E30+r9Cr06PL8/MrNaePoNd9etq9iRey6PYIPerpm94jp1fou0rWtVl5+K0UdtQydxLIx3X2x66t38Azvd9yIJ6+dAeB37f7yGn9kI8caIV5g7Y6sMXtDfgEvINdL0rZnF6hHydOT+lNT17M1tqyjNMbuSorOzhPy7alhb4KbCdl3dr2R8I5xz8BUPJR/TSiuakN5o77GHpfkYe0K/X4ba/B19sP/Sgf8MHdLfD8gM0BfEx5jMtresN79GlOj09B4Lzepzd3roJRxukD9HyByqc3t6DTL4HBuld/4zsup3/VpzY5AI+nTqU87qRABw99Kfza5lI+pp9O4NXPpa9tdHn2D3cxa9Adr/9owGtsW30Ept0vKY5TSG3Y7W1OH6AXt/e7N3pF1jr9xw76lQ54BB+d/kNo6P4BbVl6p5e8np3+VQEup46cGcd4PAa6qmXR64Tj4tfnE2PFqLN49+Z48fWOwzCox6tZaE9WeH1gwE0L4fA3Xf9z8ycauJbZtuaog1zdPqQ37PKupHw+s3tDOb0TAW+hl716cvvg9A09PgzQmx2cp9xidlA3hD6GNoY0QJ0v47m2rfO0L3dcmMPa+EadfjG8qwKfrb5w+udZgE9GDX3fhpYaT+/9MQLB//ztAya1CRel+CYzcfq7HfROFnrO6fXiFKY3enGKoR+Oz7JU6Gmv3lyVxRRH9uoHdXvNQBdgtKWHVepUyrgFWcfDMWYsM6+ihiZobTy1q+BnRSD4q5fvhD5XnNq25sRB78NR8wzHMykWz9jFwFegl50bhN6VPr2hfD51es3p1enNDo5Lb/xevYX+pvfgcQe9QleBOOlX0LPjCrIFWup+3IzlXmfjmz9xl09j787D8Mw9uLuTh7qW8BrA2H8ugRa3SJaXOuOitbkdXhm5LeP0Ar0ogt7v3IjT3/Gpd3rM6T305PS8mB3i5BezBnqFMoXwePLzLei5tlNHr/2Bc/iNb7UB3pYtH0kJDXT9mQ3Loc+V87KAp8IcftzAMxt4jebGdpg7aEuAnvbqOZ/XFGe8bltSTh9Dz04vKc6dDnxayCL0ZjF7K0PP25aLadtyULfXDXwJxHQyVGGNAE7cO+2LZPul/tH4Zti3of2Ub+47qwN/PGzloq/ggeNczEKHb7j/XWhtqZ9/Mg/saoEZ/Tc66NXlWZzTK/C8bcnQsyLoMb1Bt5crswr9UExxEHq/V8+L2UE3BOgj1QLXaWmmD1Vxc2lnXX5YM6xb2AotR0/8B59/soHpzqAer2WBRz0/6uNO/bremRZ7v2qCafevF5cX6DG9kYUsQk9Ob8APOT07PQFPTu+gd25PTq8pDi5mHfic4ix20L9RBVLk4UZoOzgJaqnWybFibDMc/Kq9099GK2ECnzuDX+WbOXQ5DL33Hefs78DsUSth6/r9df1hbll1iB7RbaGP9+jlVoTI6TGvDzs4Ya9eUpzu7PaY4iD4Cv0TN77pYVw6pAqoFUKsyo1HcieJzgtlE2x6pw1aDhXYS2Rixct7XF4f0pvxqdN7l7eLWYE+ukAV8noLPS9oF8OTNzD0FUDdCYB1ajun17rvS8pK35AmKrXvo3HN8PXqOv0RtRKnL5bN2V0jvfnCu3zs9JrXf8I7OD0QfIXe/Wvoty4lxbl1iYP+LQ8tgmrhpbpxbN8v8/wcke3zr+WO/2J+83F/z7ZECYq21mPw7pSdAj2mN2Exy/v0aU7vhBepZK9+OEHPeX2U4tDWJbs9fk+2AquFWtoKdgA8zPF9ehyVTbBiXBMc2FRy9xInGPhrgLMGbAjAm7zepzh36lVZdnrUiFyKI9BzmmOhN7BG4DLUUb/t8+10vAm+fKUVWsvOTImTjcMHWmH2Ywx+cHl2+jE1oI/zeuP2Zs9+iHN7/CKJBzYHci3VGF85sRn2flly9xJdELs2HYXJ960l6HnnBp1+NUMfXaBi8HVBO5yuzOJ+feL2t7Lb43PqK/DqCVBD1VTGpTcNTbDmpRZobSzuXqILY8NHB+OcnuBnp+d76tXt8ZaE2O2Hidvjgtbm9oNvejcGWPS+qetY1Ge0rKERvtnWDviVSHmrJUp0XXy5/AClOQF65/Yut/cpDjm9QO+Eub1f0KLb0z32AXy8/8bCnAMb+7Rf69R2J8P6V13u3lRgL/EDBm79ffjSrhj6Sl6vTh8vaMntkzQH77/B/NxCfTzYUSvGNsGeteWuyBKnKTCNmD9kU0hvJK9H8CnFMW5P0Pcwbo8LWk1znPD+GwWZ4H42A7nr03HM3dcudLl7U9mGLHGaAx3/pYbNwelpMatuz+Cj0xP4DnoGX51e3J6g5/RGlQKPV2a1ju6+b0Nb2Xcv8eMFbmVO7b/Wuz3v4Di3v4PBJ+hJmOKw1O2909+yOIIcVQW/CdY5d285WmAvcQbE/l3NMKHPF8bt+ZYEcnyT4vhFrVyp1fwebzwjuJ9tZCnsUv9gdBPvzBR3L3EmxVerD8P43l+Qy4++i9OcKLevuL1A7xwfvyi+RIEn0Bn2JUOOwpqXmst3VkucufH54n0w9m5McRz0/q5Lhp6v0OpOTgAfUx383qyFHuvLnbvvW1+uqpaog3h3xnbJ7RF8m+KIEHxKc5xwYetSHbzr0qc0zuXx20ytzWXfvUSdBObdb07+imAn8GVB69McBV9cH91+Yu/PYMkzR+HD0Y2wf3Nx9xJ1GHhX5oIRWxh6BB5PAAf/SDwBBHq/f++c/rXH98KGt1qg6VBx9xJ1HEcOtsLMf64T8DW/VwW3n/3ol7Br9U/4MXolzq44eqgVZj26jnL8ALzTnfyrJa+O3gQtjSWdKXGWBX7zatuaw7Bg+EYH/Gcwrs/nsOi57bBn29FyR2SJEiVKlChRokSJEiVKlChRokSJEiVKlChRokSJEiVKlChRokSJEiVKlChRokSJEiVKlChRokSJEiVKlChRokSJEiVKlChRokSJEiVKlChRokSJEiVKlChRokSJEiVKlChR4icfP/vZ/wdWY4voDB5W9AAAAABJRU5ErkJggg==;" vertex="1" parent="1">
                    <mxGeometry x="221.63" y="10" width="76.75" height="80" as="geometry"/>
                </mxCell>
            </root>
        </mxGraphModel>
    </diagram>
    <diagram name="Page-2" id="A-4uP_GRYOmdk5BknAhB">
        <mxGraphModel grid="1" page="1" gridSize="10" guides="1" tooltips="1" connect="1" arrows="1" fold="1" pageScale="1" pageWidth="850" pageHeight="1100" background="#ffffff" math="0" shadow="0">
            <root>
                <mxCell id="OdsEoXFKajWaNsKAPJOW-0"/>
                <mxCell id="OdsEoXFKajWaNsKAPJOW-1" parent="OdsEoXFKajWaNsKAPJOW-0"/>
                <mxCell id="OdsEoXFKajWaNsKAPJOW-2" value="　.sln" style="rounded=0;whiteSpace=wrap;html=1;verticalAlign=top;horizontal=1;fontColor=#000000;labelBackgroundColor=none;fillColor=#FFFFFF;fontSize=18;strokeWidth=2;strokeColor=#000000;" vertex="1" parent="OdsEoXFKajWaNsKAPJOW-1">
                    <mxGeometry x="10" y="10" width="100" height="220" as="geometry"/>
                </mxCell>
                <mxCell id="xaM3ge8iQSFRcvqzL4uU-0" value="　 .vcxproj" style="rounded=0;whiteSpace=wrap;html=1;labelBackgroundColor=none;strokeColor=#000000;strokeWidth=2;fontSize=16;fontColor=#000000;fillColor=none;" vertex="1" parent="OdsEoXFKajWaNsKAPJOW-1">
                    <mxGeometry x="20" y="50" width="80" height="60" as="geometry"/>
                </mxCell>
                <mxCell id="OdsEoXFKajWaNsKAPJOW-3" value="&lt;font style=&quot;font-size: 12px;&quot;&gt;アプリケーション&lt;/font&gt;" style="rounded=0;whiteSpace=wrap;html=1;verticalAlign=top;horizontal=1;fontColor=#000000;labelBackgroundColor=none;fillColor=#FFFFFF;fontSize=24;strokeWidth=2;strokeColor=#000000;spacing=-10;" vertex="1" parent="OdsEoXFKajWaNsKAPJOW-1">
                    <mxGeometry x="410" y="10" width="100" height="220" as="geometry"/>
                </mxCell>
                <mxCell id="OdsEoXFKajWaNsKAPJOW-5" value="" style="shape=image;verticalLabelPosition=bottom;labelBackgroundColor=default;verticalAlign=top;aspect=fixed;imageAspect=0;image=data:image/png,iVBORw0KGgoAAAANSUhEUgAAABsAAAAaCAYAAABGiCfwAAAAAXNSR0IArs4c6QAAAARnQU1BAACxjwv8YQUAAAAJcEhZcwAAFiUAABYlAUlSJPAAAAHDSURBVEhL1ZSxT8JAFMaZCRsjIyMTCwMjAyMLE2yusjq7aTShMSE2YXA0Lv4JrhpMkETjQEiMERd1MYZqKBR49rtyzbVcr1A66Jd8eXfv3r1fe7k28W/UbrfJDkova2IRFQoFKpVKUmMNNU7p9qJisUjVapUajQaVy2UWuTFHjVO6vahWq5FhGKwhxr1ejwaDgTtHDcYeHRw3aVPb29jT483QI5fLEazrOnW7XTZGDdY8kjULs72NstksM3og5vN5Go1GVK/XeV4OWw43EWUyGWZMEDVNo06nI+bjg6XTaeZKpeJGvB3Po8YpFRQVlkwmKZVKSY011DilgqLAcBHsoPSyxisV7H34TdruLZ3t39Ow/7VSt1gsCJ7P565nsxm/RKtqnrSkC+Mfi4EOd25cX108E/JYDwIpYa9Pn+7T80aImIsgbn3vjkGCQJZlyWEP1x+eRhx42ep78n6rQIEwWSP/0cmsAk2n0/VhfgOOoxNzKlAoDMcmeyPkcCPPjx49eRVoMplEh729GCswFSgUpjKAp75jVIFM04z3gqhAgbCoVx970VBlBvBL/CWt+1GzjXEKQP+Rir+r2BX2I/6DSiR+AZqRCyp+DNi5AAAAAElFTkSuQmCC;" vertex="1" parent="OdsEoXFKajWaNsKAPJOW-1">
                    <mxGeometry x="20" y="11.5" width="27" height="26" as="geometry"/>
                </mxCell>
                <mxCell id="OdsEoXFKajWaNsKAPJOW-6" value="" style="shape=flexArrow;endArrow=classic;html=1;fontSize=16;fontColor=#000000;fillColor=#dae8fc;strokeColor=#6c8ebf;gradientColor=#7ea6e0;exitX=1;exitY=0.5;exitDx=0;exitDy=0;entryX=0;entryY=0.5;entryDx=0;entryDy=0;" edge="1" parent="OdsEoXFKajWaNsKAPJOW-1" source="xaM3ge8iQSFRcvqzL4uU-0" target="xaM3ge8iQSFRcvqzL4uU-7">
                    <mxGeometry width="50" height="50" relative="1" as="geometry">
                        <mxPoint x="230" y="180" as="sourcePoint"/>
                        <mxPoint x="439.96154" y="120" as="targetPoint"/>
                    </mxGeometry>
                </mxCell>
                <mxCell id="xaM3ge8iQSFRcvqzL4uU-1" value="" style="shape=image;verticalLabelPosition=bottom;labelBackgroundColor=default;verticalAlign=top;aspect=fixed;imageAspect=0;image=data:image/png,iVBORw0KGgoAAAANSUhEUgAAAEoAAABICAYAAABRGGN6AAAAAXNSR0IArs4c6QAAAARnQU1BAACxjwv8YQUAAAAJcEhZcwAAFiUAABYlAUlSJPAAAARKSURBVHhe7ZzPSxtBFMf92xQRVOhBD1XxVrQKVfCg4LXgsYJIDyq1baD1YKvgLxAUMSiESg9FbRERKtaDJua3v3Xab0zMzsyLO2lmN9llHnwOum/evvms2R13k1SZMOH/OD8/Z8VydXXFMPb+/p7cbsfNzU1mvKeCmogdRpQiRpQivhd1d3fHrq+vOdLpNDeJPz+PWCiwyZGMJ7mcy8vLx/HW34O99V/c2O9ftqQciLb2UHHi0JDYtMj20g82/uwtRzwSJ3MpVt4sc2M/vfhI5olkW8wHjmq58JQoKqmSMKIUMaIK8P75ODcxFSADY09/n5Db7cDBEPvI6smHmFBuPCNqfX2ddXd3u8Lk5CS3b+AZUXNzc6y6utoVhoaGuH0DI4qAEvXtc4hbIC69npcmtvkuyOVgUYmxsXCM+z2Y7pnixn5omZBysKgV+8jqyYeYUG5RIhV71TOiHsjqyYeYYEQ9kNWTDzHBiHogqycfYoKboij29/e5flTI9dzU1MQSiQSZo0Ludg0ZYrIRVSDEZCOqQIjJRlSBEJO3t7fZxMSEKwwODkqihoeHydynyNWpr69nY2NjZA5FPM5fFIoS5SY4+n19fZIstwiHw1w/FSsKnJycsP7+ftbzqsdR2tvbvS0K4IFCLBp3lJmvM94XBdIpZ2WVLOri4oJLBnt7e2xgYIDV1dVJxXXQ2dnJIpGItN9UMkVOUgfaRZ2enmYus2JR3eBKlUqluH2DpEOytL/0VlZWpIJOMTIyIj3wBIlEkpxsKZQkCo+gxUbFBSd+1klbW9tj7ZqaGjY9Pc3tP0c8niAn/L9o/4vCZKzFxO2lgnvl1vq1tbVsbW1Nzk3/kxXTJ8vzokBjYyPb2dmRcjPLhhg98WLxhSjQ3NzMDg8PpXxdywbfiAIdHR3s7OxMGqNj2eArUQD/zjixbHBVFG7dWrfZ0dvby40HdqIA7iDoXjb4UhSWDVNTU9JYQElQwZeiAJYNGxsb0nhKggquitra2spsVyUYDHLjgaoogJtr4nhKggqeO5nPzs5KdxqtWP8Rx8/ieEqCCp4TZQcWn7l9e1YUbr+EQiFtoJ61PvCFqGJP5nZQT4qNKAIjShHfiorFYpniukA9a33gC1FuYEQp4gtRq6urmeZ1gXrW+sCczAnMVU8R34oaHR1lLS0t2kA9a31gTuaKGFGKGFGK+EIUPuSDG2+6oD40ZCeq62XXf9Ha2srNCzgmqhKuetbxpWJEKeKYKNzGxeR0gXrW+sAXotzAThSe7OgiGo1ytX0lykmMKEWKErW4uMiJKieBQIDrzWmKEnV0dJT5BADVuJvgSfHu7i7Xm9M8KQobxQHLy8usoaGBnIAbQBL1ssOX1VBfXaILvFUzq0UOJIgNgePjY7awsJA5Z7nJ/Pw8Ozg4IHu6vb0tPBE3AkeKaqySwNu8s+2WNypd1pMvC7eD+hRDucEBLK+kqqq/5RNc8zNbUfMAAAAASUVORK5CYII=;" vertex="1" parent="OdsEoXFKajWaNsKAPJOW-1">
                    <mxGeometry x="23.439999999999998" y="70" width="20.56" height="20" as="geometry"/>
                </mxCell>
                <mxCell id="xaM3ge8iQSFRcvqzL4uU-3" value="　 .csproj" style="rounded=0;whiteSpace=wrap;html=1;labelBackgroundColor=none;strokeColor=#000000;strokeWidth=2;fontSize=16;fontColor=#000000;fillColor=none;" vertex="1" parent="OdsEoXFKajWaNsKAPJOW-1">
                    <mxGeometry x="20" y="120" width="80" height="60" as="geometry"/>
                </mxCell>
                <mxCell id="xaM3ge8iQSFRcvqzL4uU-5" value="" style="shape=image;verticalLabelPosition=bottom;labelBackgroundColor=default;verticalAlign=top;aspect=fixed;imageAspect=0;image=data:image/png,iVBORw0KGgoAAAANSUhEUgAAABQAAAAZCAYAAAAxFw7TAAAAAXNSR0IArs4c6QAAAARnQU1BAACxjwv8YQUAAAAJcEhZcwAAFiUAABYlAUlSJPAAAAKoSURBVEhLtZXLaxNRFMbzr2hBRFAUceFCkHSR6MJFFy6LCxeNmsRYSx9JIxoNFmuLgSKtSFRKfRTJIqSPGHxAg1ZSIq1QQWtJ2hqUpkkmmTSPJp85p5nYSaZP8MI3w9x7zu+ec+eee1X/teXzeayuriKdTm+rTCaDQqGAsmttI5goihgaGoLVat1SXV1dmJubY/Da2poylGYkA41GA7VavaXq6+vR2tqKaDTKPoqRZrNZHiQHz8goYvHEpprw+9nOZDIhFAopp78XIEmv1yunv1dgdfplnDKQHDeTBJRE6W8LpLeSQuGw7LtJp2O/bYE7lcVi2RlQbzCwjEYjy1D+JlHabW3t6Onp3TmQJAhJ7hfFNFIpEUIyiXhCqIyTFIHSxt4IbO/oYNCw3QP7uT589nxBKplCIBCA940PjY2NHKUMSHtHgpG0Wi0DKYpEXMDIw3e4ctCKpn0drD+Ly0iVSnTTCKl+P7qm4Hb4kIgJcDqdGB0d47oOjE3j2lFbBVYNvGO3o79/QA6kh+HQDVw+0IknLcOIxWK8See/LqDlhJ0hfRefKgLDC4tYXPpVCyRD05Fb0NWZMWh2YfbTd9jOOngSZ/MrxFcSikDFlCWg+4EPjgtOXq/rx29Dt9/MsOXIekntGkjrOGhxVRxJj00vkChFtyeg7cx6is3HbOg+3w99KdJLdRY80j/Hz+mQDDg5OcmAjWpoaOAfWQGS2k/ehf91ANHfK/A5JxhK/eZT92TASCQCr9crUzAY/BfhS5sbVvV9/AjOczVQH23gt8/8uHr4ZgUmAWlcSXSNqOhSki4metNGLxaLyOVyEEvw8YH3vAwUbefpbv5JVAjlAqtt5EzHNwGqj3GaMSWImPkwi6nxGYS/LfEkZFs22X3jSEuLTVKaVN5Uqr/qCw3bcsYHKwAAAABJRU5ErkJggg==;" vertex="1" parent="OdsEoXFKajWaNsKAPJOW-1">
                    <mxGeometry x="24" y="137.5" width="20" height="25" as="geometry"/>
                </mxCell>
                <mxCell id="xaM3ge8iQSFRcvqzL4uU-6" value="..." style="rounded=0;whiteSpace=wrap;html=1;labelBackgroundColor=none;strokeColor=#000000;strokeWidth=2;fontSize=16;fontColor=#000000;fillColor=none;" vertex="1" parent="OdsEoXFKajWaNsKAPJOW-1">
                    <mxGeometry x="20" y="190" width="80" height="30" as="geometry"/>
                </mxCell>
                <mxCell id="xaM3ge8iQSFRcvqzL4uU-7" value="　 .exe" style="rounded=0;whiteSpace=wrap;html=1;labelBackgroundColor=none;strokeColor=#000000;strokeWidth=2;fontSize=16;fontColor=#000000;fillColor=none;" vertex="1" parent="OdsEoXFKajWaNsKAPJOW-1">
                    <mxGeometry x="420" y="50" width="80" height="60" as="geometry"/>
                </mxCell>
                <mxCell id="xaM3ge8iQSFRcvqzL4uU-8" value="" style="shape=image;verticalLabelPosition=bottom;labelBackgroundColor=default;verticalAlign=top;aspect=fixed;imageAspect=0;image=data:image/png,iVBORw0KGgoAAAANSUhEUgAAABgAAAATCAYAAACKsM07AAAAAXNSR0IArs4c6QAAAARnQU1BAACxjwv8YQUAAAAJcEhZcwAAFiUAABYlAUlSJPAAAAGGSURBVEhLvY/JTsJQFIa7ghbaAsVHMC6Nr6UiTigigziACDguiDsTnkNxoA44oSgqoC58DDbHcy+lkuYmN8SUJl/apP/5zvmFbCYNkXDIFohbYP3oF13XmW8CXdBut21hsAuKxSIUCgX67gbGjn5g6OAb/Ptf4N9Ddj9B22mBtt0ELd8EX64Bo4ctM291cBtoFqGWb4Av+4G8gzfzBt7NOoU1S+A2oMKcIdzqkaZfwZN6Ac9GDdT1mpnvuwEVEtJ1Q4igUF17BnWVUAVlpcqcJXAb9F7ZkT6BkiTSR1ASSPwB5Ni9me+7ARGqDKEcvaO4I7fgXqowZwncBkoChXEUxgzhMgojFSp1ha/BtYgsXJl5K9wGMgpl40p3+MYUSqFLkOaROR0pM2cJ3Ab0ShT+SXUQZ8sgIeLMBYjT5+AMnpl5K9wGVIgXEmlXKAZROnXaYbKEnDBnCdwFI8kKFYp4pTOAwkAJHCh0TByDY7zDcFRnzhK4C/7LYBZkMyn6YQfELdj7CMIvsXI+UqGSIiEAAAAASUVORK5CYII=;" vertex="1" parent="OdsEoXFKajWaNsKAPJOW-1">
                    <mxGeometry x="425" y="71" width="24" height="19" as="geometry"/>
                </mxCell>
                <mxCell id="j_MYeedZEEOFRH-9a9Nf-0" value="　.dll" style="rounded=0;whiteSpace=wrap;html=1;labelBackgroundColor=none;strokeColor=#000000;strokeWidth=2;fontSize=16;fontColor=#000000;fillColor=none;" vertex="1" parent="OdsEoXFKajWaNsKAPJOW-1">
                    <mxGeometry x="420" y="120" width="80" height="60" as="geometry"/>
                </mxCell>
                <mxCell id="j_MYeedZEEOFRH-9a9Nf-3" value="" style="shape=image;verticalLabelPosition=bottom;labelBackgroundColor=default;verticalAlign=top;aspect=fixed;imageAspect=0;image=data:image/png,iVBORw0KGgoAAAANSUhEUgAAABIAAAAWCAYAAADNX8xBAAAAAXNSR0IArs4c6QAAAARnQU1BAACxjwv8YQUAAAAJcEhZcwAAFiUAABYlAUlSJPAAAAHKSURBVDhPzdTZSwJBHAfw/sSCKEgqMCKK7BQiIki6LKiHHgo7yLLWo3VdryyTzCgphA6qh3qqQE0rtRt8+bZj7OK2U6w9NfBlZ+b3mw+z+7BlZIwbR9Dbo1cV0huPx1E4+H2Qhnw+rypf2DAdKxW6vbmmY6VC5EnF/gKRKDAa9Pb+Ad92FJ6tPWH+Lu2PjQ4VsOIYBvqVUO75BScXVzg6vwTr34bDG8KpsA7vx5DNPUl9xSHnFVDk8BjsehgOXwhWdxCMawMrTj+WHF6Edg9kgBgqdP+YBRcIg+E3kXt6LtzCbHdjgXEhlX6QAWKoUPohg1UuAAvrLyCZbA7zq06YbS4kU2kZIIYKkW9BXmPRxgu34DBnYWFasmN6kQHnC8oAMVSI3GIrEkXs5AymZTtmzFZEojHs7B/iMZOVAWKokJjX1zfMr6xhTsBehDnZG5yYgmFsUtH7K1QcO+9FR58BDW161De3oVHXCZuTk+qqIT4QhFbXjeRdConkHarqtLA6WKmuGnK6/ahtahWQJOKJBCqqNbAwNqmuGlrjPdC2tKNSU4/yqhpUa+owY5qV6qohMe36HrR2din2S4Z+yj+GyM+JLP6aceMwPgF2A9b8AftPggAAAABJRU5ErkJggg==;" vertex="1" parent="OdsEoXFKajWaNsKAPJOW-1">
                    <mxGeometry x="428" y="139" width="18" height="22" as="geometry"/>
                </mxCell>
                <mxCell id="j_MYeedZEEOFRH-9a9Nf-4" value="" style="shape=flexArrow;endArrow=classic;html=1;fontSize=16;fontColor=#000000;fillColor=#dae8fc;strokeColor=#6c8ebf;gradientColor=#7ea6e0;exitX=1;exitY=0.5;exitDx=0;exitDy=0;entryX=0;entryY=0.5;entryDx=0;entryDy=0;" edge="1" parent="OdsEoXFKajWaNsKAPJOW-1" source="xaM3ge8iQSFRcvqzL4uU-3" target="j_MYeedZEEOFRH-9a9Nf-0">
                    <mxGeometry width="50" height="50" relative="1" as="geometry">
                        <mxPoint x="110" y="90" as="sourcePoint"/>
                        <mxPoint x="430" y="90" as="targetPoint"/>
                    </mxGeometry>
                </mxCell>
                <mxCell id="j_MYeedZEEOFRH-9a9Nf-5" value="..." style="rounded=0;whiteSpace=wrap;html=1;labelBackgroundColor=none;strokeColor=#000000;strokeWidth=2;fontSize=16;fontColor=#000000;fillColor=none;" vertex="1" parent="OdsEoXFKajWaNsKAPJOW-1">
                    <mxGeometry x="420" y="190" width="80" height="30" as="geometry"/>
                </mxCell>
                <mxCell id="j_MYeedZEEOFRH-9a9Nf-6" value="" style="shape=flexArrow;endArrow=classic;html=1;fontSize=16;fontColor=#000000;fillColor=#dae8fc;strokeColor=#6c8ebf;gradientColor=#7ea6e0;exitX=1;exitY=0.5;exitDx=0;exitDy=0;entryX=0;entryY=0.5;entryDx=0;entryDy=0;" edge="1" parent="OdsEoXFKajWaNsKAPJOW-1" source="xaM3ge8iQSFRcvqzL4uU-6" target="j_MYeedZEEOFRH-9a9Nf-5">
                    <mxGeometry width="50" height="50" relative="1" as="geometry">
                        <mxPoint x="110" y="160" as="sourcePoint"/>
                        <mxPoint x="430" y="160" as="targetPoint"/>
                    </mxGeometry>
                </mxCell>
                <mxCell id="OdsEoXFKajWaNsKAPJOW-7" value="IDE&lt;br&gt;&lt;font style=&quot;font-size: 16px;&quot;&gt;(Integrated Development Environment)&lt;br&gt;&lt;/font&gt;統合開発環境" style="rounded=0;whiteSpace=wrap;html=1;labelBackgroundColor=none;strokeColor=#000000;strokeWidth=2;fontSize=18;fontColor=#000000;fillColor=#CCCCCC;" vertex="1" parent="OdsEoXFKajWaNsKAPJOW-1">
                    <mxGeometry x="140" y="10" width="240" height="220" as="geometry"/>
                </mxCell>
                <mxCell id="OdsEoXFKajWaNsKAPJOW-8" value="" style="shape=image;verticalLabelPosition=bottom;labelBackgroundColor=default;verticalAlign=top;aspect=fixed;imageAspect=0;image=data:image/png,iVBORw0KGgoAAAANSUhEUgAAAL0AAADFCAYAAAABpvOcAAAAAXNSR0IArs4c6QAAAARnQU1BAACxjwv8YQUAAAAJcEhZcwAAFiUAABYlAUlSJPAAADjnSURBVHhe7Z2Hu1RFtvbnr7rf3Dvx3nHUmTHr6AQdFSOioiCKiIojigGFQ84ZlCCKmBMgKIiKIiBZokQJJzOjzvpqpapVtasPBzgijbWe530q7j5t+9svq2rv3v2zEiVKlChRokSJEiVKlChRokSJEiVKlChRokSJEiVKlChRokSJEiVKlChRokSJEiVKlChRokSJEiVKlChRokSJEiVKlChRokSJEiVKlCjxg8TmtXthxINvQ79rX4Cel8yEuy+dBQNvfxmeG/UhHD3cAjKtRImzI1Yt2wZ9rprtYJ9FwKPuvHiGE5dP3fUa7NncCP869q8Cf4n6j/Wf7YaeztU97Jcg7LHuuHg6PHLtAti+5Bi0NRfwS9RxbFm3F/pciQ6vwKvDx8CTLpoKbwzaDZtmfw9Ht38Lx4rrl6i3OHywER65ZUEHDi+wE/DTCPpHr10I6yYCrJv8H9i56Ds41l7AL1En0dzUCgNvWxiAj2C3wCPs0+B2BzxrEqx10K+d8B/Sprnfw6Et/y7glzizo7WlHWY2fOiBZ+gt/NMZenL3GPruF0zwwHu5k2DPyu+gram4fokzMDAPf2XW5w5wu0tjnd6mMwq8Qj+FoF8z/j+wJgEf2+tnfQeNewv4Jc6gwO3GRQu+hJ6XpduS6u6yaEXYKa3RlGYq9LhwitNkuPWC8R54hV9FJ8Ck/8Cupd8X1y9xZsTq5Tug95+TvXi/eBWHR9iTPF6BJ+j/NC6A7qBXl09PgE3zvocjO74t4Jf48WLz2j3Q/zq80ppLa2oAb2BH3abQW8C1rifA+O9De/L3sPP9b4vrlzj9cehgE9z7lzlwFwHP0Ns8noF3wrTGODzm8AH4SXDbBZPglj+O9aB7lxfYozb1cblh9ndwdNe/ytXcEqcnmo62wlN3vS6w27QmuDw5veTxYdGKaY11eYR+ooN+DHyBbu5EJcFtyrRO+g/t6+9a9m3Z1y/xw8fge950Dv+cgR7lYE9z+cjh1eWnMOwCfHenmxV6BzaWegLUhD85AdbP+A4Of1X29Uv8AHHs2DF4YcIncPdlz1FaE6c2CfAp9JTLc2qjaQ0C3/1PEwh6BpihpxTGQJ3KnxQkPmbtxO/h6+Ul1y/RhYHAvzVvLdx1qQOelIfe5/ER9AF4gt4Bzy4/gaC/6Q+jPMBUGjePAZcxU8dxnYPlhjnfwZEdBfwSpxh48emLFTugz1VzPfQKu8/nrdMT9DaPrw189z+NJ+gJ3nEIr7g9wa3Oz0CrFHo7picAtZ3r73j/38X1S5x8fL39UAQ8pTYEfhV67/QmtfHAC/QK/K0OeNyuVOgV8kjuRCCl/cfVd/DlzO+hcU/Z4SlxgrF31xF4qNtLcPelzwvwDH3O6XO5PLu8Or24PDl8gP7G80cGWGsB3hH4OpY7QSZ9R3dutpf79Ut0JhqPtMDg3m8Q8Ay9kwc+QB+5vIXeAM9pjbi8EwM/Hm75Ywb6zgCe1FeP+672ca5/w+xvXa7/b8C1ifznlTiVwJy3pbEdGr9htTa31/0H295+DEY/shjuvmy2gd66fABf9+cZek5tUNbl7RalBR4vTN14/ogsrBHIOaA76rNjUl/jcn3c129vLa5/0oGu0XSoHd4Z9TW8OGAnzB+wA+Y/7PTITvh0wTfQ1lqfrtLedgzGP+aAR9gvMy5POT3m8+LycutwcPs4teH0hnN52p6UBayFHrcrb1DoEU4RAk/QK7hOehLYUuvpHHsc97tStG66c/3t6PoF/hOKY84JN684Cgse2wUvPLQjyEE/T+pvjdgDzUfqz/XfeWEd9P7z3Aj6qtPHwFuXD8Cz01uXt7k8Qf+HMXDjecM9kAqyVdwvYGcAD3PkOOxPXlPn4z08X73pcv3i+p0LBPmjeQfI1RV0Cz5Cr3r5iZ3QeLB+wF/+zhbofcWckNacCPSS1hD0ldTG5fN/UugZeExtEPobzh/uIbWAWimsuTFUgDued7zjvpz1LRzaXK7mdhj7t7U4B/86C3kK/LwHt1P5ylO74JvdrWf8B7t53T7oc6VzeAQ+yuU1tWFZ6DmtsdBblw9781mXd9Df9IfRcAM6fQdgBnVmjlVn538LO5d8C61HC/xRYDqz9eOj8HKaznjtpLICvWjhkzvhyP4z1/H37DwMD163AHo52FEW+gB/1ekReLzvRtMbTm2CyzP0nMsr9N7lXT6P0Hc7b1gV+rFY2r5a9ePJzKXXrK0Nc79z4Jd0h6LdLUjfn7ovglzBTvv8mAF+7kOslwfthMN72864DxUX5AO7v+qBz0Hvnd5Dz+CnTh/n8+zy6VblLeT0nNrghalu5w7LQojKnwyqfOrSuX818lr3XLlr82f7tjbD68/G6YyVAu7rXgK9qyPw8x7keS89vhP2bmk+Yz7UpsZWGHjrQgf6HJEAT9AH8LPAdxJ6u2sTXB6hHw03ne+gd07/+XFcmGVhroJdeQ2Cv/YJoPPj476Fwz/Ve3fwbP9qVSO8NJDTFtLDpu7kARdH93UqRa4+V8edsP7CgB2AJ5P8qR8t2lrbYcGUzwzwKfRVpw/QM/jq9gx8SG9wIRtuOzDQq8tHTt/gocvBj325/pPR52O/lTLUwxiXW1/57qcHfUtTO3zy0sEIcAu6lpEM7Ah2AD2MaT9rG+z4ovFH/XBfnfkF9L58bgK97Nwo9MnuTQQ7KTg9QX+hcXlSvIjVBSx+cQTz+QB9cGQCEktp+36UgJkrEWJ/LNZd6Y+VeVzHeQH4cCz3rZn4E/se7sFdLfD6kN0ObE5ZUkWgU99OVwrgrm1TGZQ9AWyJmv/IdtjyydHT/gHjRZkV726Be66oAk/QY1rjoedSnZ5THIXeAU/Q4yJW05uwiA378wh8kt6Qy4+mWxCu//1Qhk8AVBgDkGEsKqM5DHllvo5l+1E8Zv8mSj6qsz/WvXfYLTZld6ZGKuPrCLCWJKyHtgKuzo/1Oc7dFXjV/H/ugO2fn17HX7fqa+j71/lZ4FGR0xuXj9ObkM+z04f0pgeBb6GPbz1A4DW1QeivO3eIhy+AGNoMth1XSaqiSvv969jX+xY+y/Tp8fp68lGdvdHSdAyWP3eALzIlsNfO47EUwLG0YySFPoY81Zz+2yjH37j88Gn5oMPWZB54VcfQG6eX1MYuZKs7NxZ6dnlaxBroY0gZQJLvt6XW0/muLvDGY3oShH5s1/ybri0f19kZB3e2wJsN8e7MfAU9PQGcqnA7CcAKOcn1p4B79Q91hJ7+BXDzt376w6Y6+ASDzgN/Ik7PwAfoeX9ewddFLF+UCqkNQz8Crvt9Cr2oAqUZ832qeE5wc+6j18+9XuXvYvssdvqda5srYHvgUTmXJ4cPsGNJY1iX9AZhVvhTyFUEeyrXv37p4R/kSw+4GzXmn+9nIY8lqY1xentFtgp9ePIB7dyQy+dyege8gV63K284bwRcf+5QgjRKOxyMKbjVOsseF71GOtcDzmBrPT6GJR/b2RP4sNHFk/bC/AFVJycZ2BVqW/fQoxyovhSlgM91QId6Dnjpe4DnrZi7v0vvAMSLT2MeXZwBPJW5MGWgrzp92KpMoUfgeTGr6U28c5M6Pd5hiU6PoH02JgaPYaxCHkkcHOcGeNN2eO30b1AflnRChNeSj+7siEN72uDdsXuzqUsqhdzWI9hRro6g6oI1q8Tpq9Bvg9kOeK3jnE9ePtAlVwbxX42F01cncHekAD6XHUAvOX3k9H4Ry05f3a7UfJ53btDpr/v9sxGgqXJj2ocl12v9y8AK86r9cR8fKx9f/ceGD47AAnuxqQNVIEdJ+pJ181pK83eEuuL21fbs/l/BJwsPnPI9+UsWbsjuxdeWdXotBXqT2gSnT6/GMvTs9LxzU3V6Az06vd+9ETidGyukteTnZtpap9K+Vvq6xv39uPTJx1e/0XSkDRZN2wFT+qyGyX2+gOf7ba4A3ikR9CyEOD0BtO5dH4GPYHZyi1YscTzqN0LXRz3/wFewcsF+aG87OcffuHpPh1uTtRVgj9Ib/4CnOL3R3RtNb1Lo7R69v/3AO/1wSm8URHJsgVDdW2HUfi/bl46Jotfwfcm4fR3UmDq/23Lf7iPwYLdZ8Lf/fRz+/KsBcMUvH4Irf/UgPPDX5+G5fhvzro5ga4kQ67jUFXaFvCLj7j6fN26ObQu5yqY41CZ9BR88vw/aW0/sDs1tGw9A37+dBPCXY1kD+hrpTeT0fhGbQo8uz07P+byB/hxOb2oJIWVH/ncVUOrP1Gmem18Zx9eQfmmnbl/XTr/o1dVw/XlD4er/fQr+9lvUE/DX3zwOf/ntQLjsFw+6E6A/jL/7E+/4DHYqdu4OATeQ41wsEVod13o1jalKQWfxiYD1RRP3OMfvXKpz5JtmGHjrKwRvFuzjKoY+3b3BNCf+8bQAfez0YY+egecLUxH05w+HayWnt9BF0FLbAK/KjWnblav0eBozdSxF8RyRa8tHWV+xef1uuPmCYXD1/w120D8NfyfwHfS/HQR/+c1jcNWvB8Llv3jInRSDYdb97PgR/P4EUFfnPgVb4Vawfd3IwhzDH4Ou8pCL42t9tktzUO+O301fQJf/xGw0NbbAsH7vZEDurGQB2+E+vTo9gi/pTQS93mymTm/26P1Cli9M4UL2WkxvPHQJwCpt5/oVXN/meuVfh1R6jJ8X5srHWV/xzAPz4Zr/e4ahd4qhf5ygv/JX/3SO3x+uP/dJB9lXHmwPusBvQU7bJIRewXewpn0p3Ap02ia4se7yfgWdTwSsc/nepD3QeCh/Tz7u9ox77H3n0g7UU3D51Olz0Ne6rbhWTl91eoVenF7BVfA8jKKo/W9yaHJpPc7MTfu5nfRXXkf6ZEw+0vqK2y4dBdf87lkPPkH/v0866J/w0F/160ddnv8IXPI//aD7n4Y7QLcZ6KvAq6J+cXAV9uli1ZeJcsD7OqY1egL4koUL2+fd+OvDdlUcv72tHV6a/CmBSaB68FU5wHNSl4+h9+BXcvqc08fpDe/eiNNnoMctSw+fQMogplDGdQWU+rBujtV5vm7m2jYpc5x8rPUV//jdEALeuz2lOE9KXu/c/teY4jD0V/zyYbj4v/vCI/94Mbi8QK1lqhh8Tl+wHoFeA3pUBXzps5B70Km+DZ7vJ+1+W+H1hgA+3zW52UHJ+bYH3+lEgVd1aiEr+XztnD5dyAbob5SrsfgFEnb62sCuGs1tlR2vzuNS+6JxbCPgOE9A96+jbSkJonoLcnlx+sjtfxvcHnN7THEQ/Mt/+RBc8F+94NHrFnQMvKYxTgirHbMQd1Y+fdFS5doMu0LPsOtJgHpjxG5o/KYNlrz6Jdx9BQPIQDL4AX6GOA86qzft2qhOBHq94YyhD/v08W3FmNog+Az9KBLu0Wt6g6Dl5KE1IGfbGeGxEdS1jrH9UheM6ivI6Q34DD0vaFFpbn/FLwfQjs7FP78PBt/8TgRzLbdHIbi2XlXoV3dHgH2ftGOXt/UAOUndXvTKMzug3zVzBLhpBCCCqOB7cAVkC3peJ+70ufTG3laM4Mffi3XpjXN6m9N76BL4OqPIzfG45FgLv+2zbSscE4zqKxB6TnEs+Aj9097tw05OSHNwYYtbmVPvXdsh7KRcPp/0oRT2ap2hprq0EWQPuwUc68bpeZzbE3utcU79HEGH8HUEfh70WAw8gl8L+lnu9TWnV7dPodf0JlyYQuhR6vQIfTeE/pxnGLjOgp7Oy4Du+3NtKQl8WzfzBKP6Cg+9A/4fxu05t2fw/b49pjkG/Ev/5wG49Bf9YFqfdRHkdBI4OBV4n8cLxKi0jbJghz7Tj3VXItia1ijoBDfKLWArJ4Gpz7hvo4MQ3Z4dn3PtAH6An508BztLXV5VhZ726dMfR67h9KjoFgTzNUF2es7pP3WgefAUToTRpiWuxHl+DtVl3PbLsVF/TjKmebztF4zqKxR6BR+F0AfH190cm+Yo+APgkv/u5+Y9Bs/12+yhV9gRVOvyCrP2aRtLC7y2WdU6ApyW6ubPPeBKBR3LqL7Vvc+tMKPvJrjn8ufpm0vk+gi+c2MGNYCvKYyFPeT0DD2VAnwKPaU2mt7oDk4Effyl8HSfnpxe0htayJ7j0hsF1OnT0f+qQEhydQ+99ktJx5h2OseeLFRP5yR9glF9hYWenF7c/hpye9y7F/DNwtaCf/kvHnbg3+/AGUMAWle38OfaLDkB3LH+JIhAz8sDL7B7sH2dAadx1491q+n3boS+V80j8DXV4Rw8TnVy4FvovWpAH3L6ZJ/e32UZcnpy+hR6J1rInj8cxjz+qsD4rxheJws51tPxtG6B9nUr7e/oWCfBqL4ihp7Bt/CHVCfs32OqQ+BjquPcHu/Tuej/3Qv9/jLLwMyOzpCnoLMQWl+Xtgee2trHIGtd21UnVynwoZ7TjPs2wX1XziX44lRnJjm+BV9d3YKfAu+hz95wdoLQmy3Lm/44EiYOfgtaW9o8jAok1wVw6eeTQus8j+dqf+L2Ms+Pmb/Bx6j0dUIpGNVXVKFn8DXHv1rA1x0dcnzcv/9NvKODtypc9N/3wcPXvEAQVx09FgNt6yFv5xLhDtuRHnSVAzrqcxBrv7YRbGx70O8PwGt7+r0bnOM78NHx8WnCHnzj+HIBC8XpjZ4AAn26kPXQS4pD0PPrVnP6OL2Jc/pRrhwN04cvAryohtcZFL4ciNjmem5emKsKc2xb+/jE0PGc8BjBqL4iDz1K3B6VOj65fQ3wf34vjL3r4wh6vHoalQ5KPyaQ83joi/J6V4+Bxn7tY7DpBMBxA7nOj0DPaLpz/Hv/jNuZIdVh8NnxA/wBdg+8WcR66An81Omdy4vTo6q7Nwi93obA0CPwz41ZCvjDD/j/CqFnOK0sqLUUQK4tO5cV/lZuDpcEUb1FHvggD/7vguP/TcGXrUze0dE9/P5wyc/7wqg7V3iYc1KYLdgKO4KKpZ/n5MGmuri6E0KrsFtZqKltXH6WqwdtoXJm3y0w4OqFBGJlcSsgK/gEv3N8reegj9Ib2bKM0huBnsAn6PHBrfFC9u0XV0d3jKrT52HUei0FWD8ZZdvV8bgvnWfHzmLo1fVDqsNpjt/K/DVesQ07Opf+4gF3IjwEU/qsqcCuYpgZdGpTX+gn8Csyjk9CoFkebqkfTwh6WuIJMOCaVwlEdfyeGceP3F6dXuCPoY+3LC30DH7miqyD/tYLx8Hc8R8APgFa/jdRpOlNNSXhNkMdz63dtgpj8WvEY9rGOfLW6ityoFeFKY6mOdbxGXxMc2LwcUenH1xzziCYef8mBlpgZ+AD+L6PbiALcGOpbu7rDs4q9MHtFehc7h7awfUZdIbdauB1bzoYzXamgi9AM+SsAD+O1c7pCfiM04ecnh/RffslE2H22A+yMCn0n4w65sFTCGtBiv08FtrxnBTm0H+8uTgub62+Ig95XlF+b/bwFXy/o4Pg/wpvTrsf7vv7RJg3wOT3ArFNXxTsUA/zCG7pVyGwAXwUthPwcxLItR2Aj8HHVCcPfkh1CH4BX53ej3Vm9yZKb3ghe/vFk+DDdzZUHF4jOL0BT+BTQGNQUQyqHadjzHh8LLd13M/HUuZZyVurr8jBXUs+v48Wtnq7QrywpT185/hP9J0BGz88YqAX2RMgEcGtMPv2Vh4zoCO4tdoKdiSBPg++Fef4j177OvS4CFMdBB+3NIPjs7ML+A76XlRyG/sjp/e3IdRyegf8JZMJePnfko0c9AzpMQ+lFY7bUufpsdTn5wjsdlxKW9dxbctbq6/Iwd2xEvCji1cp+ANgcP/Z9IiOlS/td9Aq7CoLe8jj1bVJ1JbSCUFVqHNw6xwSwh0BviWq54FnIfQz+m6GJ254l+Bkx3fg0+IWwWeoPfwEvDg9yjg9gS/pjT7H0j4CpOdlU+GLlduPCxBCH1IbBtCCaqGm/mROkJwk8jrRfKvoZHJ11xf+Do/JW6uvyIPdkcI9OgF8XdyGHR0FH6HHv4PPlVk0aQ/B7YGP3N5AjzKgewmwNCbjCjFJAPdOTlCrGHiFWscQbu0L4n7VoG7vEKQIq72AxemOk4Gff0qTSw+83b3xtxbzQvauP0+DT5du6RQ8DL0RAYiycFoxqLkxDzrVg8vXmm9BR+nJIm+tviIPdmeUS3UE/N8MctAz+M/0n+M/GPyf9vqw3QSrB14WsNQn4Fuofd0Bq22ENy1V2CboUa5NdSltP/cx5Bb8maatddSw25Ybx0fwpxP0Hn46ARR8Tm+4ZOgZ+Di9uePSqbD83Y2dBidAn4fcgoxzPpZ5oT8GN5LOieZq3fZJv8yTt1ZfkQe6MxLoPfgMvQUfHf/ZB+dFHww+Wwd/PhPh9A7v6gS0QB3cnuH0YyKC1sEbgA997ODs1inw2B/GVbYdHB7bFvqZLtUZd9dnDljn+Bc68BV+SXdQHnwDPDq+5vM2p7/z0mmwdf3eE4JG05sqkNynkMfj+bmx7Dwt7VxpRycVt+Wt1Vfkge6sErenNMfch+/AT6HHOLirFeYNEFd3qoCvwj4SAh67uq2THLCVUhTA7gh4FgFu6wZ6zPGH3LrMwc7pCQLM0DuoBfyel0rpwNeTAaU5PR5z39XPw6Y1X58wMGl6EyBPxSfAxyMZ2vhkCOJ+VfX4uN/Olf6fJvSoBHyf5jD4Qx6an/1g8Cd15j0S0hl0d4SV21J68AVk7Nc6Am36oz6BGes5sNXRtV0LcipNP0KP/Q0u1SHwnRBi3tkR10fofc6vkp0bpweunwu7tn1zUrCo0xPQAl4ELjmxhTw9McKxfELYOXZemBvXQ0l19xry1uor8iCfmOI0J97RGfrwizU/mHVLDvGXPhR0Aty0BXqF2tZJBHTc1j6FHfsD+FoGyLWsiqGfcZ+Urh20iXJ82oGRBa7u7FDKQ+mMiP4VYOgfueVF+ObAyf+aSprTE7wqB6CWdjydW+t4hTieJ3OjkynoJ7iQjaXQK/h6V2ZH0GOsfHG//+IHAool5fRYN9BHwDt4SbYtpQLPdYYax7RuFUNuxY6OdXV3BT7UN8HI21eS4/sFrnd9cX4HPZ8E0+Ghbi/A/j2n9mMSCL2CqUAqpFaVseiYFHZp48micON8cwL4cXusjMtbq6/IAXxyUrc3ju/Ab3j4pQ4/mGNtx+Cj+ftDKmNKhNVDL+1IAruCbsX9VdB5nMsq7AK8Gw/go7TNJUKPd2ZOv3cTTOz1hYPagX/RZHF9FMOvwD9w3Rw4uO/Ufz3FQm/BIxilvnJkezTmxyt9Us+8RiTsM/3+9WVM3lp9RR7gk5WAL66P4DcMWHDcDwafS/Pu+K8FeARdlAM9FQKeBb0KvYLt675PgbYK0JOzuzTHiqAn8DfCqDs+gV6XzQT8Qoi6fg/c4XHgY0pz+GBTl8BB0BvgPkYAFUqVjtOcGNCons43fQi2d3w7ntZdKW+tviIP78lLoacTwIHfGegx8DHb8wfJLo5NZVIJ5OryDLyCzfCHtu13INt6BnKbvmAfpzGmn/J7Lj30922EaQ78cXd9DnddNt2Dj64/sMdLcPRw1wCP4Z0+lYKY1p28gzuRS2PdwmtPHNMfObrOTUsneWv1FTlwT13B7YcNeLnTH8yhva3w4mPbCOYIfIHZQu/bIobZtgPgechRAW5tU93ND7Ab+NHlte5yegQenR6hn3bfBk51LplKd0wOe/CNmjeOnWx0CL0BMR3zsGfGarYz9dwJJG+tviIPbVeI3X7YI52HHmP3xkaC1AJNioBWxU6uJYIaxlzb1Fkun8d+gZrmGLgj0LUtaQ31OYf30IvTT7t3A2lsz89g5ENvQ9PRli4HIsrpE/i0ngU8Ati9Ri24E0WvVWOevLX6ijywXSUH/Qk4PTrjzNGLoM8V0wlEf6VVQNe67VOQuR3ADvl6KoY4lYWcwcZ5oR7GNK0J0E8l4B34fTbA1D7rYfajG2H/zq5LazQQegbbgOdgxDYBasBcOaJ6Amhb56evFcar82y/lby1+oo8rF2n4Y8s7NQHg7/s9+a8z6D7RWPdcYPhwb+/QPBqmkPQixT2FHQVQmzrdALYuoNXywCzgTyVuPx0Kg304vAMPQK/AaY46Kf0+RLmDNwEO9d37e/d6kLWQyhgs7htTwLf7+tG0bEonafHO9Gc/AmhkrdWX5EDtUt0DpedTW92b/sGelyMX4weSw83+sc5z8DgW96LXD1AruDH0DPsoS/Abtxd5nGfgC6ujv0KOdURcmljydCHRSy6O4LvoXdC4FGT71kHM/qvh92buw58dnoGL0gAFTGY6Rydl/SlJ43MUaBDvy1ZOi5vrb6iAmsXqzPQ79p2EG6/iL8yh4/BwC9F33jeSLcYfsotDldnYE/gdoDauorbDmDfz3Xr4Aq9hdvXa8hCj9L0BlObKfco9Gthcu+1rr0W9u3oui1Lgk5htdDW7IthZbk+Pw/HWQH0dvhIxsMJEMas5K3VV+RA7TrhQrbj9Obgvkboe/VsuqhDX5ujZ7Q78P8whp7Lfu05T8OoOz5yADPwNr3JAm/6qK7ykPM4gk19Vgi1lDgHwWbIVSa18dCzw5MoteH0Bp1+kgN+Yu81MPneL2DTJ98ApnDyn31SEXL6WJErW+i9FFoLrjnGSSH3/a7tXzd6TfMarl/eWn1FHtauEG9bdrSQbW5shSH3vUFXLfmCjoDvHB+f/4LPfbnhvAZXDndArfNwK/QWbtvGcYWbFWAPdQY8B75CngPe5vQeelzAeuid0zu3R6ef5JweocetzCl918DmVSd3o5mGTW8CpLFs/0cj2riOfdqfHmf7zZh/HVdS3YxZyVurr8gD2xXqGHr8Cf7RA94FvAVX7zfHe9TxpyYRfH3aF4Lf7dyh0MMtcHHnhKG2CicAytYVcHZuhpraCrgKAa9RMuABeg88yoGu6Y2HHtMbp0m9ndMj9L3WwAQH/YS7V7Pjf3rwpB2foLfwCZAEt6+H8Vp1/xqZkk8Udn5/DJXmZDNj8tbqK/LAnqr4wlStK7L4iLoXJnxKX6jmbxox+HivCjq+go8PP+LnOo6mHw6+8+JxDsYq+JrS1BICzCeAgR7BNnBTv/Y5BdC55D4LPufztE0pbj8Fdc965/LG6Q3043t9DhN6fwYbVp4c+JreKHgEpEraCiurLcxF0Xj1BPH/IpBMqoMlzZPXkT59TSzlrdVX5KE9eeltCAx9/t6bZa9vhF6X65PBwtfr6NbcixD8KXQpH58SwI7PP1CAP0rw0N/nB9gN2Jq7234CWmDXukLuS4XatLkvlAF6rscXpHAByy7v0xsnBF6hx/SGoL/7c/r21fjeq2D1ohP71hSGOj3CZh059AmYTtq242nJMkDLcerq6evoPHuMvLX6ihy4J6/g8HxfvYM+ucty1dLtcI99xvul+LwYfWwGfsMoOD6CHx5siuDjVubT8OSNb8fQRycAu7bWEVasI9RZ+FWuHcPN/Qw5arMDXOt2ESu7NuT06PCyiDXQe6d3QujH9lwFY3p+AsvmH/8JCDYs9ASl1FkIoiqAqYoBDtCGvhOT/m15a/UVeXhPVOHRf/jMS4Je7qdvMPfTb167F+6PfpJenw4WPyuGwL9oWkhzCHz+8bEbzx8BV//uSWjovszD7k8AKhngammdP0lxVK6PYKeS4U7BD8CzNLVRt8fdG4WeF7EMPQKvTj/2LoT+Uxh958ewdF7nwUfoA3h5uKtjoa4uHWDnMXsicX8Y0/7KMdKWt1ZfkYf4xOVTGleyy/Nj//RLJIcONMEjNy4wwLPsA1A5vw+O73d0LuStTFrYOvD595eeJscMsMfygLsxC7i6fySBXNseduPsWFenn+bTG3F7TG1cycAHpw/Qr/ZOP9ZBj8Ar9KPuWAnLXtzun0zcUcTQBwBtuWI4y0Ibzwl1nmf60ravpydE6JO3Vl+RA7jzYodP0xr91hQ+FWHIw/Ph6OEWeLhbFXh2evODZQq+fKka0xxyfNzDR/B1K9MtbLud2wDXn/uMg229OD0DbYH3UritTL9NZbRkVxfwVR5+B7urT8X7bsTlaX/eL2JDejPBQT/eQU9yTo/Qj0XgXXqj0I+8/SNYPGdr9ITiXDD0CqMtrWIwVQHwWnO5HU4a7qM6tVX2mJ+s05uUJgKen3j2ZN/ZMPGJpQnsVjH44SGoFnzO78OOzjj6lY7rzx3q0p0GmOaA846ewm7rRgw2KoU97kehw7PLc59PbTzwAr06vW5XGqdH4BV6cvo7Y+hH3rkC3pu1GfChWPK/phIx9AwlKYJSZcZlfgy+7QuK2+lr2DHuk7dWX5EHuXPSnZrsr5XIk85uu3BC8oPDVek4gS/PhlTw04Vt2MPXrcxnodflUx2EGwhu7/QO0ArsGfhVBLhxc1+XdgDfQC/5vAKfOv1EFELfm3P6cZTTr6o6/R0fwYjbl8PwHh/C65M2QGtzWxYmTW8QzBUCnkKqbdvHsu7NbQuwjtnj9ZgwPxwf/92fGPQIu6Y1nMMj9Bb4x10KMrwCeMdC6KuLW3zGuwf/gsnhVgXc0Tl/FPzjnMHwwF/nMtQWfFUEd+roicsr7Ab6GHasI/AZpxfo8cIUAe+cnhax5PSa3ugiNnb6EbevIOgbblsGc59dDW2tVaAQ+hzcaR+2SVqXeSwHtJYCrj9O5tu2H5d+PyZ1eWv1FTmgjycPvEJvHJ6fbva4W2gOTYDujAR4A70+9lofo4Hghx0dAf8PCP7TMKjbmzHsCrytG8B9HUEmmNMTwrVdP7u8A74POzy7fMbpnYLTh50bTm/Y6TW9QehH3RGcfrhz+mE9PiDoh/ZYCpP6r4SWphh8gt7DiGVr1FaQFXQ7xn2tMk/nyvEynwGPT4roNbRt6vLW6ityUNdWAjs6fAZ4bCO0ebCPJwaf3d7u4WuqwwvbsIfPOzq4h493ZQ7t/j4BjsAq5AF2htrDrhLoycU95GFM2ywGnkvj9M7lw41mkt4I9GG70kFPe/QJ9Oj0dyD0zum7O+i7L4Uh3ZfA5IeWQ+OR8A2sAD3Ca6EM8JMQyhqQpnPDCdGxIuhR0pa3Vl+Rh7uWAvBh4RqAx5QGU5uTBx4VL2xtmuMvXkU7OhP9VuYN5w13Of5gAipALtDTiYAgJ8AL2Bb6dFyBn2qd3tVDemNd3tx3I+mNvxqbOr2kNyMovRHo0ekR+luXwLO3LoKZT3wMTUdbCS7r9BV1Atzjyr2Gwl2BvIYIonqLPNw5VV0+AM95PD7GDx9uWgX55IXQ58DHZ8voXZm8sNU9fPw5+afJZTWlQXBrOr0FXeDGOoKtZdXhFXyGHkEn6OWKLDo9A+90d+L0JqdH6EcS9CvE6SW9EeifuWURPHPzezBz0Eo4cqiFflITQVs+jN3al4l7p22SQpzCLG1/DLZV1NeavJ6puzmCUX1FHvCcEPgaW5Py85oIYQ7cU1G6o6NpDt+VieDzPTr+4tUfGfw7L55AqQaCm0JObQVd+vSECJBbsbPberSQpQWsOD25PENv0xveueGrsbR743duGHqf02N6c1uAfvDN78LTN78D4/svhcMHmg14KgbWSvsCoLZPgE1UawxPLBqTk4MVXk8wqq/IA65idyfgo5RGgKdfEGfgb/nj+Cy0py6EXoTg08IW3d7s6PitTP66Ie7h41Zmz0smEaQ+pXHQKugIsNbTNh1DgFsFl2ch8HolVsFnl9d8vgr9587lwy0I5PR+58ZAr07v0pvBzumfvukdePLGt+CZ29/wsCF4WFqFsRhiO56VA5r+1RCwc6+RSk8Gwai+Ig97EKUzAn20cJWfzEfgb/rD2AysXaV0R0cdv3pzGjt+2NHB25F7XzGVYUaoUQI2w80wVwAX8Fnab6CnfB5lXV6g13weodctS+v0yUKW9+gF+tswvVkKQ2993+Xz4vS3KPRvwmPXvcywaVpj6hGQCazYtiDbtp1Ta9yPCeh2XDCqr8iBHoSwc1pDwJunEevC9brfNxCMeWC7Ugg9i8C3C1vdypSFLW9ljqE9fLwd+dFrFwbwDfC2L8CtgNu6AK+wU10c3i9gq06vOT0CH67GrvLA63YlLmQ99OT075v0xkHv0ht0+oHXv5yBMMCoY3oiKJyR7JjUVdoXlaTwN1D2tQWj+opasBPw4vAhrWGHV+DxJEAI85D+ELKOn+zo0Fam7uFrfj+W7sr8xzlPuQXhYgd3yNuroKcKzo5tLkMfircpdecmOD1emCLgaecGoQ/pTXB6Cz07fYODHlObobeh0y/20D9109sEPTm9AY5ANLIwVuoptB0ca+f6tvYlpWBUX5GDvpLSJA6Pe/FYnl7gVR2ALzs6tIdvv2B+/nAY+vA8eHnIdp/KkMt78BlsK3R0AtynMqnY5SvpjTg9Q483m4X0Rp1e0xtcxFJO3yNA34DQO6f36Q1Bn6Q3CqNKoaQxA3jS96Hp/3BYS2ZeTnIyyDgdZ9qCUX2Fh52eU5NuSzpVLj7h1uQguPOiGRkgT494Ycs7OgS/B9/clSmO3/2C8TBn3DJobW0HfFbm3Mf4KQcp5OriCrqto6bQwtXVqc/VXRkWsBb4GHpyeufwKkpveoY9eruQ9U6v0MtCFqF/4gYHfbeFATiF1JZaJ1XdPMxPTgxXeqdP+qlM+0y/YFRfgXcqMvgOeAd+vGi1W5MMPN5EdvuF07Iwnj6li1vZypRbFdTxcWE7Y/j70NYWLufv39HsU5wAe/XCk/Z5ST/Xg8uHnB63K6vpDbu8E6Y2xul5EcsXpoY7p+cLU+z0Q3Qhe7Pk9LJ786hZyHoZACNwrXJ9InL/jNJ+fu02cnodw1I+1vqKXn+b6KG3+bsCrzm8bk12/9PEBMAfSwJ9BL75UTMH/nOjPsj+T9n5ZSPMuN86vNbjtEZLBl3ruoBll4+cPoVeLkz5fJ6gtzs37PQIvXV6hj7k9Ar9Y24h62FUt/ZtU3fy6UsiC2w6xv18XPg7cRm9ruuTj7S+YsJTbxL0nMd3vBd/4ndN/tAK0DP4mObwxas35qzu8IkDq97YB9P7KvAMuNY96KK4Ty5IWeid208S6Ccq9Hcj9C6nJ5dH4YUp3b1xTi85vd+5Iehljx4XsrcsccAb6N1iFqFH0BBIK3sCWGj9uModi46dnhB+boP0I+D+74S5lXlO8nHWV+AtrHf8eYyD3aY19QG8lprjo9uj3piNwHf8I2A4/sHcPRHUOeCryjs9Q885fez0Iaf3To85PTr97Sa9uY3TG+/03W16866DHp1+YQBPpDAqhNqmPgE3OlEcsKS0n2T7sc5z7d+w49iWj7P+Yt/uQ/Bwj5lVl5c8Hh+oGiA70xTy+3uumAOrlm3r8NtHNo61/wuWzPqaYNfUhpRpI+TaVujDro0TpTap0yv0ktP3VKfnhSxCT+mNW8gOu904/a0o3b1ZBE/f7KCnLUu3kBXwYjGsVjiP5grgXtS2fVzPvy4LIQ/jeqyD3vXLR1mfcfRIM0wduoiuZOK98Ne6Re0N542kBWEetjND+q2re6+cC8ve2HjCD1FqPNQGCxu2VUE3ssCH1CZAjy6vOT0CX8npxenHEPRxTp9z+qEOekxv4i3Lt2CgLGQDkAnQKOPMPG7F/X7cnxDpMbZM61Zd/8MTpz3a29vhw7c2Q79rXqrAdSar799egI8Xbz3p/wGN37TB3Ee3mMWqyLerLm+hJ5d30JPL98KrsQw9urymN2NTp0/TG797s4ycPg+9TW9qQ5kHOAVX+0x/9K9CC3ygbSn5dV2d2nWe3qSxb/dRGNzrzSxgZ5ruvWourPl413Fz+OPFob0t8NxDmz3cFcgFfK1PjpzeLGQFeoSd9+gltZGF7Gjr9B56vAVBd28M9NGWJS5kHfQCnC9VUVvglDrDayDWOdFrmXZuLJ0n4/LxnR2Bv5k0a/hHx/1S94+pPlfNgy9Xfd1lH/zO9Y0w/T6bygjkDnCSAE/QE/gCveTztIhVp6edG3Z6dXkU7twg9CMpvZH7bjCn91uWDnqX4jx7i92yxJyeoUdwVR5QX2rd9Necz2PY5rFQ6jG+pGP4OO1XyUd39gS656dLt8GD1+WeWfPjqt/VL8LGL/Z0+Ye+bulBn9Yo7LqQjcBH4OXCFO/acDnBQ58sYmnnRqH/FEb1lIWs5vV4Pz1Cj3dZ4hVZSm8Wm4VscHoET6XwRX0eYCNp+zkqC7Mcp+PcZ+b7eWG+fGxnX2zbeACe7vWGg+3M2MF5+PoFsO6T3T/YB/7pa/szoIfUBqUuT9BLajOpF0Mf5fPmamzI6atXZMPFKUxv5IqsQu+c/imC/hWCTcFLYfWgSunnpX016rYdH9Mc9du58pGdndHU2Aozhqxw6c7cLIinSw9e9yLs+urUftzgeIG/cvjq8G0ObrzNIIDP6Y7A7sEX4J0mOujJ5Z089M7pKb0Rp89Bj/fe2PQGd3CedeAz9CG9eVygJyAJ+uDMFkQqM2O11Zzp07+hdfd6Q8M87ZeP7OwNTHc2r90H97vUIgfkD61HblwIB/Z07S/21Qr80YhXhm0PsEepTez0E30+r9Cr06PL8/MrNaePoNd9etq9iRey6PYIPerpm94jp1fou0rWtVl5+K0UdtQydxLIx3X2x66t38Azvd9yIJ6+dAeB37f7yGn9kI8caIV5g7Y6sMXtDfgEvINdL0rZnF6hHydOT+lNT17M1tqyjNMbuSorOzhPy7alhb4KbCdl3dr2R8I5xz8BUPJR/TSiuakN5o77GHpfkYe0K/X4ba/B19sP/Sgf8MHdLfD8gM0BfEx5jMtresN79GlOj09B4Lzepzd3roJRxukD9HyByqc3t6DTL4HBuld/4zsup3/VpzY5AI+nTqU87qRABw99Kfza5lI+pp9O4NXPpa9tdHn2D3cxa9Adr/9owGtsW30Ept0vKY5TSG3Y7W1OH6AXt/e7N3pF1jr9xw76lQ54BB+d/kNo6P4BbVl6p5e8np3+VQEup46cGcd4PAa6qmXR64Tj4tfnE2PFqLN49+Z48fWOwzCox6tZaE9WeH1gwE0L4fA3Xf9z8ycauJbZtuaog1zdPqQ37PKupHw+s3tDOb0TAW+hl716cvvg9A09PgzQmx2cp9xidlA3hD6GNoY0QJ0v47m2rfO0L3dcmMPa+EadfjG8qwKfrb5w+udZgE9GDX3fhpYaT+/9MQLB//ztAya1CRel+CYzcfq7HfROFnrO6fXiFKY3enGKoR+Oz7JU6Gmv3lyVxRRH9uoHdXvNQBdgtKWHVepUyrgFWcfDMWYsM6+ihiZobTy1q+BnRSD4q5fvhD5XnNq25sRB78NR8wzHMykWz9jFwFegl50bhN6VPr2hfD51es3p1enNDo5Lb/xevYX+pvfgcQe9QleBOOlX0LPjCrIFWup+3IzlXmfjmz9xl09j787D8Mw9uLuTh7qW8BrA2H8ugRa3SJaXOuOitbkdXhm5LeP0Ar0ogt7v3IjT3/Gpd3rM6T305PS8mB3i5BezBnqFMoXwePLzLei5tlNHr/2Bc/iNb7UB3pYtH0kJDXT9mQ3Loc+V87KAp8IcftzAMxt4jebGdpg7aEuAnvbqOZ/XFGe8bltSTh9Dz04vKc6dDnxayCL0ZjF7K0PP25aLadtyULfXDXwJxHQyVGGNAE7cO+2LZPul/tH4Zti3of2Ub+47qwN/PGzloq/ggeNczEKHb7j/XWhtqZ9/Mg/saoEZ/Tc66NXlWZzTK/C8bcnQsyLoMb1Bt5crswr9UExxEHq/V8+L2UE3BOgj1QLXaWmmD1Vxc2lnXX5YM6xb2AotR0/8B59/soHpzqAer2WBRz0/6uNO/bremRZ7v2qCafevF5cX6DG9kYUsQk9Ob8APOT07PQFPTu+gd25PTq8pDi5mHfic4ix20L9RBVLk4UZoOzgJaqnWybFibDMc/Kq9099GK2ECnzuDX+WbOXQ5DL33Hefs78DsUSth6/r9df1hbll1iB7RbaGP9+jlVoTI6TGvDzs4Ya9eUpzu7PaY4iD4Cv0TN77pYVw6pAqoFUKsyo1HcieJzgtlE2x6pw1aDhXYS2Rixct7XF4f0pvxqdN7l7eLWYE+ukAV8noLPS9oF8OTNzD0FUDdCYB1ajun17rvS8pK35AmKrXvo3HN8PXqOv0RtRKnL5bN2V0jvfnCu3zs9JrXf8I7OD0QfIXe/Wvoty4lxbl1iYP+LQ8tgmrhpbpxbN8v8/wcke3zr+WO/2J+83F/z7ZECYq21mPw7pSdAj2mN2Exy/v0aU7vhBepZK9+OEHPeX2U4tDWJbs9fk+2AquFWtoKdgA8zPF9ehyVTbBiXBMc2FRy9xInGPhrgLMGbAjAm7zepzh36lVZdnrUiFyKI9BzmmOhN7BG4DLUUb/t8+10vAm+fKUVWsvOTImTjcMHWmH2Ywx+cHl2+jE1oI/zeuP2Zs9+iHN7/CKJBzYHci3VGF85sRn2flly9xJdELs2HYXJ960l6HnnBp1+NUMfXaBi8HVBO5yuzOJ+feL2t7Lb43PqK/DqCVBD1VTGpTcNTbDmpRZobSzuXqILY8NHB+OcnuBnp+d76tXt8ZaE2O2Hidvjgtbm9oNvejcGWPS+qetY1Ge0rKERvtnWDviVSHmrJUp0XXy5/AClOQF65/Yut/cpDjm9QO+Eub1f0KLb0z32AXy8/8bCnAMb+7Rf69R2J8P6V13u3lRgL/EDBm79ffjSrhj6Sl6vTh8vaMntkzQH77/B/NxCfTzYUSvGNsGeteWuyBKnKTCNmD9kU0hvJK9H8CnFMW5P0Pcwbo8LWk1znPD+GwWZ4H42A7nr03HM3dcudLl7U9mGLHGaAx3/pYbNwelpMatuz+Cj0xP4DnoGX51e3J6g5/RGlQKPV2a1ju6+b0Nb2Xcv8eMFbmVO7b/Wuz3v4Di3v4PBJ+hJmOKw1O2909+yOIIcVQW/CdY5d285WmAvcQbE/l3NMKHPF8bt+ZYEcnyT4vhFrVyp1fwebzwjuJ9tZCnsUv9gdBPvzBR3L3EmxVerD8P43l+Qy4++i9OcKLevuL1A7xwfvyi+RIEn0Bn2JUOOwpqXmst3VkucufH54n0w9m5McRz0/q5Lhp6v0OpOTgAfUx383qyFHuvLnbvvW1+uqpaog3h3xnbJ7RF8m+KIEHxKc5xwYetSHbzr0qc0zuXx20ytzWXfvUSdBObdb07+imAn8GVB69McBV9cH91+Yu/PYMkzR+HD0Y2wf3Nx9xJ1GHhX5oIRWxh6BB5PAAf/SDwBBHq/f++c/rXH98KGt1qg6VBx9xJ1HEcOtsLMf64T8DW/VwW3n/3ol7Br9U/4MXolzq44eqgVZj26jnL8ALzTnfyrJa+O3gQtjSWdKXGWBX7zatuaw7Bg+EYH/Gcwrs/nsOi57bBn29FyR2SJEiVKlChRokSJEiVKlChRokSJEiVKlChRokSJEiVKlChRokSJEiVKlChRokSJEiVKlChRokSJEiVKlChRokSJEiVKlChRokSJEiVKlChRokSJEiVKlChRokSJEiVKlChR4icfP/vZ/wdWY4voDB5W9AAAAABJRU5ErkJggg==;" vertex="1" parent="OdsEoXFKajWaNsKAPJOW-1">
                    <mxGeometry x="221.63" y="10" width="76.75" height="80" as="geometry"/>
                </mxCell>
            </root>
        </mxGraphModel>
    </diagram>
    <diagram name="Page-3" id="asKxycsR7vd7-7z2cGui">
        <mxGraphModel dx="746" dy="424" grid="1" gridSize="10" guides="1" tooltips="1" connect="1" arrows="1" fold="1" page="1" pageScale="1" pageWidth="850" pageHeight="1100" background="#ffffff" math="0" shadow="0">
            <root>
                <mxCell id="B1SNh3dPXUooH1kQjsUc-0"/>
                <mxCell id="B1SNh3dPXUooH1kQjsUc-1" parent="B1SNh3dPXUooH1kQjsUc-0"/>
                <mxCell id="B1SNh3dPXUooH1kQjsUc-2" value="&lt;span style=&quot;font-size: 16px;&quot;&gt;　 .vcxproj&lt;/span&gt;" style="rounded=0;whiteSpace=wrap;html=1;verticalAlign=middle;horizontal=1;fontColor=#000000;labelBackgroundColor=none;fillColor=#FFFFFF;fontSize=18;strokeWidth=2;strokeColor=#000000;" vertex="1" parent="B1SNh3dPXUooH1kQjsUc-1">
                    <mxGeometry x="10" y="10" width="100" height="220" as="geometry"/>
                </mxCell>
                <mxCell id="B1SNh3dPXUooH1kQjsUc-6" value="" style="shape=flexArrow;endArrow=classic;html=1;fontSize=16;fontColor=#000000;fillColor=#dae8fc;strokeColor=#6c8ebf;gradientColor=#7ea6e0;exitX=1;exitY=0.5;exitDx=0;exitDy=0;entryX=0;entryY=0.5;entryDx=0;entryDy=0;" edge="1" parent="B1SNh3dPXUooH1kQjsUc-1" source="B1SNh3dPXUooH1kQjsUc-2" target="B1SNh3dPXUooH1kQjsUc-11">
                    <mxGeometry width="50" height="50" relative="1" as="geometry">
                        <mxPoint x="100" y="80" as="sourcePoint"/>
                        <mxPoint x="439.96154" y="120" as="targetPoint"/>
                    </mxGeometry>
                </mxCell>
                <mxCell id="B1SNh3dPXUooH1kQjsUc-7" value="" style="shape=image;verticalLabelPosition=bottom;labelBackgroundColor=default;verticalAlign=top;aspect=fixed;imageAspect=0;image=data:image/png,iVBORw0KGgoAAAANSUhEUgAAAEoAAABICAYAAABRGGN6AAAAAXNSR0IArs4c6QAAAARnQU1BAACxjwv8YQUAAAAJcEhZcwAAFiUAABYlAUlSJPAAAARKSURBVHhe7ZzPSxtBFMf92xQRVOhBD1XxVrQKVfCg4LXgsYJIDyq1baD1YKvgLxAUMSiESg9FbRERKtaDJua3v3Xab0zMzsyLO2lmN9llHnwOum/evvms2R13k1SZMOH/OD8/Z8VydXXFMPb+/p7cbsfNzU1mvKeCmogdRpQiRpQivhd1d3fHrq+vOdLpNDeJPz+PWCiwyZGMJ7mcy8vLx/HW34O99V/c2O9ftqQciLb2UHHi0JDYtMj20g82/uwtRzwSJ3MpVt4sc2M/vfhI5olkW8wHjmq58JQoKqmSMKIUMaIK8P75ODcxFSADY09/n5Db7cDBEPvI6smHmFBuPCNqfX2ddXd3u8Lk5CS3b+AZUXNzc6y6utoVhoaGuH0DI4qAEvXtc4hbIC69npcmtvkuyOVgUYmxsXCM+z2Y7pnixn5omZBysKgV+8jqyYeYUG5RIhV71TOiHsjqyYeYYEQ9kNWTDzHBiHogqycfYoKboij29/e5flTI9dzU1MQSiQSZo0Ludg0ZYrIRVSDEZCOqQIjJRlSBEJO3t7fZxMSEKwwODkqihoeHydynyNWpr69nY2NjZA5FPM5fFIoS5SY4+n19fZIstwiHw1w/FSsKnJycsP7+ftbzqsdR2tvbvS0K4IFCLBp3lJmvM94XBdIpZ2WVLOri4oJLBnt7e2xgYIDV1dVJxXXQ2dnJIpGItN9UMkVOUgfaRZ2enmYus2JR3eBKlUqluH2DpEOytL/0VlZWpIJOMTIyIj3wBIlEkpxsKZQkCo+gxUbFBSd+1klbW9tj7ZqaGjY9Pc3tP0c8niAn/L9o/4vCZKzFxO2lgnvl1vq1tbVsbW1Nzk3/kxXTJ8vzokBjYyPb2dmRcjPLhhg98WLxhSjQ3NzMDg8PpXxdywbfiAIdHR3s7OxMGqNj2eArUQD/zjixbHBVFG7dWrfZ0dvby40HdqIA7iDoXjb4UhSWDVNTU9JYQElQwZeiAJYNGxsb0nhKggquitra2spsVyUYDHLjgaoogJtr4nhKggqeO5nPzs5KdxqtWP8Rx8/ieEqCCp4TZQcWn7l9e1YUbr+EQiFtoJ61PvCFqGJP5nZQT4qNKAIjShHfiorFYpniukA9a33gC1FuYEQp4gtRq6urmeZ1gXrW+sCczAnMVU8R34oaHR1lLS0t2kA9a31gTuaKGFGKGFGK+EIUPuSDG2+6oD40ZCeq62XXf9Ha2srNCzgmqhKuetbxpWJEKeKYKNzGxeR0gXrW+sAXotzAThSe7OgiGo1ytX0lykmMKEWKErW4uMiJKieBQIDrzWmKEnV0dJT5BADVuJvgSfHu7i7Xm9M8KQobxQHLy8usoaGBnIAbQBL1ssOX1VBfXaILvFUzq0UOJIgNgePjY7awsJA5Z7nJ/Pw8Ozg4IHu6vb0tPBE3AkeKaqySwNu8s+2WNypd1pMvC7eD+hRDucEBLK+kqqq/5RNc8zNbUfMAAAAASUVORK5CYII=;" vertex="1" parent="B1SNh3dPXUooH1kQjsUc-1">
                    <mxGeometry x="19.999999999999996" y="109.5" width="20.56" height="20" as="geometry"/>
                </mxCell>
                <mxCell id="B1SNh3dPXUooH1kQjsUc-11" value="　 .exe" style="rounded=0;whiteSpace=wrap;html=1;labelBackgroundColor=none;strokeColor=#000000;strokeWidth=2;fontSize=18;fontColor=#000000;fillColor=#FFFFFF;verticalAlign=middle;" vertex="1" parent="B1SNh3dPXUooH1kQjsUc-1">
                    <mxGeometry x="410" y="10" width="100" height="220" as="geometry"/>
                </mxCell>
                <mxCell id="B1SNh3dPXUooH1kQjsUc-12" value="" style="shape=image;verticalLabelPosition=bottom;labelBackgroundColor=default;verticalAlign=top;aspect=fixed;imageAspect=0;image=data:image/png,iVBORw0KGgoAAAANSUhEUgAAABgAAAATCAYAAACKsM07AAAAAXNSR0IArs4c6QAAAARnQU1BAACxjwv8YQUAAAAJcEhZcwAAFiUAABYlAUlSJPAAAAGGSURBVEhLvY/JTsJQFIa7ghbaAsVHMC6Nr6UiTigigziACDguiDsTnkNxoA44oSgqoC58DDbHcy+lkuYmN8SUJl/apP/5zvmFbCYNkXDIFohbYP3oF13XmW8CXdBut21hsAuKxSIUCgX67gbGjn5g6OAb/Ptf4N9Ddj9B22mBtt0ELd8EX64Bo4ctM291cBtoFqGWb4Av+4G8gzfzBt7NOoU1S+A2oMKcIdzqkaZfwZN6Ac9GDdT1mpnvuwEVEtJ1Q4igUF17BnWVUAVlpcqcJXAb9F7ZkT6BkiTSR1ASSPwB5Ni9me+7ARGqDKEcvaO4I7fgXqowZwncBkoChXEUxgzhMgojFSp1ha/BtYgsXJl5K9wGMgpl40p3+MYUSqFLkOaROR0pM2cJ3Ab0ShT+SXUQZ8sgIeLMBYjT5+AMnpl5K9wGVIgXEmlXKAZROnXaYbKEnDBnCdwFI8kKFYp4pTOAwkAJHCh0TByDY7zDcFRnzhK4C/7LYBZkMyn6YQfELdj7CMIvsXI+UqGSIiEAAAAASUVORK5CYII=;" vertex="1" parent="B1SNh3dPXUooH1kQjsUc-1">
                    <mxGeometry x="425" y="110.5" width="24" height="19" as="geometry"/>
                </mxCell>
                <mxCell id="B1SNh3dPXUooH1kQjsUc-18" value="IDE&lt;br&gt;&lt;font style=&quot;font-size: 16px;&quot;&gt;(Integrated Development Environment)&lt;br&gt;&lt;/font&gt;統合開発環境" style="rounded=0;whiteSpace=wrap;html=1;labelBackgroundColor=none;strokeColor=#000000;strokeWidth=2;fontSize=18;fontColor=#000000;fillColor=#CCCCCC;" vertex="1" parent="B1SNh3dPXUooH1kQjsUc-1">
                    <mxGeometry x="140" y="10" width="240" height="220" as="geometry"/>
                </mxCell>
                <mxCell id="B1SNh3dPXUooH1kQjsUc-19" value="" style="shape=image;verticalLabelPosition=bottom;labelBackgroundColor=default;verticalAlign=top;aspect=fixed;imageAspect=0;image=data:image/png,iVBORw0KGgoAAAANSUhEUgAAAL0AAADFCAYAAAABpvOcAAAAAXNSR0IArs4c6QAAAARnQU1BAACxjwv8YQUAAAAJcEhZcwAAFiUAABYlAUlSJPAAADjnSURBVHhe7Z2Hu1RFtvbnr7rf3Dvx3nHUmTHr6AQdFSOioiCKiIojigGFQ84ZlCCKmBMgKIiKIiBZokQJJzOjzvpqpapVtasPBzgijbWe530q7j5t+9svq2rv3v2zEiVKlChRokSJEiVKlChRokSJEiVKlChRokSJEiVKlChRokSJEiVKlChRokSJEiVKlChRokSJEiVKlChRokSJEiVKlChRokSJEiVKlCjxg8TmtXthxINvQ79rX4Cel8yEuy+dBQNvfxmeG/UhHD3cAjKtRImzI1Yt2wZ9rprtYJ9FwKPuvHiGE5dP3fUa7NncCP869q8Cf4n6j/Wf7YaeztU97Jcg7LHuuHg6PHLtAti+5Bi0NRfwS9RxbFm3F/pciQ6vwKvDx8CTLpoKbwzaDZtmfw9Ht38Lx4rrl6i3OHywER65ZUEHDi+wE/DTCPpHr10I6yYCrJv8H9i56Ds41l7AL1En0dzUCgNvWxiAj2C3wCPs0+B2BzxrEqx10K+d8B/Sprnfw6Et/y7glzizo7WlHWY2fOiBZ+gt/NMZenL3GPruF0zwwHu5k2DPyu+gram4fokzMDAPf2XW5w5wu0tjnd6mMwq8Qj+FoF8z/j+wJgEf2+tnfQeNewv4Jc6gwO3GRQu+hJ6XpduS6u6yaEXYKa3RlGYq9LhwitNkuPWC8R54hV9FJ8Ck/8Cupd8X1y9xZsTq5Tug95+TvXi/eBWHR9iTPF6BJ+j/NC6A7qBXl09PgE3zvocjO74t4Jf48WLz2j3Q/zq80ppLa2oAb2BH3abQW8C1rifA+O9De/L3sPP9b4vrlzj9cehgE9z7lzlwFwHP0Ns8noF3wrTGODzm8AH4SXDbBZPglj+O9aB7lxfYozb1cblh9ndwdNe/ytXcEqcnmo62wlN3vS6w27QmuDw5veTxYdGKaY11eYR+ooN+DHyBbu5EJcFtyrRO+g/t6+9a9m3Z1y/xw8fge950Dv+cgR7lYE9z+cjh1eWnMOwCfHenmxV6BzaWegLUhD85AdbP+A4Of1X29Uv8AHHs2DF4YcIncPdlz1FaE6c2CfAp9JTLc2qjaQ0C3/1PEwh6BpihpxTGQJ3KnxQkPmbtxO/h6+Ul1y/RhYHAvzVvLdx1qQOelIfe5/ER9AF4gt4Bzy4/gaC/6Q+jPMBUGjePAZcxU8dxnYPlhjnfwZEdBfwSpxh48emLFTugz1VzPfQKu8/nrdMT9DaPrw189z+NJ+gJ3nEIr7g9wa3Oz0CrFHo7picAtZ3r73j/38X1S5x8fL39UAQ8pTYEfhV67/QmtfHAC/QK/K0OeNyuVOgV8kjuRCCl/cfVd/DlzO+hcU/Z4SlxgrF31xF4qNtLcPelzwvwDH3O6XO5PLu8Or24PDl8gP7G80cGWGsB3hH4OpY7QSZ9R3dutpf79Ut0JhqPtMDg3m8Q8Ay9kwc+QB+5vIXeAM9pjbi8EwM/Hm75Ywb6zgCe1FeP+672ca5/w+xvXa7/b8C1ifznlTiVwJy3pbEdGr9htTa31/0H295+DEY/shjuvmy2gd66fABf9+cZek5tUNbl7RalBR4vTN14/ogsrBHIOaA76rNjUl/jcn3c129vLa5/0oGu0XSoHd4Z9TW8OGAnzB+wA+Y/7PTITvh0wTfQ1lqfrtLedgzGP+aAR9gvMy5POT3m8+LycutwcPs4teH0hnN52p6UBayFHrcrb1DoEU4RAk/QK7hOehLYUuvpHHsc97tStG66c/3t6PoF/hOKY84JN684Cgse2wUvPLQjyEE/T+pvjdgDzUfqz/XfeWEd9P7z3Aj6qtPHwFuXD8Cz01uXt7k8Qf+HMXDjecM9kAqyVdwvYGcAD3PkOOxPXlPn4z08X73pcv3i+p0LBPmjeQfI1RV0Cz5Cr3r5iZ3QeLB+wF/+zhbofcWckNacCPSS1hD0ldTG5fN/UugZeExtEPobzh/uIbWAWimsuTFUgDued7zjvpz1LRzaXK7mdhj7t7U4B/86C3kK/LwHt1P5ylO74JvdrWf8B7t53T7oc6VzeAQ+yuU1tWFZ6DmtsdBblw9781mXd9Df9IfRcAM6fQdgBnVmjlVn538LO5d8C61HC/xRYDqz9eOj8HKaznjtpLICvWjhkzvhyP4z1/H37DwMD163AHo52FEW+gB/1ekReLzvRtMbTm2CyzP0nMsr9N7lXT6P0Hc7b1gV+rFY2r5a9ePJzKXXrK0Nc79z4Jd0h6LdLUjfn7ovglzBTvv8mAF+7kOslwfthMN72864DxUX5AO7v+qBz0Hvnd5Dz+CnTh/n8+zy6VblLeT0nNrghalu5w7LQojKnwyqfOrSuX818lr3XLlr82f7tjbD68/G6YyVAu7rXgK9qyPw8x7keS89vhP2bmk+Yz7UpsZWGHjrQgf6HJEAT9AH8LPAdxJ6u2sTXB6hHw03ne+gd07/+XFcmGVhroJdeQ2Cv/YJoPPj476Fwz/Ve3fwbP9qVSO8NJDTFtLDpu7kARdH93UqRa4+V8edsP7CgB2AJ5P8qR8t2lrbYcGUzwzwKfRVpw/QM/jq9gx8SG9wIRtuOzDQq8tHTt/gocvBj325/pPR52O/lTLUwxiXW1/57qcHfUtTO3zy0sEIcAu6lpEM7Ah2AD2MaT9rG+z4ovFH/XBfnfkF9L58bgK97Nwo9MnuTQQ7KTg9QX+hcXlSvIjVBSx+cQTz+QB9cGQCEktp+36UgJkrEWJ/LNZd6Y+VeVzHeQH4cCz3rZn4E/se7sFdLfD6kN0ObE5ZUkWgU99OVwrgrm1TGZQ9AWyJmv/IdtjyydHT/gHjRZkV726Be66oAk/QY1rjoedSnZ5THIXeAU/Q4yJW05uwiA378wh8kt6Qy4+mWxCu//1Qhk8AVBgDkGEsKqM5DHllvo5l+1E8Zv8mSj6qsz/WvXfYLTZld6ZGKuPrCLCWJKyHtgKuzo/1Oc7dFXjV/H/ugO2fn17HX7fqa+j71/lZ4FGR0xuXj9ObkM+z04f0pgeBb6GPbz1A4DW1QeivO3eIhy+AGNoMth1XSaqiSvv969jX+xY+y/Tp8fp68lGdvdHSdAyWP3eALzIlsNfO47EUwLG0YySFPoY81Zz+2yjH37j88Gn5oMPWZB54VcfQG6eX1MYuZKs7NxZ6dnlaxBroY0gZQJLvt6XW0/muLvDGY3oShH5s1/ybri0f19kZB3e2wJsN8e7MfAU9PQGcqnA7CcAKOcn1p4B79Q91hJ7+BXDzt376w6Y6+ASDzgN/Ik7PwAfoeX9ewddFLF+UCqkNQz8Crvt9Cr2oAqUZ832qeE5wc+6j18+9XuXvYvssdvqda5srYHvgUTmXJ4cPsGNJY1iX9AZhVvhTyFUEeyrXv37p4R/kSw+4GzXmn+9nIY8lqY1xentFtgp9ePIB7dyQy+dyege8gV63K284bwRcf+5QgjRKOxyMKbjVOsseF71GOtcDzmBrPT6GJR/b2RP4sNHFk/bC/AFVJycZ2BVqW/fQoxyovhSlgM91QId6Dnjpe4DnrZi7v0vvAMSLT2MeXZwBPJW5MGWgrzp92KpMoUfgeTGr6U28c5M6Pd5hiU6PoH02JgaPYaxCHkkcHOcGeNN2eO30b1AflnRChNeSj+7siEN72uDdsXuzqUsqhdzWI9hRro6g6oI1q8Tpq9Bvg9kOeK3jnE9ePtAlVwbxX42F01cncHekAD6XHUAvOX3k9H4Ry05f3a7UfJ53btDpr/v9sxGgqXJj2ocl12v9y8AK86r9cR8fKx9f/ceGD47AAnuxqQNVIEdJ+pJ181pK83eEuuL21fbs/l/BJwsPnPI9+UsWbsjuxdeWdXotBXqT2gSnT6/GMvTs9LxzU3V6Az06vd+9ETidGyukteTnZtpap9K+Vvq6xv39uPTJx1e/0XSkDRZN2wFT+qyGyX2+gOf7ba4A3ikR9CyEOD0BtO5dH4GPYHZyi1YscTzqN0LXRz3/wFewcsF+aG87OcffuHpPh1uTtRVgj9Ib/4CnOL3R3RtNb1Lo7R69v/3AO/1wSm8URHJsgVDdW2HUfi/bl46Jotfwfcm4fR3UmDq/23Lf7iPwYLdZ8Lf/fRz+/KsBcMUvH4Irf/UgPPDX5+G5fhvzro5ga4kQ67jUFXaFvCLj7j6fN26ObQu5yqY41CZ9BR88vw/aW0/sDs1tGw9A37+dBPCXY1kD+hrpTeT0fhGbQo8uz07P+byB/hxOb2oJIWVH/ncVUOrP1Gmem18Zx9eQfmmnbl/XTr/o1dVw/XlD4er/fQr+9lvUE/DX3zwOf/ntQLjsFw+6E6A/jL/7E+/4DHYqdu4OATeQ41wsEVod13o1jalKQWfxiYD1RRP3OMfvXKpz5JtmGHjrKwRvFuzjKoY+3b3BNCf+8bQAfez0YY+egecLUxH05w+HayWnt9BF0FLbAK/KjWnblav0eBozdSxF8RyRa8tHWV+xef1uuPmCYXD1/w120D8NfyfwHfS/HQR/+c1jcNWvB8Llv3jInRSDYdb97PgR/P4EUFfnPgVb4Vawfd3IwhzDH4Ou8pCL42t9tktzUO+O301fQJf/xGw0NbbAsH7vZEDurGQB2+E+vTo9gi/pTQS93mymTm/26P1Cli9M4UL2WkxvPHQJwCpt5/oVXN/meuVfh1R6jJ8X5srHWV/xzAPz4Zr/e4ahd4qhf5ygv/JX/3SO3x+uP/dJB9lXHmwPusBvQU7bJIRewXewpn0p3Ap02ia4se7yfgWdTwSsc/nepD3QeCh/Tz7u9ox77H3n0g7UU3D51Olz0Ne6rbhWTl91eoVenF7BVfA8jKKo/W9yaHJpPc7MTfu5nfRXXkf6ZEw+0vqK2y4dBdf87lkPPkH/v0866J/w0F/160ddnv8IXPI//aD7n4Y7QLcZ6KvAq6J+cXAV9uli1ZeJcsD7OqY1egL4koUL2+fd+OvDdlUcv72tHV6a/CmBSaB68FU5wHNSl4+h9+BXcvqc08fpDe/eiNNnoMctSw+fQMogplDGdQWU+rBujtV5vm7m2jYpc5x8rPUV//jdEALeuz2lOE9KXu/c/teY4jD0V/zyYbj4v/vCI/94Mbi8QK1lqhh8Tl+wHoFeA3pUBXzps5B70Km+DZ7vJ+1+W+H1hgA+3zW52UHJ+bYH3+lEgVd1aiEr+XztnD5dyAbob5SrsfgFEnb62sCuGs1tlR2vzuNS+6JxbCPgOE9A96+jbSkJonoLcnlx+sjtfxvcHnN7THEQ/Mt/+RBc8F+94NHrFnQMvKYxTgirHbMQd1Y+fdFS5doMu0LPsOtJgHpjxG5o/KYNlrz6Jdx9BQPIQDL4AX6GOA86qzft2qhOBHq94YyhD/v08W3FmNog+Az9KBLu0Wt6g6Dl5KE1IGfbGeGxEdS1jrH9UheM6ivI6Q34DD0vaFFpbn/FLwfQjs7FP78PBt/8TgRzLbdHIbi2XlXoV3dHgH2ftGOXt/UAOUndXvTKMzug3zVzBLhpBCCCqOB7cAVkC3peJ+70ufTG3laM4Mffi3XpjXN6m9N76BL4OqPIzfG45FgLv+2zbSscE4zqKxB6TnEs+Aj9097tw05OSHNwYYtbmVPvXdsh7KRcPp/0oRT2ap2hprq0EWQPuwUc68bpeZzbE3utcU79HEGH8HUEfh70WAw8gl8L+lnu9TWnV7dPodf0JlyYQuhR6vQIfTeE/pxnGLjOgp7Oy4Du+3NtKQl8WzfzBKP6Cg+9A/4fxu05t2fw/b49pjkG/Ev/5wG49Bf9YFqfdRHkdBI4OBV4n8cLxKi0jbJghz7Tj3VXItia1ijoBDfKLWArJ4Gpz7hvo4MQ3Z4dn3PtAH6An508BztLXV5VhZ726dMfR67h9KjoFgTzNUF2es7pP3WgefAUToTRpiWuxHl+DtVl3PbLsVF/TjKmebztF4zqKxR6BR+F0AfH190cm+Yo+APgkv/u5+Y9Bs/12+yhV9gRVOvyCrP2aRtLC7y2WdU6ApyW6ubPPeBKBR3LqL7Vvc+tMKPvJrjn8ufpm0vk+gi+c2MGNYCvKYyFPeT0DD2VAnwKPaU2mt7oDk4Effyl8HSfnpxe0htayJ7j0hsF1OnT0f+qQEhydQ+99ktJx5h2OseeLFRP5yR9glF9hYWenF7c/hpye9y7F/DNwtaCf/kvHnbg3+/AGUMAWle38OfaLDkB3LH+JIhAz8sDL7B7sH2dAadx1491q+n3boS+V80j8DXV4Rw8TnVy4FvovWpAH3L6ZJ/e32UZcnpy+hR6J1rInj8cxjz+qsD4rxheJws51tPxtG6B9nUr7e/oWCfBqL4ihp7Bt/CHVCfs32OqQ+BjquPcHu/Tuej/3Qv9/jLLwMyOzpCnoLMQWl+Xtgee2trHIGtd21UnVynwoZ7TjPs2wX1XziX44lRnJjm+BV9d3YKfAu+hz95wdoLQmy3Lm/44EiYOfgtaW9o8jAok1wVw6eeTQus8j+dqf+L2Ms+Pmb/Bx6j0dUIpGNVXVKFn8DXHv1rA1x0dcnzcv/9NvKODtypc9N/3wcPXvEAQVx09FgNt6yFv5xLhDtuRHnSVAzrqcxBrv7YRbGx70O8PwGt7+r0bnOM78NHx8WnCHnzj+HIBC8XpjZ4AAn26kPXQS4pD0PPrVnP6OL2Jc/pRrhwN04cvAryohtcZFL4ciNjmem5emKsKc2xb+/jE0PGc8BjBqL4iDz1K3B6VOj65fQ3wf34vjL3r4wh6vHoalQ5KPyaQ83joi/J6V4+Bxn7tY7DpBMBxA7nOj0DPaLpz/Hv/jNuZIdVh8NnxA/wBdg+8WcR66An81Omdy4vTo6q7Nwi93obA0CPwz41ZCvjDD/j/CqFnOK0sqLUUQK4tO5cV/lZuDpcEUb1FHvggD/7vguP/TcGXrUze0dE9/P5wyc/7wqg7V3iYc1KYLdgKO4KKpZ/n5MGmuri6E0KrsFtZqKltXH6WqwdtoXJm3y0w4OqFBGJlcSsgK/gEv3N8reegj9Ib2bKM0huBnsAn6PHBrfFC9u0XV0d3jKrT52HUei0FWD8ZZdvV8bgvnWfHzmLo1fVDqsNpjt/K/DVesQ07Opf+4gF3IjwEU/qsqcCuYpgZdGpTX+gn8Csyjk9CoFkebqkfTwh6WuIJMOCaVwlEdfyeGceP3F6dXuCPoY+3LC30DH7miqyD/tYLx8Hc8R8APgFa/jdRpOlNNSXhNkMdz63dtgpj8WvEY9rGOfLW6ityoFeFKY6mOdbxGXxMc2LwcUenH1xzziCYef8mBlpgZ+AD+L6PbiALcGOpbu7rDs4q9MHtFehc7h7awfUZdIbdauB1bzoYzXamgi9AM+SsAD+O1c7pCfiM04ecnh/RffslE2H22A+yMCn0n4w65sFTCGtBiv08FtrxnBTm0H+8uTgub62+Ig95XlF+b/bwFXy/o4Pg/wpvTrsf7vv7RJg3wOT3ArFNXxTsUA/zCG7pVyGwAXwUthPwcxLItR2Aj8HHVCcPfkh1CH4BX53ej3Vm9yZKb3ghe/vFk+DDdzZUHF4jOL0BT+BTQGNQUQyqHadjzHh8LLd13M/HUuZZyVurr8jBXUs+v48Wtnq7QrywpT185/hP9J0BGz88YqAX2RMgEcGtMPv2Vh4zoCO4tdoKdiSBPg++Fef4j177OvS4CFMdBB+3NIPjs7ML+A76XlRyG/sjp/e3IdRyegf8JZMJePnfko0c9AzpMQ+lFY7bUufpsdTn5wjsdlxKW9dxbctbq6/Iwd2xEvCji1cp+ANgcP/Z9IiOlS/td9Aq7CoLe8jj1bVJ1JbSCUFVqHNw6xwSwh0BviWq54FnIfQz+m6GJ254l+Bkx3fg0+IWwWeoPfwEvDg9yjg9gS/pjT7H0j4CpOdlU+GLlduPCxBCH1IbBtCCaqGm/mROkJwk8jrRfKvoZHJ11xf+Do/JW6uvyIPdkcI9OgF8XdyGHR0FH6HHv4PPlVk0aQ/B7YGP3N5AjzKgewmwNCbjCjFJAPdOTlCrGHiFWscQbu0L4n7VoG7vEKQIq72AxemOk4Gff0qTSw+83b3xtxbzQvauP0+DT5du6RQ8DL0RAYiycFoxqLkxDzrVg8vXmm9BR+nJIm+tviIPdmeUS3UE/N8MctAz+M/0n+M/GPyf9vqw3QSrB14WsNQn4Fuofd0Bq22ENy1V2CboUa5NdSltP/cx5Bb8maatddSw25Ybx0fwpxP0Hn46ARR8Tm+4ZOgZ+Di9uePSqbD83Y2dBidAn4fcgoxzPpZ5oT8GN5LOieZq3fZJv8yTt1ZfkQe6MxLoPfgMvQUfHf/ZB+dFHww+Wwd/PhPh9A7v6gS0QB3cnuH0YyKC1sEbgA997ODs1inw2B/GVbYdHB7bFvqZLtUZd9dnDljn+Bc68BV+SXdQHnwDPDq+5vM2p7/z0mmwdf3eE4JG05sqkNynkMfj+bmx7Dwt7VxpRycVt+Wt1Vfkge6sErenNMfch+/AT6HHOLirFeYNEFd3qoCvwj4SAh67uq2THLCVUhTA7gh4FgFu6wZ6zPGH3LrMwc7pCQLM0DuoBfyel0rpwNeTAaU5PR5z39XPw6Y1X58wMGl6EyBPxSfAxyMZ2vhkCOJ+VfX4uN/Olf6fJvSoBHyf5jD4Qx6an/1g8Cd15j0S0hl0d4SV21J68AVk7Nc6Am36oz6BGes5sNXRtV0LcipNP0KP/Q0u1SHwnRBi3tkR10fofc6vkp0bpweunwu7tn1zUrCo0xPQAl4ELjmxhTw9McKxfELYOXZemBvXQ0l19xry1uor8iCfmOI0J97RGfrwizU/mHVLDvGXPhR0Aty0BXqF2tZJBHTc1j6FHfsD+FoGyLWsiqGfcZ+Urh20iXJ82oGRBa7u7FDKQ+mMiP4VYOgfueVF+ObAyf+aSprTE7wqB6CWdjydW+t4hTieJ3OjkynoJ7iQjaXQK/h6V2ZH0GOsfHG//+IHAool5fRYN9BHwDt4SbYtpQLPdYYax7RuFUNuxY6OdXV3BT7UN8HI21eS4/sFrnd9cX4HPZ8E0+Ghbi/A/j2n9mMSCL2CqUAqpFaVseiYFHZp48micON8cwL4cXusjMtbq6/IAXxyUrc3ju/Ab3j4pQ4/mGNtx+Cj+ftDKmNKhNVDL+1IAruCbsX9VdB5nMsq7AK8Gw/go7TNJUKPd2ZOv3cTTOz1hYPagX/RZHF9FMOvwD9w3Rw4uO/Ufz3FQm/BIxilvnJkezTmxyt9Us+8RiTsM/3+9WVM3lp9RR7gk5WAL66P4DcMWHDcDwafS/Pu+K8FeARdlAM9FQKeBb0KvYLt675PgbYK0JOzuzTHiqAn8DfCqDs+gV6XzQT8Qoi6fg/c4XHgY0pz+GBTl8BB0BvgPkYAFUqVjtOcGNCons43fQi2d3w7ntZdKW+tviIP78lLoacTwIHfGegx8DHb8wfJLo5NZVIJ5OryDLyCzfCHtu13INt6BnKbvmAfpzGmn/J7Lj30922EaQ78cXd9DnddNt2Dj64/sMdLcPRw1wCP4Z0+lYKY1p28gzuRS2PdwmtPHNMfObrOTUsneWv1FTlwT13B7YcNeLnTH8yhva3w4mPbCOYIfIHZQu/bIobZtgPgechRAW5tU93ND7Ab+NHlte5yegQenR6hn3bfBk51LplKd0wOe/CNmjeOnWx0CL0BMR3zsGfGarYz9dwJJG+tviIPbVeI3X7YI52HHmP3xkaC1AJNioBWxU6uJYIaxlzb1Fkun8d+gZrmGLgj0LUtaQ31OYf30IvTT7t3A2lsz89g5ENvQ9PRli4HIsrpE/i0ngU8Ati9Ri24E0WvVWOevLX6ijywXSUH/Qk4PTrjzNGLoM8V0wlEf6VVQNe67VOQuR3ADvl6KoY4lYWcwcZ5oR7GNK0J0E8l4B34fTbA1D7rYfajG2H/zq5LazQQegbbgOdgxDYBasBcOaJ6Amhb56evFcar82y/lby1+oo8rF2n4Y8s7NQHg7/s9+a8z6D7RWPdcYPhwb+/QPBqmkPQixT2FHQVQmzrdALYuoNXywCzgTyVuPx0Kg304vAMPQK/AaY46Kf0+RLmDNwEO9d37e/d6kLWQyhgs7htTwLf7+tG0bEonafHO9Gc/AmhkrdWX5EDtUt0DpedTW92b/sGelyMX4weSw83+sc5z8DgW96LXD1AruDH0DPsoS/Abtxd5nGfgC6ujv0KOdURcmljydCHRSy6O4LvoXdC4FGT71kHM/qvh92buw58dnoGL0gAFTGY6Rydl/SlJ43MUaBDvy1ZOi5vrb6iAmsXqzPQ79p2EG6/iL8yh4/BwC9F33jeSLcYfsotDldnYE/gdoDauorbDmDfz3Xr4Aq9hdvXa8hCj9L0BlObKfco9Gthcu+1rr0W9u3oui1Lgk5htdDW7IthZbk+Pw/HWQH0dvhIxsMJEMas5K3VV+RA7TrhQrbj9Obgvkboe/VsuqhDX5ujZ7Q78P8whp7Lfu05T8OoOz5yADPwNr3JAm/6qK7ykPM4gk19Vgi1lDgHwWbIVSa18dCzw5MoteH0Bp1+kgN+Yu81MPneL2DTJ98ApnDyn31SEXL6WJErW+i9FFoLrjnGSSH3/a7tXzd6TfMarl/eWn1FHtauEG9bdrSQbW5shSH3vUFXLfmCjoDvHB+f/4LPfbnhvAZXDndArfNwK/QWbtvGcYWbFWAPdQY8B75CngPe5vQeelzAeuid0zu3R6ef5JweocetzCl918DmVSd3o5mGTW8CpLFs/0cj2riOfdqfHmf7zZh/HVdS3YxZyVurr8gD2xXqGHr8Cf7RA94FvAVX7zfHe9TxpyYRfH3aF4Lf7dyh0MMtcHHnhKG2CicAytYVcHZuhpraCrgKAa9RMuABeg88yoGu6Y2HHtMbp0m9ndMj9L3WwAQH/YS7V7Pjf3rwpB2foLfwCZAEt6+H8Vp1/xqZkk8Udn5/DJXmZDNj8tbqK/LAnqr4wlStK7L4iLoXJnxKX6jmbxox+HivCjq+go8PP+LnOo6mHw6+8+JxDsYq+JrS1BICzCeAgR7BNnBTv/Y5BdC55D4LPufztE0pbj8Fdc965/LG6Q3043t9DhN6fwYbVp4c+JreKHgEpEraCiurLcxF0Xj1BPH/IpBMqoMlzZPXkT59TSzlrdVX5KE9eeltCAx9/t6bZa9vhF6X65PBwtfr6NbcixD8KXQpH58SwI7PP1CAP0rw0N/nB9gN2Jq7234CWmDXukLuS4XatLkvlAF6rscXpHAByy7v0xsnBF6hx/SGoL/7c/r21fjeq2D1ohP71hSGOj3CZh059AmYTtq242nJMkDLcerq6evoPHuMvLX6ihy4J6/g8HxfvYM+ucty1dLtcI99xvul+LwYfWwGfsMoOD6CHx5siuDjVubT8OSNb8fQRycAu7bWEVasI9RZ+FWuHcPN/Qw5arMDXOt2ESu7NuT06PCyiDXQe6d3QujH9lwFY3p+AsvmH/8JCDYs9ASl1FkIoiqAqYoBDtCGvhOT/m15a/UVeXhPVOHRf/jMS4Je7qdvMPfTb167F+6PfpJenw4WPyuGwL9oWkhzCHz+8bEbzx8BV//uSWjovszD7k8AKhngammdP0lxVK6PYKeS4U7BD8CzNLVRt8fdG4WeF7EMPQKvTj/2LoT+Uxh958ewdF7nwUfoA3h5uKtjoa4uHWDnMXsicX8Y0/7KMdKWt1ZfkYf4xOVTGleyy/Nj//RLJIcONMEjNy4wwLPsA1A5vw+O73d0LuStTFrYOvD595eeJscMsMfygLsxC7i6fySBXNseduPsWFenn+bTG3F7TG1cycAHpw/Qr/ZOP9ZBj8Ar9KPuWAnLXtzun0zcUcTQBwBtuWI4y0Ibzwl1nmf60ravpydE6JO3Vl+RA7jzYodP0xr91hQ+FWHIw/Ph6OEWeLhbFXh2evODZQq+fKka0xxyfNzDR/B1K9MtbLud2wDXn/uMg229OD0DbYH3UritTL9NZbRkVxfwVR5+B7urT8X7bsTlaX/eL2JDejPBQT/eQU9yTo/Qj0XgXXqj0I+8/SNYPGdr9ITiXDD0CqMtrWIwVQHwWnO5HU4a7qM6tVX2mJ+s05uUJgKen3j2ZN/ZMPGJpQnsVjH44SGoFnzO78OOzjj6lY7rzx3q0p0GmOaA846ewm7rRgw2KoU97kehw7PLc59PbTzwAr06vW5XGqdH4BV6cvo7Y+hH3rkC3pu1GfChWPK/phIx9AwlKYJSZcZlfgy+7QuK2+lr2DHuk7dWX5EHuXPSnZrsr5XIk85uu3BC8oPDVek4gS/PhlTw04Vt2MPXrcxnodflUx2EGwhu7/QO0ArsGfhVBLhxc1+XdgDfQC/5vAKfOv1EFELfm3P6cZTTr6o6/R0fwYjbl8PwHh/C65M2QGtzWxYmTW8QzBUCnkKqbdvHsu7NbQuwjtnj9ZgwPxwf/92fGPQIu6Y1nMMj9Bb4x10KMrwCeMdC6KuLW3zGuwf/gsnhVgXc0Tl/FPzjnMHwwF/nMtQWfFUEd+roicsr7Ab6GHasI/AZpxfo8cIUAe+cnhax5PSa3ugiNnb6EbevIOgbblsGc59dDW2tVaAQ+hzcaR+2SVqXeSwHtJYCrj9O5tu2H5d+PyZ1eWv1FTmgjycPvEJvHJ6fbva4W2gOTYDujAR4A70+9lofo4Hghx0dAf8PCP7TMKjbmzHsCrytG8B9HUEmmNMTwrVdP7u8A74POzy7fMbpnYLTh50bTm/Y6TW9QehH3RGcfrhz+mE9PiDoh/ZYCpP6r4SWphh8gt7DiGVr1FaQFXQ7xn2tMk/nyvEynwGPT4roNbRt6vLW6ityUNdWAjs6fAZ4bCO0ebCPJwaf3d7u4WuqwwvbsIfPOzq4h493ZQ7t/j4BjsAq5AF2htrDrhLoycU95GFM2ywGnkvj9M7lw41mkt4I9GG70kFPe/QJ9Oj0dyD0zum7O+i7L4Uh3ZfA5IeWQ+OR8A2sAD3Ca6EM8JMQyhqQpnPDCdGxIuhR0pa3Vl+Rh7uWAvBh4RqAx5QGU5uTBx4VL2xtmuMvXkU7OhP9VuYN5w13Of5gAipALtDTiYAgJ8AL2Bb6dFyBn2qd3tVDemNd3tx3I+mNvxqbOr2kNyMovRHo0ekR+luXwLO3LoKZT3wMTUdbCS7r9BV1Atzjyr2Gwl2BvIYIonqLPNw5VV0+AM95PD7GDx9uWgX55IXQ58DHZ8voXZm8sNU9fPw5+afJZTWlQXBrOr0FXeDGOoKtZdXhFXyGHkEn6OWKLDo9A+90d+L0JqdH6EcS9CvE6SW9EeifuWURPHPzezBz0Eo4cqiFflITQVs+jN3al4l7p22SQpzCLG1/DLZV1NeavJ6puzmCUX1FHvCcEPgaW5Py85oIYQ7cU1G6o6NpDt+VieDzPTr+4tUfGfw7L55AqQaCm0JObQVd+vSECJBbsbPberSQpQWsOD25PENv0xveueGrsbR743duGHqf02N6c1uAfvDN78LTN78D4/svhcMHmg14KgbWSvsCoLZPgE1UawxPLBqTk4MVXk8wqq/IA65idyfgo5RGgKdfEGfgb/nj+Cy0py6EXoTg08IW3d7s6PitTP66Ie7h41Zmz0smEaQ+pXHQKugIsNbTNh1DgFsFl2ch8HolVsFnl9d8vgr9587lwy0I5PR+58ZAr07v0pvBzumfvukdePLGt+CZ29/wsCF4WFqFsRhiO56VA5r+1RCwc6+RSk8Gwai+Ig97EKUzAn20cJWfzEfgb/rD2AysXaV0R0cdv3pzGjt+2NHB25F7XzGVYUaoUQI2w80wVwAX8Fnab6CnfB5lXV6g13weodctS+v0yUKW9+gF+tswvVkKQ2993+Xz4vS3KPRvwmPXvcywaVpj6hGQCazYtiDbtp1Ta9yPCeh2XDCqr8iBHoSwc1pDwJunEevC9brfNxCMeWC7Ugg9i8C3C1vdypSFLW9ljqE9fLwd+dFrFwbwDfC2L8CtgNu6AK+wU10c3i9gq06vOT0CH67GrvLA63YlLmQ99OT075v0xkHv0ht0+oHXv5yBMMCoY3oiKJyR7JjUVdoXlaTwN1D2tQWj+opasBPw4vAhrWGHV+DxJEAI85D+ELKOn+zo0Fam7uFrfj+W7sr8xzlPuQXhYgd3yNuroKcKzo5tLkMfircpdecmOD1emCLgaecGoQ/pTXB6Cz07fYODHlObobeh0y/20D9109sEPTm9AY5ANLIwVuoptB0ca+f6tvYlpWBUX5GDvpLSJA6Pe/FYnl7gVR2ALzs6tIdvv2B+/nAY+vA8eHnIdp/KkMt78BlsK3R0AtynMqnY5SvpjTg9Q483m4X0Rp1e0xtcxFJO3yNA34DQO6f36Q1Bn6Q3CqNKoaQxA3jS96Hp/3BYS2ZeTnIyyDgdZ9qCUX2Fh52eU5NuSzpVLj7h1uQguPOiGRkgT494Ycs7OgS/B9/clSmO3/2C8TBn3DJobW0HfFbm3Mf4KQcp5OriCrqto6bQwtXVqc/VXRkWsBb4GHpyeufwKkpveoY9eruQ9U6v0MtCFqF/4gYHfbeFATiF1JZaJ1XdPMxPTgxXeqdP+qlM+0y/YFRfgXcqMvgOeAd+vGi1W5MMPN5EdvuF07Iwnj6li1vZypRbFdTxcWE7Y/j70NYWLufv39HsU5wAe/XCk/Z5ST/Xg8uHnB63K6vpDbu8E6Y2xul5EcsXpoY7p+cLU+z0Q3Qhe7Pk9LJ786hZyHoZACNwrXJ9InL/jNJ+fu02cnodw1I+1vqKXn+b6KG3+bsCrzm8bk12/9PEBMAfSwJ9BL75UTMH/nOjPsj+T9n5ZSPMuN86vNbjtEZLBl3ruoBll4+cPoVeLkz5fJ6gtzs37PQIvXV6hj7k9Ar9Y24h62FUt/ZtU3fy6UsiC2w6xv18XPg7cRm9ruuTj7S+YsJTbxL0nMd3vBd/4ndN/tAK0DP4mObwxas35qzu8IkDq97YB9P7KvAMuNY96KK4Ty5IWeid208S6Ccq9Hcj9C6nJ5dH4YUp3b1xTi85vd+5Iehljx4XsrcsccAb6N1iFqFH0BBIK3sCWGj9uModi46dnhB+boP0I+D+74S5lXlO8nHWV+AtrHf8eYyD3aY19QG8lprjo9uj3piNwHf8I2A4/sHcPRHUOeCryjs9Q885fez0Iaf3To85PTr97Sa9uY3TG+/03W16866DHp1+YQBPpDAqhNqmPgE3OlEcsKS0n2T7sc5z7d+w49iWj7P+Yt/uQ/Bwj5lVl5c8Hh+oGiA70xTy+3uumAOrlm3r8NtHNo61/wuWzPqaYNfUhpRpI+TaVujDro0TpTap0yv0ktP3VKfnhSxCT+mNW8gOu904/a0o3b1ZBE/f7KCnLUu3kBXwYjGsVjiP5grgXtS2fVzPvy4LIQ/jeqyD3vXLR1mfcfRIM0wduoiuZOK98Ne6Re0N542kBWEetjND+q2re6+cC8ve2HjCD1FqPNQGCxu2VUE3ssCH1CZAjy6vOT0CX8npxenHEPRxTp9z+qEOekxv4i3Lt2CgLGQDkAnQKOPMPG7F/X7cnxDpMbZM61Zd/8MTpz3a29vhw7c2Q79rXqrAdSar799egI8Xbz3p/wGN37TB3Ee3mMWqyLerLm+hJ5d30JPL98KrsQw9urymN2NTp0/TG797s4ycPg+9TW9qQ5kHOAVX+0x/9K9CC3ygbSn5dV2d2nWe3qSxb/dRGNzrzSxgZ5ruvWourPl413Fz+OPFob0t8NxDmz3cFcgFfK1PjpzeLGQFeoSd9+gltZGF7Gjr9B56vAVBd28M9NGWJS5kHfQCnC9VUVvglDrDayDWOdFrmXZuLJ0n4/LxnR2Bv5k0a/hHx/1S94+pPlfNgy9Xfd1lH/zO9Y0w/T6bygjkDnCSAE/QE/gCveTztIhVp6edG3Z6dXkU7twg9CMpvZH7bjCn91uWDnqX4jx7i92yxJyeoUdwVR5QX2rd9Necz2PY5rFQ6jG+pGP4OO1XyUd39gS656dLt8GD1+WeWfPjqt/VL8LGL/Z0+Ye+bulBn9Yo7LqQjcBH4OXCFO/acDnBQ58sYmnnRqH/FEb1lIWs5vV4Pz1Cj3dZ4hVZSm8Wm4VscHoET6XwRX0eYCNp+zkqC7Mcp+PcZ+b7eWG+fGxnX2zbeACe7vWGg+3M2MF5+PoFsO6T3T/YB/7pa/szoIfUBqUuT9BLajOpF0Mf5fPmamzI6atXZMPFKUxv5IqsQu+c/imC/hWCTcFLYfWgSunnpX016rYdH9Mc9du58pGdndHU2Aozhqxw6c7cLIinSw9e9yLs+urUftzgeIG/cvjq8G0ObrzNIIDP6Y7A7sEX4J0mOujJ5Z089M7pKb0Rp89Bj/fe2PQGd3CedeAz9CG9eVygJyAJ+uDMFkQqM2O11Zzp07+hdfd6Q8M87ZeP7OwNTHc2r90H97vUIgfkD61HblwIB/Z07S/21Qr80YhXhm0PsEepTez0E30+r9Cr06PL8/MrNaePoNd9etq9iRey6PYIPerpm94jp1fou0rWtVl5+K0UdtQydxLIx3X2x66t38Azvd9yIJ6+dAeB37f7yGn9kI8caIV5g7Y6sMXtDfgEvINdL0rZnF6hHydOT+lNT17M1tqyjNMbuSorOzhPy7alhb4KbCdl3dr2R8I5xz8BUPJR/TSiuakN5o77GHpfkYe0K/X4ba/B19sP/Sgf8MHdLfD8gM0BfEx5jMtresN79GlOj09B4Lzepzd3roJRxukD9HyByqc3t6DTL4HBuld/4zsup3/VpzY5AI+nTqU87qRABw99Kfza5lI+pp9O4NXPpa9tdHn2D3cxa9Adr/9owGtsW30Ept0vKY5TSG3Y7W1OH6AXt/e7N3pF1jr9xw76lQ54BB+d/kNo6P4BbVl6p5e8np3+VQEup46cGcd4PAa6qmXR64Tj4tfnE2PFqLN49+Z48fWOwzCox6tZaE9WeH1gwE0L4fA3Xf9z8ycauJbZtuaog1zdPqQ37PKupHw+s3tDOb0TAW+hl716cvvg9A09PgzQmx2cp9xidlA3hD6GNoY0QJ0v47m2rfO0L3dcmMPa+EadfjG8qwKfrb5w+udZgE9GDX3fhpYaT+/9MQLB//ztAya1CRel+CYzcfq7HfROFnrO6fXiFKY3enGKoR+Oz7JU6Gmv3lyVxRRH9uoHdXvNQBdgtKWHVepUyrgFWcfDMWYsM6+ihiZobTy1q+BnRSD4q5fvhD5XnNq25sRB78NR8wzHMykWz9jFwFegl50bhN6VPr2hfD51es3p1enNDo5Lb/xevYX+pvfgcQe9QleBOOlX0LPjCrIFWup+3IzlXmfjmz9xl09j787D8Mw9uLuTh7qW8BrA2H8ugRa3SJaXOuOitbkdXhm5LeP0Ar0ogt7v3IjT3/Gpd3rM6T305PS8mB3i5BezBnqFMoXwePLzLei5tlNHr/2Bc/iNb7UB3pYtH0kJDXT9mQ3Loc+V87KAp8IcftzAMxt4jebGdpg7aEuAnvbqOZ/XFGe8bltSTh9Dz04vKc6dDnxayCL0ZjF7K0PP25aLadtyULfXDXwJxHQyVGGNAE7cO+2LZPul/tH4Zti3of2Ub+47qwN/PGzloq/ggeNczEKHb7j/XWhtqZ9/Mg/saoEZ/Tc66NXlWZzTK/C8bcnQsyLoMb1Bt5crswr9UExxEHq/V8+L2UE3BOgj1QLXaWmmD1Vxc2lnXX5YM6xb2AotR0/8B59/soHpzqAer2WBRz0/6uNO/bremRZ7v2qCafevF5cX6DG9kYUsQk9Ob8APOT07PQFPTu+gd25PTq8pDi5mHfic4ix20L9RBVLk4UZoOzgJaqnWybFibDMc/Kq9099GK2ECnzuDX+WbOXQ5DL33Hefs78DsUSth6/r9df1hbll1iB7RbaGP9+jlVoTI6TGvDzs4Ya9eUpzu7PaY4iD4Cv0TN77pYVw6pAqoFUKsyo1HcieJzgtlE2x6pw1aDhXYS2Rixct7XF4f0pvxqdN7l7eLWYE+ukAV8noLPS9oF8OTNzD0FUDdCYB1ajun17rvS8pK35AmKrXvo3HN8PXqOv0RtRKnL5bN2V0jvfnCu3zs9JrXf8I7OD0QfIXe/Wvoty4lxbl1iYP+LQ8tgmrhpbpxbN8v8/wcke3zr+WO/2J+83F/z7ZECYq21mPw7pSdAj2mN2Exy/v0aU7vhBepZK9+OEHPeX2U4tDWJbs9fk+2AquFWtoKdgA8zPF9ehyVTbBiXBMc2FRy9xInGPhrgLMGbAjAm7zepzh36lVZdnrUiFyKI9BzmmOhN7BG4DLUUb/t8+10vAm+fKUVWsvOTImTjcMHWmH2Ywx+cHl2+jE1oI/zeuP2Zs9+iHN7/CKJBzYHci3VGF85sRn2flly9xJdELs2HYXJ960l6HnnBp1+NUMfXaBi8HVBO5yuzOJ+feL2t7Lb43PqK/DqCVBD1VTGpTcNTbDmpRZobSzuXqILY8NHB+OcnuBnp+d76tXt8ZaE2O2Hidvjgtbm9oNvejcGWPS+qetY1Ge0rKERvtnWDviVSHmrJUp0XXy5/AClOQF65/Yut/cpDjm9QO+Eub1f0KLb0z32AXy8/8bCnAMb+7Rf69R2J8P6V13u3lRgL/EDBm79ffjSrhj6Sl6vTh8vaMntkzQH77/B/NxCfTzYUSvGNsGeteWuyBKnKTCNmD9kU0hvJK9H8CnFMW5P0Pcwbo8LWk1znPD+GwWZ4H42A7nr03HM3dcudLl7U9mGLHGaAx3/pYbNwelpMatuz+Cj0xP4DnoGX51e3J6g5/RGlQKPV2a1ju6+b0Nb2Xcv8eMFbmVO7b/Wuz3v4Di3v4PBJ+hJmOKw1O2909+yOIIcVQW/CdY5d285WmAvcQbE/l3NMKHPF8bt+ZYEcnyT4vhFrVyp1fwebzwjuJ9tZCnsUv9gdBPvzBR3L3EmxVerD8P43l+Qy4++i9OcKLevuL1A7xwfvyi+RIEn0Bn2JUOOwpqXmst3VkucufH54n0w9m5McRz0/q5Lhp6v0OpOTgAfUx383qyFHuvLnbvvW1+uqpaog3h3xnbJ7RF8m+KIEHxKc5xwYetSHbzr0qc0zuXx20ytzWXfvUSdBObdb07+imAn8GVB69McBV9cH91+Yu/PYMkzR+HD0Y2wf3Nx9xJ1GHhX5oIRWxh6BB5PAAf/SDwBBHq/f++c/rXH98KGt1qg6VBx9xJ1HEcOtsLMf64T8DW/VwW3n/3ol7Br9U/4MXolzq44eqgVZj26jnL8ALzTnfyrJa+O3gQtjSWdKXGWBX7zatuaw7Bg+EYH/Gcwrs/nsOi57bBn29FyR2SJEiVKlChRokSJEiVKlChRokSJEiVKlChRokSJEiVKlChRokSJEiVKlChRokSJEiVKlChRokSJEiVKlChRokSJEiVKlChRokSJEiVKlChRokSJEiVKlChRokSJEiVKlChR4icfP/vZ/wdWY4voDB5W9AAAAABJRU5ErkJggg==;" vertex="1" parent="B1SNh3dPXUooH1kQjsUc-1">
                    <mxGeometry x="221.63" y="10" width="76.75" height="80" as="geometry"/>
                </mxCell>
            </root>
        </mxGraphModel>
    </diagram>
    <diagram name="Page-4" id="XbvNKl1re59hWBRFyw8B">
        <mxGraphModel dx="355" dy="202" grid="1" gridSize="10" guides="1" tooltips="1" connect="1" arrows="1" fold="1" page="1" pageScale="1" pageWidth="850" pageHeight="1100" background="#ffffff" math="0" shadow="0">
            <root>
                <mxCell id="4fLyKoJd76VLfJpuO-5H-0"/>
                <mxCell id="4fLyKoJd76VLfJpuO-5H-1" parent="4fLyKoJd76VLfJpuO-5H-0"/>
                <mxCell id="4fLyKoJd76VLfJpuO-5H-7" value="IDE&lt;br&gt;&lt;font style=&quot;font-size: 16px;&quot;&gt;(Integrated Development Environment)&lt;br&gt;&lt;/font&gt;統合開発環境" style="rounded=0;whiteSpace=wrap;html=1;labelBackgroundColor=none;strokeColor=#000000;strokeWidth=2;fontSize=18;fontColor=#000000;fillColor=#CCCCCC;" vertex="1" parent="4fLyKoJd76VLfJpuO-5H-1">
                    <mxGeometry x="140" y="10" width="240" height="220" as="geometry"/>
                </mxCell>
                <mxCell id="4fLyKoJd76VLfJpuO-5H-2" value="&lt;span style=&quot;font-size: 16px;&quot;&gt;　 .vcxproj&lt;/span&gt;" style="rounded=0;whiteSpace=wrap;html=1;verticalAlign=top;horizontal=1;fontColor=#000000;labelBackgroundColor=none;fillColor=#FFFFFF;fontSize=18;strokeWidth=2;strokeColor=#000000;" vertex="1" parent="4fLyKoJd76VLfJpuO-5H-1">
                    <mxGeometry x="10" y="10" width="100" height="220" as="geometry"/>
                </mxCell>
                <mxCell id="4fLyKoJd76VLfJpuO-5H-4" value="" style="shape=image;verticalLabelPosition=bottom;labelBackgroundColor=default;verticalAlign=top;aspect=fixed;imageAspect=0;image=data:image/png,iVBORw0KGgoAAAANSUhEUgAAAEoAAABICAYAAABRGGN6AAAAAXNSR0IArs4c6QAAAARnQU1BAACxjwv8YQUAAAAJcEhZcwAAFiUAABYlAUlSJPAAAARKSURBVHhe7ZzPSxtBFMf92xQRVOhBD1XxVrQKVfCg4LXgsYJIDyq1baD1YKvgLxAUMSiESg9FbRERKtaDJua3v3Xab0zMzsyLO2lmN9llHnwOum/evvms2R13k1SZMOH/OD8/Z8VydXXFMPb+/p7cbsfNzU1mvKeCmogdRpQiRpQivhd1d3fHrq+vOdLpNDeJPz+PWCiwyZGMJ7mcy8vLx/HW34O99V/c2O9ftqQciLb2UHHi0JDYtMj20g82/uwtRzwSJ3MpVt4sc2M/vfhI5olkW8wHjmq58JQoKqmSMKIUMaIK8P75ODcxFSADY09/n5Db7cDBEPvI6smHmFBuPCNqfX2ddXd3u8Lk5CS3b+AZUXNzc6y6utoVhoaGuH0DI4qAEvXtc4hbIC69npcmtvkuyOVgUYmxsXCM+z2Y7pnixn5omZBysKgV+8jqyYeYUG5RIhV71TOiHsjqyYeYYEQ9kNWTDzHBiHogqycfYoKboij29/e5flTI9dzU1MQSiQSZo0Ludg0ZYrIRVSDEZCOqQIjJRlSBEJO3t7fZxMSEKwwODkqihoeHydynyNWpr69nY2NjZA5FPM5fFIoS5SY4+n19fZIstwiHw1w/FSsKnJycsP7+ftbzqsdR2tvbvS0K4IFCLBp3lJmvM94XBdIpZ2WVLOri4oJLBnt7e2xgYIDV1dVJxXXQ2dnJIpGItN9UMkVOUgfaRZ2enmYus2JR3eBKlUqluH2DpEOytL/0VlZWpIJOMTIyIj3wBIlEkpxsKZQkCo+gxUbFBSd+1klbW9tj7ZqaGjY9Pc3tP0c8niAn/L9o/4vCZKzFxO2lgnvl1vq1tbVsbW1Nzk3/kxXTJ8vzokBjYyPb2dmRcjPLhhg98WLxhSjQ3NzMDg8PpXxdywbfiAIdHR3s7OxMGqNj2eArUQD/zjixbHBVFG7dWrfZ0dvby40HdqIA7iDoXjb4UhSWDVNTU9JYQElQwZeiAJYNGxsb0nhKggquitra2spsVyUYDHLjgaoogJtr4nhKggqeO5nPzs5KdxqtWP8Rx8/ieEqCCp4TZQcWn7l9e1YUbr+EQiFtoJ61PvCFqGJP5nZQT4qNKAIjShHfiorFYpniukA9a33gC1FuYEQp4gtRq6urmeZ1gXrW+sCczAnMVU8R34oaHR1lLS0t2kA9a31gTuaKGFGKGFGK+EIUPuSDG2+6oD40ZCeq62XXf9Ha2srNCzgmqhKuetbxpWJEKeKYKNzGxeR0gXrW+sAXotzAThSe7OgiGo1ytX0lykmMKEWKErW4uMiJKieBQIDrzWmKEnV0dJT5BADVuJvgSfHu7i7Xm9M8KQobxQHLy8usoaGBnIAbQBL1ssOX1VBfXaILvFUzq0UOJIgNgePjY7awsJA5Z7nJ/Pw8Ozg4IHu6vb0tPBE3AkeKaqySwNu8s+2WNypd1pMvC7eD+hRDucEBLK+kqqq/5RNc8zNbUfMAAAAASUVORK5CYII=;" vertex="1" parent="4fLyKoJd76VLfJpuO-5H-1">
                    <mxGeometry x="18.999999999999996" y="18" width="20.56" height="20" as="geometry"/>
                </mxCell>
                <mxCell id="4fLyKoJd76VLfJpuO-5H-5" value="　 .exe" style="rounded=0;whiteSpace=wrap;html=1;labelBackgroundColor=none;strokeColor=#000000;strokeWidth=2;fontSize=18;fontColor=#000000;fillColor=#FFFFFF;verticalAlign=middle;" vertex="1" parent="4fLyKoJd76VLfJpuO-5H-1">
                    <mxGeometry x="410" y="10" width="100" height="220" as="geometry"/>
                </mxCell>
                <mxCell id="4fLyKoJd76VLfJpuO-5H-6" value="" style="shape=image;verticalLabelPosition=bottom;labelBackgroundColor=default;verticalAlign=top;aspect=fixed;imageAspect=0;image=data:image/png,iVBORw0KGgoAAAANSUhEUgAAABgAAAATCAYAAACKsM07AAAAAXNSR0IArs4c6QAAAARnQU1BAACxjwv8YQUAAAAJcEhZcwAAFiUAABYlAUlSJPAAAAGGSURBVEhLvY/JTsJQFIa7ghbaAsVHMC6Nr6UiTigigziACDguiDsTnkNxoA44oSgqoC58DDbHcy+lkuYmN8SUJl/apP/5zvmFbCYNkXDIFohbYP3oF13XmW8CXdBut21hsAuKxSIUCgX67gbGjn5g6OAb/Ptf4N9Ddj9B22mBtt0ELd8EX64Bo4ctM291cBtoFqGWb4Av+4G8gzfzBt7NOoU1S+A2oMKcIdzqkaZfwZN6Ac9GDdT1mpnvuwEVEtJ1Q4igUF17BnWVUAVlpcqcJXAb9F7ZkT6BkiTSR1ASSPwB5Ni9me+7ARGqDKEcvaO4I7fgXqowZwncBkoChXEUxgzhMgojFSp1ha/BtYgsXJl5K9wGMgpl40p3+MYUSqFLkOaROR0pM2cJ3Ab0ShT+SXUQZ8sgIeLMBYjT5+AMnpl5K9wGVIgXEmlXKAZROnXaYbKEnDBnCdwFI8kKFYp4pTOAwkAJHCh0TByDY7zDcFRnzhK4C/7LYBZkMyn6YQfELdj7CMIvsXI+UqGSIiEAAAAASUVORK5CYII=;" vertex="1" parent="4fLyKoJd76VLfJpuO-5H-1">
                    <mxGeometry x="425" y="110.5" width="24" height="19" as="geometry"/>
                </mxCell>
                <mxCell id="4fLyKoJd76VLfJpuO-5H-8" value="" style="shape=image;verticalLabelPosition=bottom;labelBackgroundColor=default;verticalAlign=top;aspect=fixed;imageAspect=0;image=data:image/png,iVBORw0KGgoAAAANSUhEUgAAAL0AAADFCAYAAAABpvOcAAAAAXNSR0IArs4c6QAAAARnQU1BAACxjwv8YQUAAAAJcEhZcwAAFiUAABYlAUlSJPAAADjnSURBVHhe7Z2Hu1RFtvbnr7rf3Dvx3nHUmTHr6AQdFSOioiCKiIojigGFQ84ZlCCKmBMgKIiKIiBZokQJJzOjzvpqpapVtasPBzgijbWe530q7j5t+9svq2rv3v2zEiVKlChRokSJEiVKlChRokSJEiVKlChRokSJEiVKlChRokSJEiVKlChRokSJEiVKlChRokSJEiVKlChRokSJEiVKlChRokSJEiVKlCjxg8TmtXthxINvQ79rX4Cel8yEuy+dBQNvfxmeG/UhHD3cAjKtRImzI1Yt2wZ9rprtYJ9FwKPuvHiGE5dP3fUa7NncCP869q8Cf4n6j/Wf7YaeztU97Jcg7LHuuHg6PHLtAti+5Bi0NRfwS9RxbFm3F/pciQ6vwKvDx8CTLpoKbwzaDZtmfw9Ht38Lx4rrl6i3OHywER65ZUEHDi+wE/DTCPpHr10I6yYCrJv8H9i56Ds41l7AL1En0dzUCgNvWxiAj2C3wCPs0+B2BzxrEqx10K+d8B/Sprnfw6Et/y7glzizo7WlHWY2fOiBZ+gt/NMZenL3GPruF0zwwHu5k2DPyu+gram4fokzMDAPf2XW5w5wu0tjnd6mMwq8Qj+FoF8z/j+wJgEf2+tnfQeNewv4Jc6gwO3GRQu+hJ6XpduS6u6yaEXYKa3RlGYq9LhwitNkuPWC8R54hV9FJ8Ck/8Cupd8X1y9xZsTq5Tug95+TvXi/eBWHR9iTPF6BJ+j/NC6A7qBXl09PgE3zvocjO74t4Jf48WLz2j3Q/zq80ppLa2oAb2BH3abQW8C1rifA+O9De/L3sPP9b4vrlzj9cehgE9z7lzlwFwHP0Ns8noF3wrTGODzm8AH4SXDbBZPglj+O9aB7lxfYozb1cblh9ndwdNe/ytXcEqcnmo62wlN3vS6w27QmuDw5veTxYdGKaY11eYR+ooN+DHyBbu5EJcFtyrRO+g/t6+9a9m3Z1y/xw8fge950Dv+cgR7lYE9z+cjh1eWnMOwCfHenmxV6BzaWegLUhD85AdbP+A4Of1X29Uv8AHHs2DF4YcIncPdlz1FaE6c2CfAp9JTLc2qjaQ0C3/1PEwh6BpihpxTGQJ3KnxQkPmbtxO/h6+Ul1y/RhYHAvzVvLdx1qQOelIfe5/ER9AF4gt4Bzy4/gaC/6Q+jPMBUGjePAZcxU8dxnYPlhjnfwZEdBfwSpxh48emLFTugz1VzPfQKu8/nrdMT9DaPrw189z+NJ+gJ3nEIr7g9wa3Oz0CrFHo7picAtZ3r73j/38X1S5x8fL39UAQ8pTYEfhV67/QmtfHAC/QK/K0OeNyuVOgV8kjuRCCl/cfVd/DlzO+hcU/Z4SlxgrF31xF4qNtLcPelzwvwDH3O6XO5PLu8Or24PDl8gP7G80cGWGsB3hH4OpY7QSZ9R3dutpf79Ut0JhqPtMDg3m8Q8Ay9kwc+QB+5vIXeAM9pjbi8EwM/Hm75Ywb6zgCe1FeP+672ca5/w+xvXa7/b8C1ifznlTiVwJy3pbEdGr9htTa31/0H295+DEY/shjuvmy2gd66fABf9+cZek5tUNbl7RalBR4vTN14/ogsrBHIOaA76rNjUl/jcn3c129vLa5/0oGu0XSoHd4Z9TW8OGAnzB+wA+Y/7PTITvh0wTfQ1lqfrtLedgzGP+aAR9gvMy5POT3m8+LycutwcPs4teH0hnN52p6UBayFHrcrb1DoEU4RAk/QK7hOehLYUuvpHHsc97tStG66c/3t6PoF/hOKY84JN684Cgse2wUvPLQjyEE/T+pvjdgDzUfqz/XfeWEd9P7z3Aj6qtPHwFuXD8Cz01uXt7k8Qf+HMXDjecM9kAqyVdwvYGcAD3PkOOxPXlPn4z08X73pcv3i+p0LBPmjeQfI1RV0Cz5Cr3r5iZ3QeLB+wF/+zhbofcWckNacCPSS1hD0ldTG5fN/UugZeExtEPobzh/uIbWAWimsuTFUgDued7zjvpz1LRzaXK7mdhj7t7U4B/86C3kK/LwHt1P5ylO74JvdrWf8B7t53T7oc6VzeAQ+yuU1tWFZ6DmtsdBblw9781mXd9Df9IfRcAM6fQdgBnVmjlVn538LO5d8C61HC/xRYDqz9eOj8HKaznjtpLICvWjhkzvhyP4z1/H37DwMD163AHo52FEW+gB/1ekReLzvRtMbTm2CyzP0nMsr9N7lXT6P0Hc7b1gV+rFY2r5a9ePJzKXXrK0Nc79z4Jd0h6LdLUjfn7ovglzBTvv8mAF+7kOslwfthMN72864DxUX5AO7v+qBz0Hvnd5Dz+CnTh/n8+zy6VblLeT0nNrghalu5w7LQojKnwyqfOrSuX818lr3XLlr82f7tjbD68/G6YyVAu7rXgK9qyPw8x7keS89vhP2bmk+Yz7UpsZWGHjrQgf6HJEAT9AH8LPAdxJ6u2sTXB6hHw03ne+gd07/+XFcmGVhroJdeQ2Cv/YJoPPj476Fwz/Ve3fwbP9qVSO8NJDTFtLDpu7kARdH93UqRa4+V8edsP7CgB2AJ5P8qR8t2lrbYcGUzwzwKfRVpw/QM/jq9gx8SG9wIRtuOzDQq8tHTt/gocvBj325/pPR52O/lTLUwxiXW1/57qcHfUtTO3zy0sEIcAu6lpEM7Ah2AD2MaT9rG+z4ovFH/XBfnfkF9L58bgK97Nwo9MnuTQQ7KTg9QX+hcXlSvIjVBSx+cQTz+QB9cGQCEktp+36UgJkrEWJ/LNZd6Y+VeVzHeQH4cCz3rZn4E/se7sFdLfD6kN0ObE5ZUkWgU99OVwrgrm1TGZQ9AWyJmv/IdtjyydHT/gHjRZkV726Be66oAk/QY1rjoedSnZ5THIXeAU/Q4yJW05uwiA378wh8kt6Qy4+mWxCu//1Qhk8AVBgDkGEsKqM5DHllvo5l+1E8Zv8mSj6qsz/WvXfYLTZld6ZGKuPrCLCWJKyHtgKuzo/1Oc7dFXjV/H/ugO2fn17HX7fqa+j71/lZ4FGR0xuXj9ObkM+z04f0pgeBb6GPbz1A4DW1QeivO3eIhy+AGNoMth1XSaqiSvv969jX+xY+y/Tp8fp68lGdvdHSdAyWP3eALzIlsNfO47EUwLG0YySFPoY81Zz+2yjH37j88Gn5oMPWZB54VcfQG6eX1MYuZKs7NxZ6dnlaxBroY0gZQJLvt6XW0/muLvDGY3oShH5s1/ybri0f19kZB3e2wJsN8e7MfAU9PQGcqnA7CcAKOcn1p4B79Q91hJ7+BXDzt376w6Y6+ASDzgN/Ik7PwAfoeX9ewddFLF+UCqkNQz8Crvt9Cr2oAqUZ832qeE5wc+6j18+9XuXvYvssdvqda5srYHvgUTmXJ4cPsGNJY1iX9AZhVvhTyFUEeyrXv37p4R/kSw+4GzXmn+9nIY8lqY1xentFtgp9ePIB7dyQy+dyege8gV63K284bwRcf+5QgjRKOxyMKbjVOsseF71GOtcDzmBrPT6GJR/b2RP4sNHFk/bC/AFVJycZ2BVqW/fQoxyovhSlgM91QId6Dnjpe4DnrZi7v0vvAMSLT2MeXZwBPJW5MGWgrzp92KpMoUfgeTGr6U28c5M6Pd5hiU6PoH02JgaPYaxCHkkcHOcGeNN2eO30b1AflnRChNeSj+7siEN72uDdsXuzqUsqhdzWI9hRro6g6oI1q8Tpq9Bvg9kOeK3jnE9ePtAlVwbxX42F01cncHekAD6XHUAvOX3k9H4Ry05f3a7UfJ53btDpr/v9sxGgqXJj2ocl12v9y8AK86r9cR8fKx9f/ceGD47AAnuxqQNVIEdJ+pJ181pK83eEuuL21fbs/l/BJwsPnPI9+UsWbsjuxdeWdXotBXqT2gSnT6/GMvTs9LxzU3V6Az06vd+9ETidGyukteTnZtpap9K+Vvq6xv39uPTJx1e/0XSkDRZN2wFT+qyGyX2+gOf7ba4A3ikR9CyEOD0BtO5dH4GPYHZyi1YscTzqN0LXRz3/wFewcsF+aG87OcffuHpPh1uTtRVgj9Ib/4CnOL3R3RtNb1Lo7R69v/3AO/1wSm8URHJsgVDdW2HUfi/bl46Jotfwfcm4fR3UmDq/23Lf7iPwYLdZ8Lf/fRz+/KsBcMUvH4Irf/UgPPDX5+G5fhvzro5ga4kQ67jUFXaFvCLj7j6fN26ObQu5yqY41CZ9BR88vw/aW0/sDs1tGw9A37+dBPCXY1kD+hrpTeT0fhGbQo8uz07P+byB/hxOb2oJIWVH/ncVUOrP1Gmem18Zx9eQfmmnbl/XTr/o1dVw/XlD4er/fQr+9lvUE/DX3zwOf/ntQLjsFw+6E6A/jL/7E+/4DHYqdu4OATeQ41wsEVod13o1jalKQWfxiYD1RRP3OMfvXKpz5JtmGHjrKwRvFuzjKoY+3b3BNCf+8bQAfez0YY+egecLUxH05w+HayWnt9BF0FLbAK/KjWnblav0eBozdSxF8RyRa8tHWV+xef1uuPmCYXD1/w120D8NfyfwHfS/HQR/+c1jcNWvB8Llv3jInRSDYdb97PgR/P4EUFfnPgVb4Vawfd3IwhzDH4Ou8pCL42t9tktzUO+O301fQJf/xGw0NbbAsH7vZEDurGQB2+E+vTo9gi/pTQS93mymTm/26P1Cli9M4UL2WkxvPHQJwCpt5/oVXN/meuVfh1R6jJ8X5srHWV/xzAPz4Zr/e4ahd4qhf5ygv/JX/3SO3x+uP/dJB9lXHmwPusBvQU7bJIRewXewpn0p3Ap02ia4se7yfgWdTwSsc/nepD3QeCh/Tz7u9ox77H3n0g7UU3D51Olz0Ne6rbhWTl91eoVenF7BVfA8jKKo/W9yaHJpPc7MTfu5nfRXXkf6ZEw+0vqK2y4dBdf87lkPPkH/v0866J/w0F/160ddnv8IXPI//aD7n4Y7QLcZ6KvAq6J+cXAV9uli1ZeJcsD7OqY1egL4koUL2+fd+OvDdlUcv72tHV6a/CmBSaB68FU5wHNSl4+h9+BXcvqc08fpDe/eiNNnoMctSw+fQMogplDGdQWU+rBujtV5vm7m2jYpc5x8rPUV//jdEALeuz2lOE9KXu/c/teY4jD0V/zyYbj4v/vCI/94Mbi8QK1lqhh8Tl+wHoFeA3pUBXzps5B70Km+DZ7vJ+1+W+H1hgA+3zW52UHJ+bYH3+lEgVd1aiEr+XztnD5dyAbob5SrsfgFEnb62sCuGs1tlR2vzuNS+6JxbCPgOE9A96+jbSkJonoLcnlx+sjtfxvcHnN7THEQ/Mt/+RBc8F+94NHrFnQMvKYxTgirHbMQd1Y+fdFS5doMu0LPsOtJgHpjxG5o/KYNlrz6Jdx9BQPIQDL4AX6GOA86qzft2qhOBHq94YyhD/v08W3FmNog+Az9KBLu0Wt6g6Dl5KE1IGfbGeGxEdS1jrH9UheM6ivI6Q34DD0vaFFpbn/FLwfQjs7FP78PBt/8TgRzLbdHIbi2XlXoV3dHgH2ftGOXt/UAOUndXvTKMzug3zVzBLhpBCCCqOB7cAVkC3peJ+70ufTG3laM4Mffi3XpjXN6m9N76BL4OqPIzfG45FgLv+2zbSscE4zqKxB6TnEs+Aj9097tw05OSHNwYYtbmVPvXdsh7KRcPp/0oRT2ap2hprq0EWQPuwUc68bpeZzbE3utcU79HEGH8HUEfh70WAw8gl8L+lnu9TWnV7dPodf0JlyYQuhR6vQIfTeE/pxnGLjOgp7Oy4Du+3NtKQl8WzfzBKP6Cg+9A/4fxu05t2fw/b49pjkG/Ev/5wG49Bf9YFqfdRHkdBI4OBV4n8cLxKi0jbJghz7Tj3VXItia1ijoBDfKLWArJ4Gpz7hvo4MQ3Z4dn3PtAH6An508BztLXV5VhZ726dMfR67h9KjoFgTzNUF2es7pP3WgefAUToTRpiWuxHl+DtVl3PbLsVF/TjKmebztF4zqKxR6BR+F0AfH190cm+Yo+APgkv/u5+Y9Bs/12+yhV9gRVOvyCrP2aRtLC7y2WdU6ApyW6ubPPeBKBR3LqL7Vvc+tMKPvJrjn8ufpm0vk+gi+c2MGNYCvKYyFPeT0DD2VAnwKPaU2mt7oDk4Effyl8HSfnpxe0htayJ7j0hsF1OnT0f+qQEhydQ+99ktJx5h2OseeLFRP5yR9glF9hYWenF7c/hpye9y7F/DNwtaCf/kvHnbg3+/AGUMAWle38OfaLDkB3LH+JIhAz8sDL7B7sH2dAadx1491q+n3boS+V80j8DXV4Rw8TnVy4FvovWpAH3L6ZJ/e32UZcnpy+hR6J1rInj8cxjz+qsD4rxheJws51tPxtG6B9nUr7e/oWCfBqL4ihp7Bt/CHVCfs32OqQ+BjquPcHu/Tuej/3Qv9/jLLwMyOzpCnoLMQWl+Xtgee2trHIGtd21UnVynwoZ7TjPs2wX1XziX44lRnJjm+BV9d3YKfAu+hz95wdoLQmy3Lm/44EiYOfgtaW9o8jAok1wVw6eeTQus8j+dqf+L2Ms+Pmb/Bx6j0dUIpGNVXVKFn8DXHv1rA1x0dcnzcv/9NvKODtypc9N/3wcPXvEAQVx09FgNt6yFv5xLhDtuRHnSVAzrqcxBrv7YRbGx70O8PwGt7+r0bnOM78NHx8WnCHnzj+HIBC8XpjZ4AAn26kPXQS4pD0PPrVnP6OL2Jc/pRrhwN04cvAryohtcZFL4ciNjmem5emKsKc2xb+/jE0PGc8BjBqL4iDz1K3B6VOj65fQ3wf34vjL3r4wh6vHoalQ5KPyaQ83joi/J6V4+Bxn7tY7DpBMBxA7nOj0DPaLpz/Hv/jNuZIdVh8NnxA/wBdg+8WcR66An81Omdy4vTo6q7Nwi93obA0CPwz41ZCvjDD/j/CqFnOK0sqLUUQK4tO5cV/lZuDpcEUb1FHvggD/7vguP/TcGXrUze0dE9/P5wyc/7wqg7V3iYc1KYLdgKO4KKpZ/n5MGmuri6E0KrsFtZqKltXH6WqwdtoXJm3y0w4OqFBGJlcSsgK/gEv3N8reegj9Ib2bKM0huBnsAn6PHBrfFC9u0XV0d3jKrT52HUei0FWD8ZZdvV8bgvnWfHzmLo1fVDqsNpjt/K/DVesQ07Opf+4gF3IjwEU/qsqcCuYpgZdGpTX+gn8Csyjk9CoFkebqkfTwh6WuIJMOCaVwlEdfyeGceP3F6dXuCPoY+3LC30DH7miqyD/tYLx8Hc8R8APgFa/jdRpOlNNSXhNkMdz63dtgpj8WvEY9rGOfLW6ityoFeFKY6mOdbxGXxMc2LwcUenH1xzziCYef8mBlpgZ+AD+L6PbiALcGOpbu7rDs4q9MHtFehc7h7awfUZdIbdauB1bzoYzXamgi9AM+SsAD+O1c7pCfiM04ecnh/RffslE2H22A+yMCn0n4w65sFTCGtBiv08FtrxnBTm0H+8uTgub62+Ig95XlF+b/bwFXy/o4Pg/wpvTrsf7vv7RJg3wOT3ArFNXxTsUA/zCG7pVyGwAXwUthPwcxLItR2Aj8HHVCcPfkh1CH4BX53ej3Vm9yZKb3ghe/vFk+DDdzZUHF4jOL0BT+BTQGNQUQyqHadjzHh8LLd13M/HUuZZyVurr8jBXUs+v48Wtnq7QrywpT185/hP9J0BGz88YqAX2RMgEcGtMPv2Vh4zoCO4tdoKdiSBPg++Fef4j177OvS4CFMdBB+3NIPjs7ML+A76XlRyG/sjp/e3IdRyegf8JZMJePnfko0c9AzpMQ+lFY7bUufpsdTn5wjsdlxKW9dxbctbq6/Iwd2xEvCji1cp+ANgcP/Z9IiOlS/td9Aq7CoLe8jj1bVJ1JbSCUFVqHNw6xwSwh0BviWq54FnIfQz+m6GJ254l+Bkx3fg0+IWwWeoPfwEvDg9yjg9gS/pjT7H0j4CpOdlU+GLlduPCxBCH1IbBtCCaqGm/mROkJwk8jrRfKvoZHJ11xf+Do/JW6uvyIPdkcI9OgF8XdyGHR0FH6HHv4PPlVk0aQ/B7YGP3N5AjzKgewmwNCbjCjFJAPdOTlCrGHiFWscQbu0L4n7VoG7vEKQIq72AxemOk4Gff0qTSw+83b3xtxbzQvauP0+DT5du6RQ8DL0RAYiycFoxqLkxDzrVg8vXmm9BR+nJIm+tviIPdmeUS3UE/N8MctAz+M/0n+M/GPyf9vqw3QSrB14WsNQn4Fuofd0Bq22ENy1V2CboUa5NdSltP/cx5Bb8maatddSw25Ybx0fwpxP0Hn46ARR8Tm+4ZOgZ+Di9uePSqbD83Y2dBidAn4fcgoxzPpZ5oT8GN5LOieZq3fZJv8yTt1ZfkQe6MxLoPfgMvQUfHf/ZB+dFHww+Wwd/PhPh9A7v6gS0QB3cnuH0YyKC1sEbgA997ODs1inw2B/GVbYdHB7bFvqZLtUZd9dnDljn+Bc68BV+SXdQHnwDPDq+5vM2p7/z0mmwdf3eE4JG05sqkNynkMfj+bmx7Dwt7VxpRycVt+Wt1Vfkge6sErenNMfch+/AT6HHOLirFeYNEFd3qoCvwj4SAh67uq2THLCVUhTA7gh4FgFu6wZ6zPGH3LrMwc7pCQLM0DuoBfyel0rpwNeTAaU5PR5z39XPw6Y1X58wMGl6EyBPxSfAxyMZ2vhkCOJ+VfX4uN/Olf6fJvSoBHyf5jD4Qx6an/1g8Cd15j0S0hl0d4SV21J68AVk7Nc6Am36oz6BGes5sNXRtV0LcipNP0KP/Q0u1SHwnRBi3tkR10fofc6vkp0bpweunwu7tn1zUrCo0xPQAl4ELjmxhTw9McKxfELYOXZemBvXQ0l19xry1uor8iCfmOI0J97RGfrwizU/mHVLDvGXPhR0Aty0BXqF2tZJBHTc1j6FHfsD+FoGyLWsiqGfcZ+Urh20iXJ82oGRBa7u7FDKQ+mMiP4VYOgfueVF+ObAyf+aSprTE7wqB6CWdjydW+t4hTieJ3OjkynoJ7iQjaXQK/h6V2ZH0GOsfHG//+IHAool5fRYN9BHwDt4SbYtpQLPdYYax7RuFUNuxY6OdXV3BT7UN8HI21eS4/sFrnd9cX4HPZ8E0+Ghbi/A/j2n9mMSCL2CqUAqpFaVseiYFHZp48micON8cwL4cXusjMtbq6/IAXxyUrc3ju/Ab3j4pQ4/mGNtx+Cj+ftDKmNKhNVDL+1IAruCbsX9VdB5nMsq7AK8Gw/go7TNJUKPd2ZOv3cTTOz1hYPagX/RZHF9FMOvwD9w3Rw4uO/Ufz3FQm/BIxilvnJkezTmxyt9Us+8RiTsM/3+9WVM3lp9RR7gk5WAL66P4DcMWHDcDwafS/Pu+K8FeARdlAM9FQKeBb0KvYLt675PgbYK0JOzuzTHiqAn8DfCqDs+gV6XzQT8Qoi6fg/c4XHgY0pz+GBTl8BB0BvgPkYAFUqVjtOcGNCons43fQi2d3w7ntZdKW+tviIP78lLoacTwIHfGegx8DHb8wfJLo5NZVIJ5OryDLyCzfCHtu13INt6BnKbvmAfpzGmn/J7Lj30922EaQ78cXd9DnddNt2Dj64/sMdLcPRw1wCP4Z0+lYKY1p28gzuRS2PdwmtPHNMfObrOTUsneWv1FTlwT13B7YcNeLnTH8yhva3w4mPbCOYIfIHZQu/bIobZtgPgechRAW5tU93ND7Ab+NHlte5yegQenR6hn3bfBk51LplKd0wOe/CNmjeOnWx0CL0BMR3zsGfGarYz9dwJJG+tviIPbVeI3X7YI52HHmP3xkaC1AJNioBWxU6uJYIaxlzb1Fkun8d+gZrmGLgj0LUtaQ31OYf30IvTT7t3A2lsz89g5ENvQ9PRli4HIsrpE/i0ngU8Ati9Ri24E0WvVWOevLX6ijywXSUH/Qk4PTrjzNGLoM8V0wlEf6VVQNe67VOQuR3ADvl6KoY4lYWcwcZ5oR7GNK0J0E8l4B34fTbA1D7rYfajG2H/zq5LazQQegbbgOdgxDYBasBcOaJ6Amhb56evFcar82y/lby1+oo8rF2n4Y8s7NQHg7/s9+a8z6D7RWPdcYPhwb+/QPBqmkPQixT2FHQVQmzrdALYuoNXywCzgTyVuPx0Kg304vAMPQK/AaY46Kf0+RLmDNwEO9d37e/d6kLWQyhgs7htTwLf7+tG0bEonafHO9Gc/AmhkrdWX5EDtUt0DpedTW92b/sGelyMX4weSw83+sc5z8DgW96LXD1AruDH0DPsoS/Abtxd5nGfgC6ujv0KOdURcmljydCHRSy6O4LvoXdC4FGT71kHM/qvh92buw58dnoGL0gAFTGY6Rydl/SlJ43MUaBDvy1ZOi5vrb6iAmsXqzPQ79p2EG6/iL8yh4/BwC9F33jeSLcYfsotDldnYE/gdoDauorbDmDfz3Xr4Aq9hdvXa8hCj9L0BlObKfco9Gthcu+1rr0W9u3oui1Lgk5htdDW7IthZbk+Pw/HWQH0dvhIxsMJEMas5K3VV+RA7TrhQrbj9Obgvkboe/VsuqhDX5ujZ7Q78P8whp7Lfu05T8OoOz5yADPwNr3JAm/6qK7ykPM4gk19Vgi1lDgHwWbIVSa18dCzw5MoteH0Bp1+kgN+Yu81MPneL2DTJ98ApnDyn31SEXL6WJErW+i9FFoLrjnGSSH3/a7tXzd6TfMarl/eWn1FHtauEG9bdrSQbW5shSH3vUFXLfmCjoDvHB+f/4LPfbnhvAZXDndArfNwK/QWbtvGcYWbFWAPdQY8B75CngPe5vQeelzAeuid0zu3R6ef5JweocetzCl918DmVSd3o5mGTW8CpLFs/0cj2riOfdqfHmf7zZh/HVdS3YxZyVurr8gD2xXqGHr8Cf7RA94FvAVX7zfHe9TxpyYRfH3aF4Lf7dyh0MMtcHHnhKG2CicAytYVcHZuhpraCrgKAa9RMuABeg88yoGu6Y2HHtMbp0m9ndMj9L3WwAQH/YS7V7Pjf3rwpB2foLfwCZAEt6+H8Vp1/xqZkk8Udn5/DJXmZDNj8tbqK/LAnqr4wlStK7L4iLoXJnxKX6jmbxox+HivCjq+go8PP+LnOo6mHw6+8+JxDsYq+JrS1BICzCeAgR7BNnBTv/Y5BdC55D4LPufztE0pbj8Fdc965/LG6Q3043t9DhN6fwYbVp4c+JreKHgEpEraCiurLcxF0Xj1BPH/IpBMqoMlzZPXkT59TSzlrdVX5KE9eeltCAx9/t6bZa9vhF6X65PBwtfr6NbcixD8KXQpH58SwI7PP1CAP0rw0N/nB9gN2Jq7234CWmDXukLuS4XatLkvlAF6rscXpHAByy7v0xsnBF6hx/SGoL/7c/r21fjeq2D1ohP71hSGOj3CZh059AmYTtq242nJMkDLcerq6evoPHuMvLX6ihy4J6/g8HxfvYM+ucty1dLtcI99xvul+LwYfWwGfsMoOD6CHx5siuDjVubT8OSNb8fQRycAu7bWEVasI9RZ+FWuHcPN/Qw5arMDXOt2ESu7NuT06PCyiDXQe6d3QujH9lwFY3p+AsvmH/8JCDYs9ASl1FkIoiqAqYoBDtCGvhOT/m15a/UVeXhPVOHRf/jMS4Je7qdvMPfTb167F+6PfpJenw4WPyuGwL9oWkhzCHz+8bEbzx8BV//uSWjovszD7k8AKhngammdP0lxVK6PYKeS4U7BD8CzNLVRt8fdG4WeF7EMPQKvTj/2LoT+Uxh958ewdF7nwUfoA3h5uKtjoa4uHWDnMXsicX8Y0/7KMdKWt1ZfkYf4xOVTGleyy/Nj//RLJIcONMEjNy4wwLPsA1A5vw+O73d0LuStTFrYOvD595eeJscMsMfygLsxC7i6fySBXNseduPsWFenn+bTG3F7TG1cycAHpw/Qr/ZOP9ZBj8Ar9KPuWAnLXtzun0zcUcTQBwBtuWI4y0Ibzwl1nmf60ravpydE6JO3Vl+RA7jzYodP0xr91hQ+FWHIw/Ph6OEWeLhbFXh2evODZQq+fKka0xxyfNzDR/B1K9MtbLud2wDXn/uMg229OD0DbYH3UritTL9NZbRkVxfwVR5+B7urT8X7bsTlaX/eL2JDejPBQT/eQU9yTo/Qj0XgXXqj0I+8/SNYPGdr9ITiXDD0CqMtrWIwVQHwWnO5HU4a7qM6tVX2mJ+s05uUJgKen3j2ZN/ZMPGJpQnsVjH44SGoFnzO78OOzjj6lY7rzx3q0p0GmOaA846ewm7rRgw2KoU97kehw7PLc59PbTzwAr06vW5XGqdH4BV6cvo7Y+hH3rkC3pu1GfChWPK/phIx9AwlKYJSZcZlfgy+7QuK2+lr2DHuk7dWX5EHuXPSnZrsr5XIk85uu3BC8oPDVek4gS/PhlTw04Vt2MPXrcxnodflUx2EGwhu7/QO0ArsGfhVBLhxc1+XdgDfQC/5vAKfOv1EFELfm3P6cZTTr6o6/R0fwYjbl8PwHh/C65M2QGtzWxYmTW8QzBUCnkKqbdvHsu7NbQuwjtnj9ZgwPxwf/92fGPQIu6Y1nMMj9Bb4x10KMrwCeMdC6KuLW3zGuwf/gsnhVgXc0Tl/FPzjnMHwwF/nMtQWfFUEd+roicsr7Ab6GHasI/AZpxfo8cIUAe+cnhax5PSa3ugiNnb6EbevIOgbblsGc59dDW2tVaAQ+hzcaR+2SVqXeSwHtJYCrj9O5tu2H5d+PyZ1eWv1FTmgjycPvEJvHJ6fbva4W2gOTYDujAR4A70+9lofo4Hghx0dAf8PCP7TMKjbmzHsCrytG8B9HUEmmNMTwrVdP7u8A74POzy7fMbpnYLTh50bTm/Y6TW9QehH3RGcfrhz+mE9PiDoh/ZYCpP6r4SWphh8gt7DiGVr1FaQFXQ7xn2tMk/nyvEynwGPT4roNbRt6vLW6ityUNdWAjs6fAZ4bCO0ebCPJwaf3d7u4WuqwwvbsIfPOzq4h493ZQ7t/j4BjsAq5AF2htrDrhLoycU95GFM2ywGnkvj9M7lw41mkt4I9GG70kFPe/QJ9Oj0dyD0zum7O+i7L4Uh3ZfA5IeWQ+OR8A2sAD3Ca6EM8JMQyhqQpnPDCdGxIuhR0pa3Vl+Rh7uWAvBh4RqAx5QGU5uTBx4VL2xtmuMvXkU7OhP9VuYN5w13Of5gAipALtDTiYAgJ8AL2Bb6dFyBn2qd3tVDemNd3tx3I+mNvxqbOr2kNyMovRHo0ekR+luXwLO3LoKZT3wMTUdbCS7r9BV1Atzjyr2Gwl2BvIYIonqLPNw5VV0+AM95PD7GDx9uWgX55IXQ58DHZ8voXZm8sNU9fPw5+afJZTWlQXBrOr0FXeDGOoKtZdXhFXyGHkEn6OWKLDo9A+90d+L0JqdH6EcS9CvE6SW9EeifuWURPHPzezBz0Eo4cqiFflITQVs+jN3al4l7p22SQpzCLG1/DLZV1NeavJ6puzmCUX1FHvCcEPgaW5Py85oIYQ7cU1G6o6NpDt+VieDzPTr+4tUfGfw7L55AqQaCm0JObQVd+vSECJBbsbPberSQpQWsOD25PENv0xveueGrsbR743duGHqf02N6c1uAfvDN78LTN78D4/svhcMHmg14KgbWSvsCoLZPgE1UawxPLBqTk4MVXk8wqq/IA65idyfgo5RGgKdfEGfgb/nj+Cy0py6EXoTg08IW3d7s6PitTP66Ie7h41Zmz0smEaQ+pXHQKugIsNbTNh1DgFsFl2ch8HolVsFnl9d8vgr9587lwy0I5PR+58ZAr07v0pvBzumfvukdePLGt+CZ29/wsCF4WFqFsRhiO56VA5r+1RCwc6+RSk8Gwai+Ig97EKUzAn20cJWfzEfgb/rD2AysXaV0R0cdv3pzGjt+2NHB25F7XzGVYUaoUQI2w80wVwAX8Fnab6CnfB5lXV6g13weodctS+v0yUKW9+gF+tswvVkKQ2993+Xz4vS3KPRvwmPXvcywaVpj6hGQCazYtiDbtp1Ta9yPCeh2XDCqr8iBHoSwc1pDwJunEevC9brfNxCMeWC7Ugg9i8C3C1vdypSFLW9ljqE9fLwd+dFrFwbwDfC2L8CtgNu6AK+wU10c3i9gq06vOT0CH67GrvLA63YlLmQ99OT075v0xkHv0ht0+oHXv5yBMMCoY3oiKJyR7JjUVdoXlaTwN1D2tQWj+opasBPw4vAhrWGHV+DxJEAI85D+ELKOn+zo0Fam7uFrfj+W7sr8xzlPuQXhYgd3yNuroKcKzo5tLkMfircpdecmOD1emCLgaecGoQ/pTXB6Cz07fYODHlObobeh0y/20D9109sEPTm9AY5ANLIwVuoptB0ca+f6tvYlpWBUX5GDvpLSJA6Pe/FYnl7gVR2ALzs6tIdvv2B+/nAY+vA8eHnIdp/KkMt78BlsK3R0AtynMqnY5SvpjTg9Q483m4X0Rp1e0xtcxFJO3yNA34DQO6f36Q1Bn6Q3CqNKoaQxA3jS96Hp/3BYS2ZeTnIyyDgdZ9qCUX2Fh52eU5NuSzpVLj7h1uQguPOiGRkgT494Ycs7OgS/B9/clSmO3/2C8TBn3DJobW0HfFbm3Mf4KQcp5OriCrqto6bQwtXVqc/VXRkWsBb4GHpyeufwKkpveoY9eruQ9U6v0MtCFqF/4gYHfbeFATiF1JZaJ1XdPMxPTgxXeqdP+qlM+0y/YFRfgXcqMvgOeAd+vGi1W5MMPN5EdvuF07Iwnj6li1vZypRbFdTxcWE7Y/j70NYWLufv39HsU5wAe/XCk/Z5ST/Xg8uHnB63K6vpDbu8E6Y2xul5EcsXpoY7p+cLU+z0Q3Qhe7Pk9LJ786hZyHoZACNwrXJ9InL/jNJ+fu02cnodw1I+1vqKXn+b6KG3+bsCrzm8bk12/9PEBMAfSwJ9BL75UTMH/nOjPsj+T9n5ZSPMuN86vNbjtEZLBl3ruoBll4+cPoVeLkz5fJ6gtzs37PQIvXV6hj7k9Ar9Y24h62FUt/ZtU3fy6UsiC2w6xv18XPg7cRm9ruuTj7S+YsJTbxL0nMd3vBd/4ndN/tAK0DP4mObwxas35qzu8IkDq97YB9P7KvAMuNY96KK4Ty5IWeid208S6Ccq9Hcj9C6nJ5dH4YUp3b1xTi85vd+5Iehljx4XsrcsccAb6N1iFqFH0BBIK3sCWGj9uModi46dnhB+boP0I+D+74S5lXlO8nHWV+AtrHf8eYyD3aY19QG8lprjo9uj3piNwHf8I2A4/sHcPRHUOeCryjs9Q885fez0Iaf3To85PTr97Sa9uY3TG+/03W16866DHp1+YQBPpDAqhNqmPgE3OlEcsKS0n2T7sc5z7d+w49iWj7P+Yt/uQ/Bwj5lVl5c8Hh+oGiA70xTy+3uumAOrlm3r8NtHNo61/wuWzPqaYNfUhpRpI+TaVujDro0TpTap0yv0ktP3VKfnhSxCT+mNW8gOu904/a0o3b1ZBE/f7KCnLUu3kBXwYjGsVjiP5grgXtS2fVzPvy4LIQ/jeqyD3vXLR1mfcfRIM0wduoiuZOK98Ne6Re0N542kBWEetjND+q2re6+cC8ve2HjCD1FqPNQGCxu2VUE3ssCH1CZAjy6vOT0CX8npxenHEPRxTp9z+qEOekxv4i3Lt2CgLGQDkAnQKOPMPG7F/X7cnxDpMbZM61Zd/8MTpz3a29vhw7c2Q79rXqrAdSar799egI8Xbz3p/wGN37TB3Ee3mMWqyLerLm+hJ5d30JPL98KrsQw9urymN2NTp0/TG797s4ycPg+9TW9qQ5kHOAVX+0x/9K9CC3ygbSn5dV2d2nWe3qSxb/dRGNzrzSxgZ5ruvWourPl413Fz+OPFob0t8NxDmz3cFcgFfK1PjpzeLGQFeoSd9+gltZGF7Gjr9B56vAVBd28M9NGWJS5kHfQCnC9VUVvglDrDayDWOdFrmXZuLJ0n4/LxnR2Bv5k0a/hHx/1S94+pPlfNgy9Xfd1lH/zO9Y0w/T6bygjkDnCSAE/QE/gCveTztIhVp6edG3Z6dXkU7twg9CMpvZH7bjCn91uWDnqX4jx7i92yxJyeoUdwVR5QX2rd9Necz2PY5rFQ6jG+pGP4OO1XyUd39gS656dLt8GD1+WeWfPjqt/VL8LGL/Z0+Ye+bulBn9Yo7LqQjcBH4OXCFO/acDnBQ58sYmnnRqH/FEb1lIWs5vV4Pz1Cj3dZ4hVZSm8Wm4VscHoET6XwRX0eYCNp+zkqC7Mcp+PcZ+b7eWG+fGxnX2zbeACe7vWGg+3M2MF5+PoFsO6T3T/YB/7pa/szoIfUBqUuT9BLajOpF0Mf5fPmamzI6atXZMPFKUxv5IqsQu+c/imC/hWCTcFLYfWgSunnpX016rYdH9Mc9du58pGdndHU2Aozhqxw6c7cLIinSw9e9yLs+urUftzgeIG/cvjq8G0ObrzNIIDP6Y7A7sEX4J0mOujJ5Z089M7pKb0Rp89Bj/fe2PQGd3CedeAz9CG9eVygJyAJ+uDMFkQqM2O11Zzp07+hdfd6Q8M87ZeP7OwNTHc2r90H97vUIgfkD61HblwIB/Z07S/21Qr80YhXhm0PsEepTez0E30+r9Cr06PL8/MrNaePoNd9etq9iRey6PYIPerpm94jp1fou0rWtVl5+K0UdtQydxLIx3X2x66t38Azvd9yIJ6+dAeB37f7yGn9kI8caIV5g7Y6sMXtDfgEvINdL0rZnF6hHydOT+lNT17M1tqyjNMbuSorOzhPy7alhb4KbCdl3dr2R8I5xz8BUPJR/TSiuakN5o77GHpfkYe0K/X4ba/B19sP/Sgf8MHdLfD8gM0BfEx5jMtresN79GlOj09B4Lzepzd3roJRxukD9HyByqc3t6DTL4HBuld/4zsup3/VpzY5AI+nTqU87qRABw99Kfza5lI+pp9O4NXPpa9tdHn2D3cxa9Adr/9owGtsW30Ept0vKY5TSG3Y7W1OH6AXt/e7N3pF1jr9xw76lQ54BB+d/kNo6P4BbVl6p5e8np3+VQEup46cGcd4PAa6qmXR64Tj4tfnE2PFqLN49+Z48fWOwzCox6tZaE9WeH1gwE0L4fA3Xf9z8ycauJbZtuaog1zdPqQ37PKupHw+s3tDOb0TAW+hl716cvvg9A09PgzQmx2cp9xidlA3hD6GNoY0QJ0v47m2rfO0L3dcmMPa+EadfjG8qwKfrb5w+udZgE9GDX3fhpYaT+/9MQLB//ztAya1CRel+CYzcfq7HfROFnrO6fXiFKY3enGKoR+Oz7JU6Gmv3lyVxRRH9uoHdXvNQBdgtKWHVepUyrgFWcfDMWYsM6+ihiZobTy1q+BnRSD4q5fvhD5XnNq25sRB78NR8wzHMykWz9jFwFegl50bhN6VPr2hfD51es3p1enNDo5Lb/xevYX+pvfgcQe9QleBOOlX0LPjCrIFWup+3IzlXmfjmz9xl09j787D8Mw9uLuTh7qW8BrA2H8ugRa3SJaXOuOitbkdXhm5LeP0Ar0ogt7v3IjT3/Gpd3rM6T305PS8mB3i5BezBnqFMoXwePLzLei5tlNHr/2Bc/iNb7UB3pYtH0kJDXT9mQ3Loc+V87KAp8IcftzAMxt4jebGdpg7aEuAnvbqOZ/XFGe8bltSTh9Dz04vKc6dDnxayCL0ZjF7K0PP25aLadtyULfXDXwJxHQyVGGNAE7cO+2LZPul/tH4Zti3of2Ub+47qwN/PGzloq/ggeNczEKHb7j/XWhtqZ9/Mg/saoEZ/Tc66NXlWZzTK/C8bcnQsyLoMb1Bt5crswr9UExxEHq/V8+L2UE3BOgj1QLXaWmmD1Vxc2lnXX5YM6xb2AotR0/8B59/soHpzqAer2WBRz0/6uNO/bremRZ7v2qCafevF5cX6DG9kYUsQk9Ob8APOT07PQFPTu+gd25PTq8pDi5mHfic4ix20L9RBVLk4UZoOzgJaqnWybFibDMc/Kq9099GK2ECnzuDX+WbOXQ5DL33Hefs78DsUSth6/r9df1hbll1iB7RbaGP9+jlVoTI6TGvDzs4Ya9eUpzu7PaY4iD4Cv0TN77pYVw6pAqoFUKsyo1HcieJzgtlE2x6pw1aDhXYS2Rixct7XF4f0pvxqdN7l7eLWYE+ukAV8noLPS9oF8OTNzD0FUDdCYB1ajun17rvS8pK35AmKrXvo3HN8PXqOv0RtRKnL5bN2V0jvfnCu3zs9JrXf8I7OD0QfIXe/Wvoty4lxbl1iYP+LQ8tgmrhpbpxbN8v8/wcke3zr+WO/2J+83F/z7ZECYq21mPw7pSdAj2mN2Exy/v0aU7vhBepZK9+OEHPeX2U4tDWJbs9fk+2AquFWtoKdgA8zPF9ehyVTbBiXBMc2FRy9xInGPhrgLMGbAjAm7zepzh36lVZdnrUiFyKI9BzmmOhN7BG4DLUUb/t8+10vAm+fKUVWsvOTImTjcMHWmH2Ywx+cHl2+jE1oI/zeuP2Zs9+iHN7/CKJBzYHci3VGF85sRn2flly9xJdELs2HYXJ960l6HnnBp1+NUMfXaBi8HVBO5yuzOJ+feL2t7Lb43PqK/DqCVBD1VTGpTcNTbDmpRZobSzuXqILY8NHB+OcnuBnp+d76tXt8ZaE2O2Hidvjgtbm9oNvejcGWPS+qetY1Ge0rKERvtnWDviVSHmrJUp0XXy5/AClOQF65/Yut/cpDjm9QO+Eub1f0KLb0z32AXy8/8bCnAMb+7Rf69R2J8P6V13u3lRgL/EDBm79ffjSrhj6Sl6vTh8vaMntkzQH77/B/NxCfTzYUSvGNsGeteWuyBKnKTCNmD9kU0hvJK9H8CnFMW5P0Pcwbo8LWk1znPD+GwWZ4H42A7nr03HM3dcudLl7U9mGLHGaAx3/pYbNwelpMatuz+Cj0xP4DnoGX51e3J6g5/RGlQKPV2a1ju6+b0Nb2Xcv8eMFbmVO7b/Wuz3v4Di3v4PBJ+hJmOKw1O2909+yOIIcVQW/CdY5d285WmAvcQbE/l3NMKHPF8bt+ZYEcnyT4vhFrVyp1fwebzwjuJ9tZCnsUv9gdBPvzBR3L3EmxVerD8P43l+Qy4++i9OcKLevuL1A7xwfvyi+RIEn0Bn2JUOOwpqXmst3VkucufH54n0w9m5McRz0/q5Lhp6v0OpOTgAfUx383qyFHuvLnbvvW1+uqpaog3h3xnbJ7RF8m+KIEHxKc5xwYetSHbzr0qc0zuXx20ytzWXfvUSdBObdb07+imAn8GVB69McBV9cH91+Yu/PYMkzR+HD0Y2wf3Nx9xJ1GHhX5oIRWxh6BB5PAAf/SDwBBHq/f++c/rXH98KGt1qg6VBx9xJ1HEcOtsLMf64T8DW/VwW3n/3ol7Br9U/4MXolzq44eqgVZj26jnL8ALzTnfyrJa+O3gQtjSWdKXGWBX7zatuaw7Bg+EYH/Gcwrs/nsOi57bBn29FyR2SJEiVKlChRokSJEiVKlChRokSJEiVKlChRokSJEiVKlChRokSJEiVKlChRokSJEiVKlChRokSJEiVKlChRokSJEiVKlChRokSJEiVKlChRokSJEiVKlChRokSJEiVKlChR4icfP/vZ/wdWY4voDB5W9AAAAABJRU5ErkJggg==;" vertex="1" parent="4fLyKoJd76VLfJpuO-5H-1">
                    <mxGeometry x="221.63" y="10" width="76.75" height="80" as="geometry"/>
                </mxCell>
                <mxCell id="D4uvCHL3xy1HOlOso6no-0" value="&amp;nbsp;.c" style="rounded=0;whiteSpace=wrap;html=1;labelBackgroundColor=none;strokeColor=#000000;strokeWidth=2;fontSize=16;fontColor=#000000;fillColor=none;" vertex="1" parent="4fLyKoJd76VLfJpuO-5H-1">
                    <mxGeometry x="20" y="50" width="80" height="40" as="geometry"/>
                </mxCell>
                <mxCell id="D4uvCHL3xy1HOlOso6no-1" value="" style="shape=image;verticalLabelPosition=bottom;labelBackgroundColor=default;verticalAlign=top;aspect=fixed;imageAspect=0;image=data:image/png,iVBORw0KGgoAAAANSUhEUgAAACsAAAAwCAYAAACITIOYAAAAAXNSR0IArs4c6QAAAARnQU1BAACxjwv8YQUAAAAJcEhZcwAAFiUAABYlAUlSJPAAAAJWSURBVGhD7ZnLjRpRFESJjQS8JgqyIARvnBZ52N7wkYC2XqvwlGpOw8N9p2cxLuls6OLWkcYLq1l9yRwOh+EZqo6h54mq9aGxRNUx9DxRtT40lqg6hp4nqr7P7XYbzufzcDwe8Yuv8OPb97/Q86SnL83V6nK5lEje6Rl3evqj6PV6xYdz6Bl3evqjbPvT3z/Y7/fDdrsd1ut1F37MB6eY0x9l/YPNZoNSU/h3aSyZ038nS0KP8O/SWDKnXyrrTA1O0dN/Kvvr5++H+HednnGnp/+1ZB2/M8Vut8PPpxgFPf7wo2XbzVeEpfgWf7iEbKNXWIpv8Ycu2iCpHvIOkcKn02lo/z+RFse/kAdJpIe8MwUJS4vj5TxGIj3knUeksLQ4XsxDJFJB7riDtDhezCM0VEHuuIO0OF7MIzRUQe64g7Q4XswjNFRB7riDtDhezCM0VEHuuIO0OF7MIzRUQe64g7Q4XswjNFRB7riDtDhezCM0VEHuuIO0OF7MIzRUQe64g7Q4XswjNFRB7riDtDhezCM0VEHuuIO0OF7MIzRUQe64g7Q4XswjNFRB7riDtDhezCM0VEHuuIO0OF7MIzRUQe64g7Q4XswjNFRB7riDtDhezCM0VEHuuIO0OF7MIzRUQe64g7Q4XswjNFRB7riDtDhezCM0VEHuuIO0OF7MI0vhDtLieJEOLYE7SIvjvyW88ta7irZ5328u0uLka/pX337PoW21zft+c5EWp72yqfyl5l9pDk9fH7W0n5bowJI0B+k8T/uJyf9JLEXbbNvS+J9PyGr1B0N4rwqB9WVYAAAAAElFTkSuQmCC;" vertex="1" parent="4fLyKoJd76VLfJpuO-5H-1">
                    <mxGeometry x="30" y="104" width="26.88" height="30" as="geometry"/>
                </mxCell>
                <mxCell id="D4uvCHL3xy1HOlOso6no-2" value="" style="shape=image;verticalLabelPosition=bottom;labelBackgroundColor=default;verticalAlign=top;aspect=fixed;imageAspect=0;image=data:image/png,iVBORw0KGgoAAAANSUhEUgAAABMAAAAWCAYAAAAinad/AAAAAXNSR0IArs4c6QAAAARnQU1BAACxjwv8YQUAAAAJcEhZcwAAFiUAABYlAUlSJPAAAADGSURBVDhPvZQ7CgIxEED3bLmAdY7iRWy08QBaeI7FKvV6AYutAoGQyCxOmIxDPktw4DWZl8eyRSYc51y01lYJIcTvFXmkSyWKQRC01lEpVaUahCWXJZqCkiiBTjFIRZQkaIy6WZCKKEjQEPdTkIq4lKARCu67YhJdscfxHs+HU4Lvm2MYWt9rdk5pjkHoeZuzM05X7DUv2RmnKzbsy676Mu6fARhE+L4rVuN/sT38xIwxolgDHlW4D8/+FvPep/pettC4maYPhgp7wXcZQ74AAAAASUVORK5CYII=;" vertex="1" parent="4fLyKoJd76VLfJpuO-5H-1">
                    <mxGeometry x="27" y="54" width="26.77" height="31" as="geometry"/>
                </mxCell>
                <mxCell id="D4uvCHL3xy1HOlOso6no-3" value="　 .cpp" style="rounded=0;whiteSpace=wrap;html=1;labelBackgroundColor=none;strokeColor=#000000;strokeWidth=2;fontSize=16;fontColor=#000000;fillColor=none;" vertex="1" parent="4fLyKoJd76VLfJpuO-5H-1">
                    <mxGeometry x="19" y="100" width="80" height="40" as="geometry"/>
                </mxCell>
                <mxCell id="R4ITl3lbQklG0t9DtrW--0" value="..." style="rounded=0;whiteSpace=wrap;html=1;labelBackgroundColor=none;strokeColor=#000000;strokeWidth=2;fontSize=16;fontColor=#000000;fillColor=none;" vertex="1" parent="4fLyKoJd76VLfJpuO-5H-1">
                    <mxGeometry x="19" y="150" width="80" height="20" as="geometry"/>
                </mxCell>
                <mxCell id="R4ITl3lbQklG0t9DtrW--1" value="&amp;nbsp;.rc" style="rounded=0;whiteSpace=wrap;html=1;labelBackgroundColor=none;strokeColor=#000000;strokeWidth=2;fontSize=16;fontColor=#000000;fillColor=none;" vertex="1" parent="4fLyKoJd76VLfJpuO-5H-1">
                    <mxGeometry x="20" y="180" width="80" height="40" as="geometry"/>
                </mxCell>
                <mxCell id="R4ITl3lbQklG0t9DtrW--2" value="" style="shape=image;verticalLabelPosition=bottom;labelBackgroundColor=default;verticalAlign=top;aspect=fixed;imageAspect=0;image=data:image/png,iVBORw0KGgoAAAANSUhEUgAAABMAAAAUCAYAAABvVQZ0AAAAAXNSR0IArs4c6QAAAARnQU1BAACxjwv8YQUAAAAJcEhZcwAAFiUAABYlAUlSJPAAAADeSURBVDhP5ZKhDsIwEIZ5tvr5avYSQ4+XGJZppplmeljAAhYwtV3+S27pdetIQx3iS9pr7+vdpStjjE0FyZRSSRhl79fnJ6Jlj/vTdqdu9ixKdr3cbJZldDdf55PzKFlV7ege41e4KOv7s9gjmUWoEC2750FZva8pVpZbEYcQFaJlNw4mMrxWFBvaa61nhSGEDG2xAAOGuDk0QWF7bOk+j0PIGD/RF7rVA8wPQqyFLNQSCyHh74E1qsOeY6Ps22xYiERIOI414kLmJoZAov8lAP/BKNkS/yhLAcnSYOwAKZzCYM/rBHIAAAAASUVORK5CYII=;" vertex="1" parent="4fLyKoJd76VLfJpuO-5H-1">
                    <mxGeometry x="29" y="190" width="19" height="20" as="geometry"/>
                </mxCell>
                <mxCell id="1ztZQSH3iNqacuuZru8q-0" value="" style="shape=flexArrow;endArrow=classic;html=1;fontSize=16;fontColor=#000000;fillColor=#dae8fc;strokeColor=#6c8ebf;gradientColor=#7ea6e0;entryX=0;entryY=0.568;entryDx=0;entryDy=0;exitX=1;exitY=0.5;exitDx=0;exitDy=0;entryPerimeter=0;" edge="1" parent="4fLyKoJd76VLfJpuO-5H-1" source="R4ITl3lbQklG0t9DtrW--3" target="4fLyKoJd76VLfJpuO-5H-5">
                    <mxGeometry width="50" height="50" relative="1" as="geometry">
                        <mxPoint x="380" y="120" as="sourcePoint"/>
                        <mxPoint x="410" y="120" as="targetPoint"/>
                    </mxGeometry>
                </mxCell>
                <mxCell id="1ztZQSH3iNqacuuZru8q-1" value="" style="shape=flexArrow;endArrow=classic;html=1;fontSize=16;fontColor=#000000;fillColor=#dae8fc;strokeColor=#6c8ebf;gradientColor=#7ea6e0;exitX=1;exitY=0.5;exitDx=0;exitDy=0;" edge="1" parent="4fLyKoJd76VLfJpuO-5H-1" source="D4uvCHL3xy1HOlOso6no-0" target="1ztZQSH3iNqacuuZru8q-4">
                    <mxGeometry width="50" height="50" relative="1" as="geometry">
                        <mxPoint x="120" y="130" as="sourcePoint"/>
                        <mxPoint x="420" y="130" as="targetPoint"/>
                    </mxGeometry>
                </mxCell>
                <mxCell id="1ztZQSH3iNqacuuZru8q-2" value="" style="shape=flexArrow;endArrow=classic;html=1;fontSize=16;fontColor=#000000;fillColor=#dae8fc;strokeColor=#6c8ebf;gradientColor=#7ea6e0;exitX=1;exitY=0.5;exitDx=0;exitDy=0;" edge="1" parent="4fLyKoJd76VLfJpuO-5H-1" source="D4uvCHL3xy1HOlOso6no-3" target="1ztZQSH3iNqacuuZru8q-6">
                    <mxGeometry width="50" height="50" relative="1" as="geometry">
                        <mxPoint x="130" y="140" as="sourcePoint"/>
                        <mxPoint x="430" y="140" as="targetPoint"/>
                    </mxGeometry>
                </mxCell>
                <mxCell id="1ztZQSH3iNqacuuZru8q-3" value="" style="shape=flexArrow;endArrow=classic;html=1;fontSize=16;fontColor=#000000;fillColor=#dae8fc;strokeColor=#6c8ebf;gradientColor=#7ea6e0;exitX=1;exitY=0.5;exitDx=0;exitDy=0;" edge="1" parent="4fLyKoJd76VLfJpuO-5H-1" source="R4ITl3lbQklG0t9DtrW--1" target="1ztZQSH3iNqacuuZru8q-8">
                    <mxGeometry width="50" height="50" relative="1" as="geometry">
                        <mxPoint x="140" y="150" as="sourcePoint"/>
                        <mxPoint x="440" y="150" as="targetPoint"/>
                    </mxGeometry>
                </mxCell>
                <mxCell id="1ztZQSH3iNqacuuZru8q-4" value="&amp;nbsp;.obj" style="rounded=0;whiteSpace=wrap;html=1;labelBackgroundColor=none;strokeColor=#000000;strokeWidth=2;fontSize=16;fontColor=#000000;fillColor=#FFFFFF;" vertex="1" parent="4fLyKoJd76VLfJpuO-5H-1">
                    <mxGeometry x="224.38" y="49.5" width="80" height="40" as="geometry"/>
                </mxCell>
                <mxCell id="1ztZQSH3iNqacuuZru8q-5" value="" style="shape=image;verticalLabelPosition=bottom;labelBackgroundColor=default;verticalAlign=top;aspect=fixed;imageAspect=0;image=data:image/png,iVBORw0KGgoAAAANSUhEUgAAABgAAAAYCAYAAADgdz34AAAAAXNSR0IArs4c6QAAAARnQU1BAACxjwv8YQUAAAAJcEhZcwAAFiUAABYlAUlSJPAAAAIeSURBVEhLrVU7rwFhEPXbSNCQICFEoZBoPKLQ6jXodaLRiYZKolQSlVBItBKJ93Nuztydze5n97p7905yYvd7nPPNmdmP51Pcbjc6Ho90Pp/pfr+TNvw/AfLT6UT9fp9GoxE/Y0ybdhdycpCHw2FKpVI0n895zHUmQj4ejykWi5HX62Vks1mazWbu7DLaYiQXJBIJW7sg+nq97IVVW1RyQbvdZoHL5aKTyV7jmCnsbDEiFApRq9XSyR+PBz2fT84EexeLBW23W54zZYIFP9ki5L1ej/b7Pa9Vgb3JZJKazSbtdjuuky7yG1t8Ph/PRyIRSwSDQV7n9/upVquZ7YIaCodWVIlx8kKhQKVSiYkwhmeBjKmQOrEAqo8X9DlaURaptlSrVR432hKPx/X1gnw+z/UwFVwKhT5HK2IhCgry6/VqKdBoNEzEAMg3mw3XAE2g0X8HMhG7kCIEQY45KwGgXq/r/udyOT65JbmE2AWAXDoB71YCaEt0DuoBchzKllwCdqkfjJ0AgLaEEJ6NWTsKbLYTAJbLJVUqFRoOh3Q4HJzfuiARAfyqSKfTPIe27XQ6nIkjEaPAJwQCAep2uyyibf8cRjsEsKVYLL4JRKNRGgwG3E3a9s+BzhCgASBg9R1kMhmaTCZM/uf/DNygEEDnlMtlnRwnB7lj/60CmUBkvV7zXYVbWGxxTS6BTGDXarWi6XTqzha7ELuA95N7PF/GPvCsXwT47gAAAABJRU5ErkJggg==;" vertex="1" parent="4fLyKoJd76VLfJpuO-5H-1">
                    <mxGeometry x="226.38" y="58" width="24" height="24" as="geometry"/>
                </mxCell>
                <mxCell id="R4ITl3lbQklG0t9DtrW--4" value="Cコンパイラ" style="rounded=0;whiteSpace=wrap;html=1;labelBackgroundColor=none;strokeColor=#000000;strokeWidth=2;fontSize=12;fontColor=#000000;fillColor=#FFFFFF;" vertex="1" parent="4fLyKoJd76VLfJpuO-5H-1">
                    <mxGeometry x="150" y="50" width="50" height="40" as="geometry"/>
                </mxCell>
                <mxCell id="1ztZQSH3iNqacuuZru8q-6" value="&amp;nbsp;.obj" style="rounded=0;whiteSpace=wrap;html=1;labelBackgroundColor=none;strokeColor=#000000;strokeWidth=2;fontSize=16;fontColor=#000000;fillColor=#FFFFFF;" vertex="1" parent="4fLyKoJd76VLfJpuO-5H-1">
                    <mxGeometry x="224.38" y="100" width="80" height="40" as="geometry"/>
                </mxCell>
                <mxCell id="1ztZQSH3iNqacuuZru8q-7" value="" style="shape=image;verticalLabelPosition=bottom;labelBackgroundColor=default;verticalAlign=top;aspect=fixed;imageAspect=0;image=data:image/png,iVBORw0KGgoAAAANSUhEUgAAABgAAAAYCAYAAADgdz34AAAAAXNSR0IArs4c6QAAAARnQU1BAACxjwv8YQUAAAAJcEhZcwAAFiUAABYlAUlSJPAAAAIeSURBVEhLrVU7rwFhEPXbSNCQICFEoZBoPKLQ6jXodaLRiYZKolQSlVBItBKJ93Nuztydze5n97p7905yYvd7nPPNmdmP51Pcbjc6Ho90Pp/pfr+TNvw/AfLT6UT9fp9GoxE/Y0ybdhdycpCHw2FKpVI0n895zHUmQj4ejykWi5HX62Vks1mazWbu7DLaYiQXJBIJW7sg+nq97IVVW1RyQbvdZoHL5aKTyV7jmCnsbDEiFApRq9XSyR+PBz2fT84EexeLBW23W54zZYIFP9ki5L1ej/b7Pa9Vgb3JZJKazSbtdjuuky7yG1t8Ph/PRyIRSwSDQV7n9/upVquZ7YIaCodWVIlx8kKhQKVSiYkwhmeBjKmQOrEAqo8X9DlaURaptlSrVR432hKPx/X1gnw+z/UwFVwKhT5HK2IhCgry6/VqKdBoNEzEAMg3mw3XAE2g0X8HMhG7kCIEQY45KwGgXq/r/udyOT65JbmE2AWAXDoB71YCaEt0DuoBchzKllwCdqkfjJ0AgLaEEJ6NWTsKbLYTAJbLJVUqFRoOh3Q4HJzfuiARAfyqSKfTPIe27XQ6nIkjEaPAJwQCAep2uyyibf8cRjsEsKVYLL4JRKNRGgwG3E3a9s+BzhCgASBg9R1kMhmaTCZM/uf/DNygEEDnlMtlnRwnB7lj/60CmUBkvV7zXYVbWGxxTS6BTGDXarWi6XTqzha7ELuA95N7PF/GPvCsXwT47gAAAABJRU5ErkJggg==;" vertex="1" parent="4fLyKoJd76VLfJpuO-5H-1">
                    <mxGeometry x="226.38" y="108.5" width="24" height="24" as="geometry"/>
                </mxCell>
                <mxCell id="R4ITl3lbQklG0t9DtrW--5" value="C++コンパイラ" style="rounded=0;whiteSpace=wrap;html=1;labelBackgroundColor=none;strokeColor=#000000;strokeWidth=2;fontSize=12;fontColor=#000000;fillColor=#FFFFFF;" vertex="1" parent="4fLyKoJd76VLfJpuO-5H-1">
                    <mxGeometry x="150" y="99" width="50" height="40" as="geometry"/>
                </mxCell>
                <mxCell id="1ztZQSH3iNqacuuZru8q-8" value="&amp;nbsp;.res" style="rounded=0;whiteSpace=wrap;html=1;labelBackgroundColor=none;strokeColor=#000000;strokeWidth=2;fontSize=16;fontColor=#000000;fillColor=#FFFFFF;" vertex="1" parent="4fLyKoJd76VLfJpuO-5H-1">
                    <mxGeometry x="224.38" y="180" width="80" height="40" as="geometry"/>
                </mxCell>
                <mxCell id="1ztZQSH3iNqacuuZru8q-9" value="" style="shape=image;verticalLabelPosition=bottom;labelBackgroundColor=default;verticalAlign=top;aspect=fixed;imageAspect=0;image=data:image/png,iVBORw0KGgoAAAANSUhEUgAAACwAAAAtCAYAAADV2ImkAAAAAXNSR0IArs4c6QAAAARnQU1BAACxjwv8YQUAAAAJcEhZcwAAFiUAABYlAUlSJPAAAAHDSURBVGhD7ZaxTsNAEET5NvfpXZOa/ESoQx1aUpOa1KQOLdACLdC4NRpLi+Yuu7bP9kIiXfGEPD7fPMOexUVVVfU5kYW9CYSLovjlVPMs7J3nQ+fNeQtrMxPn3li9kmXhsVi9kvWaYX7w6/N7cnh/rZ/JwkPg/bV+JnmGtUKL97ePerm8rhdXi+YnrrV1vL/VK5mr8PxyHjyLa20dr7F6JXMT3j/ug+cE5PFavm/1SuY2w1MIa4wWfnl+PcqEPiOBueY1Wj8zSni9vm2y7f02yAU5dBDVDh2u45fS+plBM4winHzOIcQyXWiywOqVLFkYMzibzYJMwEvEv0UNSxZYvZIlC3cBkcPhSRUFbbLA6pUseYaZ1eqmkcA4cI6/gPY10GQx/3yt9TODhCG0e9gFMpu7zdE6PoyWLO5xpvUzycIotT5leIl4vuXrYMkCzrV+JnmGWVAD81uWZfBMTPwZ5HtWr2STC4O2gxXLAr5v9UrmIizEh1GTBbzG6pUseYa1wjbkMFqygPfX+hl3YdD2/wbg/bV+5k+Eu+D9tX4meYa9sXoly8JjsXol6zXDp0QW9iZ5hv87z8LeeT503pyZcFX/ALDZ2MzEQu5eAAAAAElFTkSuQmCC;" vertex="1" parent="4fLyKoJd76VLfJpuO-5H-1">
                    <mxGeometry x="230.63" y="187.5" width="22" height="22.5" as="geometry"/>
                </mxCell>
                <mxCell id="R4ITl3lbQklG0t9DtrW--6" value="&lt;font style=&quot;font-size: 10px;&quot;&gt;リソース&lt;br style=&quot;font-size: 10px;&quot;&gt;コンパイラ&lt;/font&gt;" style="rounded=0;html=1;labelBackgroundColor=none;strokeColor=#000000;strokeWidth=2;fontSize=10;fontColor=#000000;fillColor=#FFFFFF;spacing=2;" vertex="1" parent="4fLyKoJd76VLfJpuO-5H-1">
                    <mxGeometry x="150" y="180" width="50" height="40" as="geometry"/>
                </mxCell>
                <mxCell id="1ztZQSH3iNqacuuZru8q-10" value="" style="shape=flexArrow;endArrow=classic;html=1;fontSize=16;fontColor=#000000;fillColor=#dae8fc;strokeColor=#6c8ebf;gradientColor=#7ea6e0;exitX=1;exitY=0.5;exitDx=0;exitDy=0;" edge="1" parent="4fLyKoJd76VLfJpuO-5H-1" source="1ztZQSH3iNqacuuZru8q-8">
                    <mxGeometry width="50" height="50" relative="1" as="geometry">
                        <mxPoint x="110" y="210" as="sourcePoint"/>
                        <mxPoint x="350" y="200" as="targetPoint"/>
                    </mxGeometry>
                </mxCell>
                <mxCell id="1ztZQSH3iNqacuuZru8q-11" value="" style="shape=flexArrow;endArrow=classic;html=1;fontSize=16;fontColor=#000000;fillColor=#dae8fc;strokeColor=#6c8ebf;gradientColor=#7ea6e0;exitX=1;exitY=0.5;exitDx=0;exitDy=0;entryX=0.6;entryY=0.412;entryDx=0;entryDy=0;entryPerimeter=0;" edge="1" parent="4fLyKoJd76VLfJpuO-5H-1" source="1ztZQSH3iNqacuuZru8q-6" target="R4ITl3lbQklG0t9DtrW--3">
                    <mxGeometry width="50" height="50" relative="1" as="geometry">
                        <mxPoint x="314.3800000000001" y="210" as="sourcePoint"/>
                        <mxPoint x="370" y="210.00199999999995" as="targetPoint"/>
                    </mxGeometry>
                </mxCell>
                <mxCell id="1ztZQSH3iNqacuuZru8q-12" value="" style="shape=flexArrow;endArrow=classic;html=1;fontSize=16;fontColor=#000000;fillColor=#dae8fc;strokeColor=#6c8ebf;gradientColor=#7ea6e0;exitX=1;exitY=0.5;exitDx=0;exitDy=0;entryX=0.6;entryY=0.118;entryDx=0;entryDy=0;entryPerimeter=0;" edge="1" parent="4fLyKoJd76VLfJpuO-5H-1" source="1ztZQSH3iNqacuuZru8q-4" target="R4ITl3lbQklG0t9DtrW--3">
                    <mxGeometry width="50" height="50" relative="1" as="geometry">
                        <mxPoint x="324.3800000000001" y="220" as="sourcePoint"/>
                        <mxPoint x="380" y="220.00199999999995" as="targetPoint"/>
                    </mxGeometry>
                </mxCell>
                <mxCell id="R4ITl3lbQklG0t9DtrW--3" value="リンカ" style="rounded=0;whiteSpace=wrap;html=1;labelBackgroundColor=none;strokeColor=#000000;strokeWidth=2;fontSize=12;fontColor=#000000;fillColor=#FFFFFF;" vertex="1" parent="4fLyKoJd76VLfJpuO-5H-1">
                    <mxGeometry x="320" y="50" width="50" height="170" as="geometry"/>
                </mxCell>
            </root>
        </mxGraphModel>
    </diagram>
    <diagram name="age-5" id="Y7LtqF0qUScTt7tv5Djr">
        <mxGraphModel dx="746" dy="424" grid="1" gridSize="10" guides="1" tooltips="1" connect="1" arrows="1" fold="1" page="1" pageScale="1" pageWidth="850" pageHeight="1100" background="#ffffff" math="0" shadow="0">
            <root>
                <mxCell id="rFS9sqAKDwRHuz8FRO1v-0"/>
                <mxCell id="rFS9sqAKDwRHuz8FRO1v-1" parent="rFS9sqAKDwRHuz8FRO1v-0"/>
                <mxCell id="rFS9sqAKDwRHuz8FRO1v-2" value="IDE&lt;br&gt;&lt;font style=&quot;font-size: 16px;&quot;&gt;(Integrated Development Environment)&lt;br&gt;&lt;/font&gt;統合開発環境" style="rounded=0;whiteSpace=wrap;html=1;labelBackgroundColor=none;strokeColor=#000000;strokeWidth=2;fontSize=18;fontColor=#000000;fillColor=#CCCCCC;" vertex="1" parent="rFS9sqAKDwRHuz8FRO1v-1">
                    <mxGeometry x="140" y="10" width="240" height="220" as="geometry"/>
                </mxCell>
                <mxCell id="rFS9sqAKDwRHuz8FRO1v-3" value="&lt;span style=&quot;font-size: 16px;&quot;&gt;　 .vcxproj&lt;/span&gt;" style="rounded=0;whiteSpace=wrap;html=1;verticalAlign=top;horizontal=1;fontColor=#000000;labelBackgroundColor=none;fillColor=#FFFFFF;fontSize=18;strokeWidth=2;strokeColor=#000000;" vertex="1" parent="rFS9sqAKDwRHuz8FRO1v-1">
                    <mxGeometry x="10" y="10" width="100" height="220" as="geometry"/>
                </mxCell>
                <mxCell id="rFS9sqAKDwRHuz8FRO1v-4" value="" style="shape=image;verticalLabelPosition=bottom;labelBackgroundColor=default;verticalAlign=top;aspect=fixed;imageAspect=0;image=data:image/png,iVBORw0KGgoAAAANSUhEUgAAAEoAAABICAYAAABRGGN6AAAAAXNSR0IArs4c6QAAAARnQU1BAACxjwv8YQUAAAAJcEhZcwAAFiUAABYlAUlSJPAAAARKSURBVHhe7ZzPSxtBFMf92xQRVOhBD1XxVrQKVfCg4LXgsYJIDyq1baD1YKvgLxAUMSiESg9FbRERKtaDJua3v3Xab0zMzsyLO2lmN9llHnwOum/evvms2R13k1SZMOH/OD8/Z8VydXXFMPb+/p7cbsfNzU1mvKeCmogdRpQiRpQivhd1d3fHrq+vOdLpNDeJPz+PWCiwyZGMJ7mcy8vLx/HW34O99V/c2O9ftqQciLb2UHHi0JDYtMj20g82/uwtRzwSJ3MpVt4sc2M/vfhI5olkW8wHjmq58JQoKqmSMKIUMaIK8P75ODcxFSADY09/n5Db7cDBEPvI6smHmFBuPCNqfX2ddXd3u8Lk5CS3b+AZUXNzc6y6utoVhoaGuH0DI4qAEvXtc4hbIC69npcmtvkuyOVgUYmxsXCM+z2Y7pnixn5omZBysKgV+8jqyYeYUG5RIhV71TOiHsjqyYeYYEQ9kNWTDzHBiHogqycfYoKboij29/e5flTI9dzU1MQSiQSZo0Ludg0ZYrIRVSDEZCOqQIjJRlSBEJO3t7fZxMSEKwwODkqihoeHydynyNWpr69nY2NjZA5FPM5fFIoS5SY4+n19fZIstwiHw1w/FSsKnJycsP7+ftbzqsdR2tvbvS0K4IFCLBp3lJmvM94XBdIpZ2WVLOri4oJLBnt7e2xgYIDV1dVJxXXQ2dnJIpGItN9UMkVOUgfaRZ2enmYus2JR3eBKlUqluH2DpEOytL/0VlZWpIJOMTIyIj3wBIlEkpxsKZQkCo+gxUbFBSd+1klbW9tj7ZqaGjY9Pc3tP0c8niAn/L9o/4vCZKzFxO2lgnvl1vq1tbVsbW1Nzk3/kxXTJ8vzokBjYyPb2dmRcjPLhhg98WLxhSjQ3NzMDg8PpXxdywbfiAIdHR3s7OxMGqNj2eArUQD/zjixbHBVFG7dWrfZ0dvby40HdqIA7iDoXjb4UhSWDVNTU9JYQElQwZeiAJYNGxsb0nhKggquitra2spsVyUYDHLjgaoogJtr4nhKggqeO5nPzs5KdxqtWP8Rx8/ieEqCCp4TZQcWn7l9e1YUbr+EQiFtoJ61PvCFqGJP5nZQT4qNKAIjShHfiorFYpniukA9a33gC1FuYEQp4gtRq6urmeZ1gXrW+sCczAnMVU8R34oaHR1lLS0t2kA9a31gTuaKGFGKGFGK+EIUPuSDG2+6oD40ZCeq62XXf9Ha2srNCzgmqhKuetbxpWJEKeKYKNzGxeR0gXrW+sAXotzAThSe7OgiGo1ytX0lykmMKEWKErW4uMiJKieBQIDrzWmKEnV0dJT5BADVuJvgSfHu7i7Xm9M8KQobxQHLy8usoaGBnIAbQBL1ssOX1VBfXaILvFUzq0UOJIgNgePjY7awsJA5Z7nJ/Pw8Ozg4IHu6vb0tPBE3AkeKaqySwNu8s+2WNypd1pMvC7eD+hRDucEBLK+kqqq/5RNc8zNbUfMAAAAASUVORK5CYII=;" vertex="1" parent="rFS9sqAKDwRHuz8FRO1v-1">
                    <mxGeometry x="18.999999999999996" y="18" width="20.56" height="20" as="geometry"/>
                </mxCell>
                <mxCell id="rFS9sqAKDwRHuz8FRO1v-5" value="　 .exe" style="rounded=0;whiteSpace=wrap;html=1;labelBackgroundColor=none;strokeColor=#000000;strokeWidth=2;fontSize=18;fontColor=#000000;fillColor=#FFFFFF;verticalAlign=middle;" vertex="1" parent="rFS9sqAKDwRHuz8FRO1v-1">
                    <mxGeometry x="410" y="10" width="100" height="220" as="geometry"/>
                </mxCell>
                <mxCell id="rFS9sqAKDwRHuz8FRO1v-6" value="" style="shape=image;verticalLabelPosition=bottom;labelBackgroundColor=default;verticalAlign=top;aspect=fixed;imageAspect=0;image=data:image/png,iVBORw0KGgoAAAANSUhEUgAAABgAAAATCAYAAACKsM07AAAAAXNSR0IArs4c6QAAAARnQU1BAACxjwv8YQUAAAAJcEhZcwAAFiUAABYlAUlSJPAAAAGGSURBVEhLvY/JTsJQFIa7ghbaAsVHMC6Nr6UiTigigziACDguiDsTnkNxoA44oSgqoC58DDbHcy+lkuYmN8SUJl/apP/5zvmFbCYNkXDIFohbYP3oF13XmW8CXdBut21hsAuKxSIUCgX67gbGjn5g6OAb/Ptf4N9Ddj9B22mBtt0ELd8EX64Bo4ctM291cBtoFqGWb4Av+4G8gzfzBt7NOoU1S+A2oMKcIdzqkaZfwZN6Ac9GDdT1mpnvuwEVEtJ1Q4igUF17BnWVUAVlpcqcJXAb9F7ZkT6BkiTSR1ASSPwB5Ni9me+7ARGqDKEcvaO4I7fgXqowZwncBkoChXEUxgzhMgojFSp1ha/BtYgsXJl5K9wGMgpl40p3+MYUSqFLkOaROR0pM2cJ3Ab0ShT+SXUQZ8sgIeLMBYjT5+AMnpl5K9wGVIgXEmlXKAZROnXaYbKEnDBnCdwFI8kKFYp4pTOAwkAJHCh0TByDY7zDcFRnzhK4C/7LYBZkMyn6YQfELdj7CMIvsXI+UqGSIiEAAAAASUVORK5CYII=;" vertex="1" parent="rFS9sqAKDwRHuz8FRO1v-1">
                    <mxGeometry x="425" y="110.5" width="24" height="19" as="geometry"/>
                </mxCell>
                <mxCell id="rFS9sqAKDwRHuz8FRO1v-7" value="" style="shape=image;verticalLabelPosition=bottom;labelBackgroundColor=default;verticalAlign=top;aspect=fixed;imageAspect=0;image=data:image/png,iVBORw0KGgoAAAANSUhEUgAAAL0AAADFCAYAAAABpvOcAAAAAXNSR0IArs4c6QAAAARnQU1BAACxjwv8YQUAAAAJcEhZcwAAFiUAABYlAUlSJPAAADjnSURBVHhe7Z2Hu1RFtvbnr7rf3Dvx3nHUmTHr6AQdFSOioiCKiIojigGFQ84ZlCCKmBMgKIiKIiBZokQJJzOjzvpqpapVtasPBzgijbWe530q7j5t+9svq2rv3v2zEiVKlChRokSJEiVKlChRokSJEiVKlChRokSJEiVKlChRokSJEiVKlChRokSJEiVKlChRokSJEiVKlChRokSJEiVKlChRokSJEiVKlCjxg8TmtXthxINvQ79rX4Cel8yEuy+dBQNvfxmeG/UhHD3cAjKtRImzI1Yt2wZ9rprtYJ9FwKPuvHiGE5dP3fUa7NncCP869q8Cf4n6j/Wf7YaeztU97Jcg7LHuuHg6PHLtAti+5Bi0NRfwS9RxbFm3F/pciQ6vwKvDx8CTLpoKbwzaDZtmfw9Ht38Lx4rrl6i3OHywER65ZUEHDi+wE/DTCPpHr10I6yYCrJv8H9i56Ds41l7AL1En0dzUCgNvWxiAj2C3wCPs0+B2BzxrEqx10K+d8B/Sprnfw6Et/y7glzizo7WlHWY2fOiBZ+gt/NMZenL3GPruF0zwwHu5k2DPyu+gram4fokzMDAPf2XW5w5wu0tjnd6mMwq8Qj+FoF8z/j+wJgEf2+tnfQeNewv4Jc6gwO3GRQu+hJ6XpduS6u6yaEXYKa3RlGYq9LhwitNkuPWC8R54hV9FJ8Ck/8Cupd8X1y9xZsTq5Tug95+TvXi/eBWHR9iTPF6BJ+j/NC6A7qBXl09PgE3zvocjO74t4Jf48WLz2j3Q/zq80ppLa2oAb2BH3abQW8C1rifA+O9De/L3sPP9b4vrlzj9cehgE9z7lzlwFwHP0Ns8noF3wrTGODzm8AH4SXDbBZPglj+O9aB7lxfYozb1cblh9ndwdNe/ytXcEqcnmo62wlN3vS6w27QmuDw5veTxYdGKaY11eYR+ooN+DHyBbu5EJcFtyrRO+g/t6+9a9m3Z1y/xw8fge950Dv+cgR7lYE9z+cjh1eWnMOwCfHenmxV6BzaWegLUhD85AdbP+A4Of1X29Uv8AHHs2DF4YcIncPdlz1FaE6c2CfAp9JTLc2qjaQ0C3/1PEwh6BpihpxTGQJ3KnxQkPmbtxO/h6+Ul1y/RhYHAvzVvLdx1qQOelIfe5/ER9AF4gt4Bzy4/gaC/6Q+jPMBUGjePAZcxU8dxnYPlhjnfwZEdBfwSpxh48emLFTugz1VzPfQKu8/nrdMT9DaPrw189z+NJ+gJ3nEIr7g9wa3Oz0CrFHo7picAtZ3r73j/38X1S5x8fL39UAQ8pTYEfhV67/QmtfHAC/QK/K0OeNyuVOgV8kjuRCCl/cfVd/DlzO+hcU/Z4SlxgrF31xF4qNtLcPelzwvwDH3O6XO5PLu8Or24PDl8gP7G80cGWGsB3hH4OpY7QSZ9R3dutpf79Ut0JhqPtMDg3m8Q8Ay9kwc+QB+5vIXeAM9pjbi8EwM/Hm75Ywb6zgCe1FeP+672ca5/w+xvXa7/b8C1ifznlTiVwJy3pbEdGr9htTa31/0H295+DEY/shjuvmy2gd66fABf9+cZek5tUNbl7RalBR4vTN14/ogsrBHIOaA76rNjUl/jcn3c129vLa5/0oGu0XSoHd4Z9TW8OGAnzB+wA+Y/7PTITvh0wTfQ1lqfrtLedgzGP+aAR9gvMy5POT3m8+LycutwcPs4teH0hnN52p6UBayFHrcrb1DoEU4RAk/QK7hOehLYUuvpHHsc97tStG66c/3t6PoF/hOKY84JN684Cgse2wUvPLQjyEE/T+pvjdgDzUfqz/XfeWEd9P7z3Aj6qtPHwFuXD8Cz01uXt7k8Qf+HMXDjecM9kAqyVdwvYGcAD3PkOOxPXlPn4z08X73pcv3i+p0LBPmjeQfI1RV0Cz5Cr3r5iZ3QeLB+wF/+zhbofcWckNacCPSS1hD0ldTG5fN/UugZeExtEPobzh/uIbWAWimsuTFUgDued7zjvpz1LRzaXK7mdhj7t7U4B/86C3kK/LwHt1P5ylO74JvdrWf8B7t53T7oc6VzeAQ+yuU1tWFZ6DmtsdBblw9781mXd9Df9IfRcAM6fQdgBnVmjlVn538LO5d8C61HC/xRYDqz9eOj8HKaznjtpLICvWjhkzvhyP4z1/H37DwMD163AHo52FEW+gB/1ekReLzvRtMbTm2CyzP0nMsr9N7lXT6P0Hc7b1gV+rFY2r5a9ePJzKXXrK0Nc79z4Jd0h6LdLUjfn7ovglzBTvv8mAF+7kOslwfthMN72864DxUX5AO7v+qBz0Hvnd5Dz+CnTh/n8+zy6VblLeT0nNrghalu5w7LQojKnwyqfOrSuX818lr3XLlr82f7tjbD68/G6YyVAu7rXgK9qyPw8x7keS89vhP2bmk+Yz7UpsZWGHjrQgf6HJEAT9AH8LPAdxJ6u2sTXB6hHw03ne+gd07/+XFcmGVhroJdeQ2Cv/YJoPPj476Fwz/Ve3fwbP9qVSO8NJDTFtLDpu7kARdH93UqRa4+V8edsP7CgB2AJ5P8qR8t2lrbYcGUzwzwKfRVpw/QM/jq9gx8SG9wIRtuOzDQq8tHTt/gocvBj325/pPR52O/lTLUwxiXW1/57qcHfUtTO3zy0sEIcAu6lpEM7Ah2AD2MaT9rG+z4ovFH/XBfnfkF9L58bgK97Nwo9MnuTQQ7KTg9QX+hcXlSvIjVBSx+cQTz+QB9cGQCEktp+36UgJkrEWJ/LNZd6Y+VeVzHeQH4cCz3rZn4E/se7sFdLfD6kN0ObE5ZUkWgU99OVwrgrm1TGZQ9AWyJmv/IdtjyydHT/gHjRZkV726Be66oAk/QY1rjoedSnZ5THIXeAU/Q4yJW05uwiA378wh8kt6Qy4+mWxCu//1Qhk8AVBgDkGEsKqM5DHllvo5l+1E8Zv8mSj6qsz/WvXfYLTZld6ZGKuPrCLCWJKyHtgKuzo/1Oc7dFXjV/H/ugO2fn17HX7fqa+j71/lZ4FGR0xuXj9ObkM+z04f0pgeBb6GPbz1A4DW1QeivO3eIhy+AGNoMth1XSaqiSvv969jX+xY+y/Tp8fp68lGdvdHSdAyWP3eALzIlsNfO47EUwLG0YySFPoY81Zz+2yjH37j88Gn5oMPWZB54VcfQG6eX1MYuZKs7NxZ6dnlaxBroY0gZQJLvt6XW0/muLvDGY3oShH5s1/ybri0f19kZB3e2wJsN8e7MfAU9PQGcqnA7CcAKOcn1p4B79Q91hJ7+BXDzt376w6Y6+ASDzgN/Ik7PwAfoeX9ewddFLF+UCqkNQz8Crvt9Cr2oAqUZ832qeE5wc+6j18+9XuXvYvssdvqda5srYHvgUTmXJ4cPsGNJY1iX9AZhVvhTyFUEeyrXv37p4R/kSw+4GzXmn+9nIY8lqY1xentFtgp9ePIB7dyQy+dyege8gV63K284bwRcf+5QgjRKOxyMKbjVOsseF71GOtcDzmBrPT6GJR/b2RP4sNHFk/bC/AFVJycZ2BVqW/fQoxyovhSlgM91QId6Dnjpe4DnrZi7v0vvAMSLT2MeXZwBPJW5MGWgrzp92KpMoUfgeTGr6U28c5M6Pd5hiU6PoH02JgaPYaxCHkkcHOcGeNN2eO30b1AflnRChNeSj+7siEN72uDdsXuzqUsqhdzWI9hRro6g6oI1q8Tpq9Bvg9kOeK3jnE9ePtAlVwbxX42F01cncHekAD6XHUAvOX3k9H4Ry05f3a7UfJ53btDpr/v9sxGgqXJj2ocl12v9y8AK86r9cR8fKx9f/ceGD47AAnuxqQNVIEdJ+pJ181pK83eEuuL21fbs/l/BJwsPnPI9+UsWbsjuxdeWdXotBXqT2gSnT6/GMvTs9LxzU3V6Az06vd+9ETidGyukteTnZtpap9K+Vvq6xv39uPTJx1e/0XSkDRZN2wFT+qyGyX2+gOf7ba4A3ikR9CyEOD0BtO5dH4GPYHZyi1YscTzqN0LXRz3/wFewcsF+aG87OcffuHpPh1uTtRVgj9Ib/4CnOL3R3RtNb1Lo7R69v/3AO/1wSm8URHJsgVDdW2HUfi/bl46Jotfwfcm4fR3UmDq/23Lf7iPwYLdZ8Lf/fRz+/KsBcMUvH4Irf/UgPPDX5+G5fhvzro5ga4kQ67jUFXaFvCLj7j6fN26ObQu5yqY41CZ9BR88vw/aW0/sDs1tGw9A37+dBPCXY1kD+hrpTeT0fhGbQo8uz07P+byB/hxOb2oJIWVH/ncVUOrP1Gmem18Zx9eQfmmnbl/XTr/o1dVw/XlD4er/fQr+9lvUE/DX3zwOf/ntQLjsFw+6E6A/jL/7E+/4DHYqdu4OATeQ41wsEVod13o1jalKQWfxiYD1RRP3OMfvXKpz5JtmGHjrKwRvFuzjKoY+3b3BNCf+8bQAfez0YY+egecLUxH05w+HayWnt9BF0FLbAK/KjWnblav0eBozdSxF8RyRa8tHWV+xef1uuPmCYXD1/w120D8NfyfwHfS/HQR/+c1jcNWvB8Llv3jInRSDYdb97PgR/P4EUFfnPgVb4Vawfd3IwhzDH4Ou8pCL42t9tktzUO+O301fQJf/xGw0NbbAsH7vZEDurGQB2+E+vTo9gi/pTQS93mymTm/26P1Cli9M4UL2WkxvPHQJwCpt5/oVXN/meuVfh1R6jJ8X5srHWV/xzAPz4Zr/e4ahd4qhf5ygv/JX/3SO3x+uP/dJB9lXHmwPusBvQU7bJIRewXewpn0p3Ap02ia4se7yfgWdTwSsc/nepD3QeCh/Tz7u9ox77H3n0g7UU3D51Olz0Ne6rbhWTl91eoVenF7BVfA8jKKo/W9yaHJpPc7MTfu5nfRXXkf6ZEw+0vqK2y4dBdf87lkPPkH/v0866J/w0F/160ddnv8IXPI//aD7n4Y7QLcZ6KvAq6J+cXAV9uli1ZeJcsD7OqY1egL4koUL2+fd+OvDdlUcv72tHV6a/CmBSaB68FU5wHNSl4+h9+BXcvqc08fpDe/eiNNnoMctSw+fQMogplDGdQWU+rBujtV5vm7m2jYpc5x8rPUV//jdEALeuz2lOE9KXu/c/teY4jD0V/zyYbj4v/vCI/94Mbi8QK1lqhh8Tl+wHoFeA3pUBXzps5B70Km+DZ7vJ+1+W+H1hgA+3zW52UHJ+bYH3+lEgVd1aiEr+XztnD5dyAbob5SrsfgFEnb62sCuGs1tlR2vzuNS+6JxbCPgOE9A96+jbSkJonoLcnlx+sjtfxvcHnN7THEQ/Mt/+RBc8F+94NHrFnQMvKYxTgirHbMQd1Y+fdFS5doMu0LPsOtJgHpjxG5o/KYNlrz6Jdx9BQPIQDL4AX6GOA86qzft2qhOBHq94YyhD/v08W3FmNog+Az9KBLu0Wt6g6Dl5KE1IGfbGeGxEdS1jrH9UheM6ivI6Q34DD0vaFFpbn/FLwfQjs7FP78PBt/8TgRzLbdHIbi2XlXoV3dHgH2ftGOXt/UAOUndXvTKMzug3zVzBLhpBCCCqOB7cAVkC3peJ+70ufTG3laM4Mffi3XpjXN6m9N76BL4OqPIzfG45FgLv+2zbSscE4zqKxB6TnEs+Aj9097tw05OSHNwYYtbmVPvXdsh7KRcPp/0oRT2ap2hprq0EWQPuwUc68bpeZzbE3utcU79HEGH8HUEfh70WAw8gl8L+lnu9TWnV7dPodf0JlyYQuhR6vQIfTeE/pxnGLjOgp7Oy4Du+3NtKQl8WzfzBKP6Cg+9A/4fxu05t2fw/b49pjkG/Ev/5wG49Bf9YFqfdRHkdBI4OBV4n8cLxKi0jbJghz7Tj3VXItia1ijoBDfKLWArJ4Gpz7hvo4MQ3Z4dn3PtAH6An508BztLXV5VhZ726dMfR67h9KjoFgTzNUF2es7pP3WgefAUToTRpiWuxHl+DtVl3PbLsVF/TjKmebztF4zqKxR6BR+F0AfH190cm+Yo+APgkv/u5+Y9Bs/12+yhV9gRVOvyCrP2aRtLC7y2WdU6ApyW6ubPPeBKBR3LqL7Vvc+tMKPvJrjn8ufpm0vk+gi+c2MGNYCvKYyFPeT0DD2VAnwKPaU2mt7oDk4Effyl8HSfnpxe0htayJ7j0hsF1OnT0f+qQEhydQ+99ktJx5h2OseeLFRP5yR9glF9hYWenF7c/hpye9y7F/DNwtaCf/kvHnbg3+/AGUMAWle38OfaLDkB3LH+JIhAz8sDL7B7sH2dAadx1491q+n3boS+V80j8DXV4Rw8TnVy4FvovWpAH3L6ZJ/e32UZcnpy+hR6J1rInj8cxjz+qsD4rxheJws51tPxtG6B9nUr7e/oWCfBqL4ihp7Bt/CHVCfs32OqQ+BjquPcHu/Tuej/3Qv9/jLLwMyOzpCnoLMQWl+Xtgee2trHIGtd21UnVynwoZ7TjPs2wX1XziX44lRnJjm+BV9d3YKfAu+hz95wdoLQmy3Lm/44EiYOfgtaW9o8jAok1wVw6eeTQus8j+dqf+L2Ms+Pmb/Bx6j0dUIpGNVXVKFn8DXHv1rA1x0dcnzcv/9NvKODtypc9N/3wcPXvEAQVx09FgNt6yFv5xLhDtuRHnSVAzrqcxBrv7YRbGx70O8PwGt7+r0bnOM78NHx8WnCHnzj+HIBC8XpjZ4AAn26kPXQS4pD0PPrVnP6OL2Jc/pRrhwN04cvAryohtcZFL4ciNjmem5emKsKc2xb+/jE0PGc8BjBqL4iDz1K3B6VOj65fQ3wf34vjL3r4wh6vHoalQ5KPyaQ83joi/J6V4+Bxn7tY7DpBMBxA7nOj0DPaLpz/Hv/jNuZIdVh8NnxA/wBdg+8WcR66An81Omdy4vTo6q7Nwi93obA0CPwz41ZCvjDD/j/CqFnOK0sqLUUQK4tO5cV/lZuDpcEUb1FHvggD/7vguP/TcGXrUze0dE9/P5wyc/7wqg7V3iYc1KYLdgKO4KKpZ/n5MGmuri6E0KrsFtZqKltXH6WqwdtoXJm3y0w4OqFBGJlcSsgK/gEv3N8reegj9Ib2bKM0huBnsAn6PHBrfFC9u0XV0d3jKrT52HUei0FWD8ZZdvV8bgvnWfHzmLo1fVDqsNpjt/K/DVesQ07Opf+4gF3IjwEU/qsqcCuYpgZdGpTX+gn8Csyjk9CoFkebqkfTwh6WuIJMOCaVwlEdfyeGceP3F6dXuCPoY+3LC30DH7miqyD/tYLx8Hc8R8APgFa/jdRpOlNNSXhNkMdz63dtgpj8WvEY9rGOfLW6ityoFeFKY6mOdbxGXxMc2LwcUenH1xzziCYef8mBlpgZ+AD+L6PbiALcGOpbu7rDs4q9MHtFehc7h7awfUZdIbdauB1bzoYzXamgi9AM+SsAD+O1c7pCfiM04ecnh/RffslE2H22A+yMCn0n4w65sFTCGtBiv08FtrxnBTm0H+8uTgub62+Ig95XlF+b/bwFXy/o4Pg/wpvTrsf7vv7RJg3wOT3ArFNXxTsUA/zCG7pVyGwAXwUthPwcxLItR2Aj8HHVCcPfkh1CH4BX53ej3Vm9yZKb3ghe/vFk+DDdzZUHF4jOL0BT+BTQGNQUQyqHadjzHh8LLd13M/HUuZZyVurr8jBXUs+v48Wtnq7QrywpT185/hP9J0BGz88YqAX2RMgEcGtMPv2Vh4zoCO4tdoKdiSBPg++Fef4j177OvS4CFMdBB+3NIPjs7ML+A76XlRyG/sjp/e3IdRyegf8JZMJePnfko0c9AzpMQ+lFY7bUufpsdTn5wjsdlxKW9dxbctbq6/Iwd2xEvCji1cp+ANgcP/Z9IiOlS/td9Aq7CoLe8jj1bVJ1JbSCUFVqHNw6xwSwh0BviWq54FnIfQz+m6GJ254l+Bkx3fg0+IWwWeoPfwEvDg9yjg9gS/pjT7H0j4CpOdlU+GLlduPCxBCH1IbBtCCaqGm/mROkJwk8jrRfKvoZHJ11xf+Do/JW6uvyIPdkcI9OgF8XdyGHR0FH6HHv4PPlVk0aQ/B7YGP3N5AjzKgewmwNCbjCjFJAPdOTlCrGHiFWscQbu0L4n7VoG7vEKQIq72AxemOk4Gff0qTSw+83b3xtxbzQvauP0+DT5du6RQ8DL0RAYiycFoxqLkxDzrVg8vXmm9BR+nJIm+tviIPdmeUS3UE/N8MctAz+M/0n+M/GPyf9vqw3QSrB14WsNQn4Fuofd0Bq22ENy1V2CboUa5NdSltP/cx5Bb8maatddSw25Ybx0fwpxP0Hn46ARR8Tm+4ZOgZ+Di9uePSqbD83Y2dBidAn4fcgoxzPpZ5oT8GN5LOieZq3fZJv8yTt1ZfkQe6MxLoPfgMvQUfHf/ZB+dFHww+Wwd/PhPh9A7v6gS0QB3cnuH0YyKC1sEbgA997ODs1inw2B/GVbYdHB7bFvqZLtUZd9dnDljn+Bc68BV+SXdQHnwDPDq+5vM2p7/z0mmwdf3eE4JG05sqkNynkMfj+bmx7Dwt7VxpRycVt+Wt1Vfkge6sErenNMfch+/AT6HHOLirFeYNEFd3qoCvwj4SAh67uq2THLCVUhTA7gh4FgFu6wZ6zPGH3LrMwc7pCQLM0DuoBfyel0rpwNeTAaU5PR5z39XPw6Y1X58wMGl6EyBPxSfAxyMZ2vhkCOJ+VfX4uN/Olf6fJvSoBHyf5jD4Qx6an/1g8Cd15j0S0hl0d4SV21J68AVk7Nc6Am36oz6BGes5sNXRtV0LcipNP0KP/Q0u1SHwnRBi3tkR10fofc6vkp0bpweunwu7tn1zUrCo0xPQAl4ELjmxhTw9McKxfELYOXZemBvXQ0l19xry1uor8iCfmOI0J97RGfrwizU/mHVLDvGXPhR0Aty0BXqF2tZJBHTc1j6FHfsD+FoGyLWsiqGfcZ+Urh20iXJ82oGRBa7u7FDKQ+mMiP4VYOgfueVF+ObAyf+aSprTE7wqB6CWdjydW+t4hTieJ3OjkynoJ7iQjaXQK/h6V2ZH0GOsfHG//+IHAool5fRYN9BHwDt4SbYtpQLPdYYax7RuFUNuxY6OdXV3BT7UN8HI21eS4/sFrnd9cX4HPZ8E0+Ghbi/A/j2n9mMSCL2CqUAqpFaVseiYFHZp48micON8cwL4cXusjMtbq6/IAXxyUrc3ju/Ab3j4pQ4/mGNtx+Cj+ftDKmNKhNVDL+1IAruCbsX9VdB5nMsq7AK8Gw/go7TNJUKPd2ZOv3cTTOz1hYPagX/RZHF9FMOvwD9w3Rw4uO/Ufz3FQm/BIxilvnJkezTmxyt9Us+8RiTsM/3+9WVM3lp9RR7gk5WAL66P4DcMWHDcDwafS/Pu+K8FeARdlAM9FQKeBb0KvYLt675PgbYK0JOzuzTHiqAn8DfCqDs+gV6XzQT8Qoi6fg/c4XHgY0pz+GBTl8BB0BvgPkYAFUqVjtOcGNCons43fQi2d3w7ntZdKW+tviIP78lLoacTwIHfGegx8DHb8wfJLo5NZVIJ5OryDLyCzfCHtu13INt6BnKbvmAfpzGmn/J7Lj30922EaQ78cXd9DnddNt2Dj64/sMdLcPRw1wCP4Z0+lYKY1p28gzuRS2PdwmtPHNMfObrOTUsneWv1FTlwT13B7YcNeLnTH8yhva3w4mPbCOYIfIHZQu/bIobZtgPgechRAW5tU93ND7Ab+NHlte5yegQenR6hn3bfBk51LplKd0wOe/CNmjeOnWx0CL0BMR3zsGfGarYz9dwJJG+tviIPbVeI3X7YI52HHmP3xkaC1AJNioBWxU6uJYIaxlzb1Fkun8d+gZrmGLgj0LUtaQ31OYf30IvTT7t3A2lsz89g5ENvQ9PRli4HIsrpE/i0ngU8Ati9Ri24E0WvVWOevLX6ijywXSUH/Qk4PTrjzNGLoM8V0wlEf6VVQNe67VOQuR3ADvl6KoY4lYWcwcZ5oR7GNK0J0E8l4B34fTbA1D7rYfajG2H/zq5LazQQegbbgOdgxDYBasBcOaJ6Amhb56evFcar82y/lby1+oo8rF2n4Y8s7NQHg7/s9+a8z6D7RWPdcYPhwb+/QPBqmkPQixT2FHQVQmzrdALYuoNXywCzgTyVuPx0Kg304vAMPQK/AaY46Kf0+RLmDNwEO9d37e/d6kLWQyhgs7htTwLf7+tG0bEonafHO9Gc/AmhkrdWX5EDtUt0DpedTW92b/sGelyMX4weSw83+sc5z8DgW96LXD1AruDH0DPsoS/Abtxd5nGfgC6ujv0KOdURcmljydCHRSy6O4LvoXdC4FGT71kHM/qvh92buw58dnoGL0gAFTGY6Rydl/SlJ43MUaBDvy1ZOi5vrb6iAmsXqzPQ79p2EG6/iL8yh4/BwC9F33jeSLcYfsotDldnYE/gdoDauorbDmDfz3Xr4Aq9hdvXa8hCj9L0BlObKfco9Gthcu+1rr0W9u3oui1Lgk5htdDW7IthZbk+Pw/HWQH0dvhIxsMJEMas5K3VV+RA7TrhQrbj9Obgvkboe/VsuqhDX5ujZ7Q78P8whp7Lfu05T8OoOz5yADPwNr3JAm/6qK7ykPM4gk19Vgi1lDgHwWbIVSa18dCzw5MoteH0Bp1+kgN+Yu81MPneL2DTJ98ApnDyn31SEXL6WJErW+i9FFoLrjnGSSH3/a7tXzd6TfMarl/eWn1FHtauEG9bdrSQbW5shSH3vUFXLfmCjoDvHB+f/4LPfbnhvAZXDndArfNwK/QWbtvGcYWbFWAPdQY8B75CngPe5vQeelzAeuid0zu3R6ef5JweocetzCl918DmVSd3o5mGTW8CpLFs/0cj2riOfdqfHmf7zZh/HVdS3YxZyVurr8gD2xXqGHr8Cf7RA94FvAVX7zfHe9TxpyYRfH3aF4Lf7dyh0MMtcHHnhKG2CicAytYVcHZuhpraCrgKAa9RMuABeg88yoGu6Y2HHtMbp0m9ndMj9L3WwAQH/YS7V7Pjf3rwpB2foLfwCZAEt6+H8Vp1/xqZkk8Udn5/DJXmZDNj8tbqK/LAnqr4wlStK7L4iLoXJnxKX6jmbxox+HivCjq+go8PP+LnOo6mHw6+8+JxDsYq+JrS1BICzCeAgR7BNnBTv/Y5BdC55D4LPufztE0pbj8Fdc965/LG6Q3043t9DhN6fwYbVp4c+JreKHgEpEraCiurLcxF0Xj1BPH/IpBMqoMlzZPXkT59TSzlrdVX5KE9eeltCAx9/t6bZa9vhF6X65PBwtfr6NbcixD8KXQpH58SwI7PP1CAP0rw0N/nB9gN2Jq7234CWmDXukLuS4XatLkvlAF6rscXpHAByy7v0xsnBF6hx/SGoL/7c/r21fjeq2D1ohP71hSGOj3CZh059AmYTtq242nJMkDLcerq6evoPHuMvLX6ihy4J6/g8HxfvYM+ucty1dLtcI99xvul+LwYfWwGfsMoOD6CHx5siuDjVubT8OSNb8fQRycAu7bWEVasI9RZ+FWuHcPN/Qw5arMDXOt2ESu7NuT06PCyiDXQe6d3QujH9lwFY3p+AsvmH/8JCDYs9ASl1FkIoiqAqYoBDtCGvhOT/m15a/UVeXhPVOHRf/jMS4Je7qdvMPfTb167F+6PfpJenw4WPyuGwL9oWkhzCHz+8bEbzx8BV//uSWjovszD7k8AKhngammdP0lxVK6PYKeS4U7BD8CzNLVRt8fdG4WeF7EMPQKvTj/2LoT+Uxh958ewdF7nwUfoA3h5uKtjoa4uHWDnMXsicX8Y0/7KMdKWt1ZfkYf4xOVTGleyy/Nj//RLJIcONMEjNy4wwLPsA1A5vw+O73d0LuStTFrYOvD595eeJscMsMfygLsxC7i6fySBXNseduPsWFenn+bTG3F7TG1cycAHpw/Qr/ZOP9ZBj8Ar9KPuWAnLXtzun0zcUcTQBwBtuWI4y0Ibzwl1nmf60ravpydE6JO3Vl+RA7jzYodP0xr91hQ+FWHIw/Ph6OEWeLhbFXh2evODZQq+fKka0xxyfNzDR/B1K9MtbLud2wDXn/uMg229OD0DbYH3UritTL9NZbRkVxfwVR5+B7urT8X7bsTlaX/eL2JDejPBQT/eQU9yTo/Qj0XgXXqj0I+8/SNYPGdr9ITiXDD0CqMtrWIwVQHwWnO5HU4a7qM6tVX2mJ+s05uUJgKen3j2ZN/ZMPGJpQnsVjH44SGoFnzO78OOzjj6lY7rzx3q0p0GmOaA846ewm7rRgw2KoU97kehw7PLc59PbTzwAr06vW5XGqdH4BV6cvo7Y+hH3rkC3pu1GfChWPK/phIx9AwlKYJSZcZlfgy+7QuK2+lr2DHuk7dWX5EHuXPSnZrsr5XIk85uu3BC8oPDVek4gS/PhlTw04Vt2MPXrcxnodflUx2EGwhu7/QO0ArsGfhVBLhxc1+XdgDfQC/5vAKfOv1EFELfm3P6cZTTr6o6/R0fwYjbl8PwHh/C65M2QGtzWxYmTW8QzBUCnkKqbdvHsu7NbQuwjtnj9ZgwPxwf/92fGPQIu6Y1nMMj9Bb4x10KMrwCeMdC6KuLW3zGuwf/gsnhVgXc0Tl/FPzjnMHwwF/nMtQWfFUEd+roicsr7Ab6GHasI/AZpxfo8cIUAe+cnhax5PSa3ugiNnb6EbevIOgbblsGc59dDW2tVaAQ+hzcaR+2SVqXeSwHtJYCrj9O5tu2H5d+PyZ1eWv1FTmgjycPvEJvHJ6fbva4W2gOTYDujAR4A70+9lofo4Hghx0dAf8PCP7TMKjbmzHsCrytG8B9HUEmmNMTwrVdP7u8A74POzy7fMbpnYLTh50bTm/Y6TW9QehH3RGcfrhz+mE9PiDoh/ZYCpP6r4SWphh8gt7DiGVr1FaQFXQ7xn2tMk/nyvEynwGPT4roNbRt6vLW6ityUNdWAjs6fAZ4bCO0ebCPJwaf3d7u4WuqwwvbsIfPOzq4h493ZQ7t/j4BjsAq5AF2htrDrhLoycU95GFM2ywGnkvj9M7lw41mkt4I9GG70kFPe/QJ9Oj0dyD0zum7O+i7L4Uh3ZfA5IeWQ+OR8A2sAD3Ca6EM8JMQyhqQpnPDCdGxIuhR0pa3Vl+Rh7uWAvBh4RqAx5QGU5uTBx4VL2xtmuMvXkU7OhP9VuYN5w13Of5gAipALtDTiYAgJ8AL2Bb6dFyBn2qd3tVDemNd3tx3I+mNvxqbOr2kNyMovRHo0ekR+luXwLO3LoKZT3wMTUdbCS7r9BV1Atzjyr2Gwl2BvIYIonqLPNw5VV0+AM95PD7GDx9uWgX55IXQ58DHZ8voXZm8sNU9fPw5+afJZTWlQXBrOr0FXeDGOoKtZdXhFXyGHkEn6OWKLDo9A+90d+L0JqdH6EcS9CvE6SW9EeifuWURPHPzezBz0Eo4cqiFflITQVs+jN3al4l7p22SQpzCLG1/DLZV1NeavJ6puzmCUX1FHvCcEPgaW5Py85oIYQ7cU1G6o6NpDt+VieDzPTr+4tUfGfw7L55AqQaCm0JObQVd+vSECJBbsbPberSQpQWsOD25PENv0xveueGrsbR743duGHqf02N6c1uAfvDN78LTN78D4/svhcMHmg14KgbWSvsCoLZPgE1UawxPLBqTk4MVXk8wqq/IA65idyfgo5RGgKdfEGfgb/nj+Cy0py6EXoTg08IW3d7s6PitTP66Ie7h41Zmz0smEaQ+pXHQKugIsNbTNh1DgFsFl2ch8HolVsFnl9d8vgr9587lwy0I5PR+58ZAr07v0pvBzumfvukdePLGt+CZ29/wsCF4WFqFsRhiO56VA5r+1RCwc6+RSk8Gwai+Ig97EKUzAn20cJWfzEfgb/rD2AysXaV0R0cdv3pzGjt+2NHB25F7XzGVYUaoUQI2w80wVwAX8Fnab6CnfB5lXV6g13weodctS+v0yUKW9+gF+tswvVkKQ2993+Xz4vS3KPRvwmPXvcywaVpj6hGQCazYtiDbtp1Ta9yPCeh2XDCqr8iBHoSwc1pDwJunEevC9brfNxCMeWC7Ugg9i8C3C1vdypSFLW9ljqE9fLwd+dFrFwbwDfC2L8CtgNu6AK+wU10c3i9gq06vOT0CH67GrvLA63YlLmQ99OT075v0xkHv0ht0+oHXv5yBMMCoY3oiKJyR7JjUVdoXlaTwN1D2tQWj+opasBPw4vAhrWGHV+DxJEAI85D+ELKOn+zo0Fam7uFrfj+W7sr8xzlPuQXhYgd3yNuroKcKzo5tLkMfircpdecmOD1emCLgaecGoQ/pTXB6Cz07fYODHlObobeh0y/20D9109sEPTm9AY5ANLIwVuoptB0ca+f6tvYlpWBUX5GDvpLSJA6Pe/FYnl7gVR2ALzs6tIdvv2B+/nAY+vA8eHnIdp/KkMt78BlsK3R0AtynMqnY5SvpjTg9Q483m4X0Rp1e0xtcxFJO3yNA34DQO6f36Q1Bn6Q3CqNKoaQxA3jS96Hp/3BYS2ZeTnIyyDgdZ9qCUX2Fh52eU5NuSzpVLj7h1uQguPOiGRkgT494Ycs7OgS/B9/clSmO3/2C8TBn3DJobW0HfFbm3Mf4KQcp5OriCrqto6bQwtXVqc/VXRkWsBb4GHpyeufwKkpveoY9eruQ9U6v0MtCFqF/4gYHfbeFATiF1JZaJ1XdPMxPTgxXeqdP+qlM+0y/YFRfgXcqMvgOeAd+vGi1W5MMPN5EdvuF07Iwnj6li1vZypRbFdTxcWE7Y/j70NYWLufv39HsU5wAe/XCk/Z5ST/Xg8uHnB63K6vpDbu8E6Y2xul5EcsXpoY7p+cLU+z0Q3Qhe7Pk9LJ786hZyHoZACNwrXJ9InL/jNJ+fu02cnodw1I+1vqKXn+b6KG3+bsCrzm8bk12/9PEBMAfSwJ9BL75UTMH/nOjPsj+T9n5ZSPMuN86vNbjtEZLBl3ruoBll4+cPoVeLkz5fJ6gtzs37PQIvXV6hj7k9Ar9Y24h62FUt/ZtU3fy6UsiC2w6xv18XPg7cRm9ruuTj7S+YsJTbxL0nMd3vBd/4ndN/tAK0DP4mObwxas35qzu8IkDq97YB9P7KvAMuNY96KK4Ty5IWeid208S6Ccq9Hcj9C6nJ5dH4YUp3b1xTi85vd+5Iehljx4XsrcsccAb6N1iFqFH0BBIK3sCWGj9uModi46dnhB+boP0I+D+74S5lXlO8nHWV+AtrHf8eYyD3aY19QG8lprjo9uj3piNwHf8I2A4/sHcPRHUOeCryjs9Q885fez0Iaf3To85PTr97Sa9uY3TG+/03W16866DHp1+YQBPpDAqhNqmPgE3OlEcsKS0n2T7sc5z7d+w49iWj7P+Yt/uQ/Bwj5lVl5c8Hh+oGiA70xTy+3uumAOrlm3r8NtHNo61/wuWzPqaYNfUhpRpI+TaVujDro0TpTap0yv0ktP3VKfnhSxCT+mNW8gOu904/a0o3b1ZBE/f7KCnLUu3kBXwYjGsVjiP5grgXtS2fVzPvy4LIQ/jeqyD3vXLR1mfcfRIM0wduoiuZOK98Ne6Re0N542kBWEetjND+q2re6+cC8ve2HjCD1FqPNQGCxu2VUE3ssCH1CZAjy6vOT0CX8npxenHEPRxTp9z+qEOekxv4i3Lt2CgLGQDkAnQKOPMPG7F/X7cnxDpMbZM61Zd/8MTpz3a29vhw7c2Q79rXqrAdSar799egI8Xbz3p/wGN37TB3Ee3mMWqyLerLm+hJ5d30JPL98KrsQw9urymN2NTp0/TG797s4ycPg+9TW9qQ5kHOAVX+0x/9K9CC3ygbSn5dV2d2nWe3qSxb/dRGNzrzSxgZ5ruvWourPl413Fz+OPFob0t8NxDmz3cFcgFfK1PjpzeLGQFeoSd9+gltZGF7Gjr9B56vAVBd28M9NGWJS5kHfQCnC9VUVvglDrDayDWOdFrmXZuLJ0n4/LxnR2Bv5k0a/hHx/1S94+pPlfNgy9Xfd1lH/zO9Y0w/T6bygjkDnCSAE/QE/gCveTztIhVp6edG3Z6dXkU7twg9CMpvZH7bjCn91uWDnqX4jx7i92yxJyeoUdwVR5QX2rd9Necz2PY5rFQ6jG+pGP4OO1XyUd39gS656dLt8GD1+WeWfPjqt/VL8LGL/Z0+Ye+bulBn9Yo7LqQjcBH4OXCFO/acDnBQ58sYmnnRqH/FEb1lIWs5vV4Pz1Cj3dZ4hVZSm8Wm4VscHoET6XwRX0eYCNp+zkqC7Mcp+PcZ+b7eWG+fGxnX2zbeACe7vWGg+3M2MF5+PoFsO6T3T/YB/7pa/szoIfUBqUuT9BLajOpF0Mf5fPmamzI6atXZMPFKUxv5IqsQu+c/imC/hWCTcFLYfWgSunnpX016rYdH9Mc9du58pGdndHU2Aozhqxw6c7cLIinSw9e9yLs+urUftzgeIG/cvjq8G0ObrzNIIDP6Y7A7sEX4J0mOujJ5Z089M7pKb0Rp89Bj/fe2PQGd3CedeAz9CG9eVygJyAJ+uDMFkQqM2O11Zzp07+hdfd6Q8M87ZeP7OwNTHc2r90H97vUIgfkD61HblwIB/Z07S/21Qr80YhXhm0PsEepTez0E30+r9Cr06PL8/MrNaePoNd9etq9iRey6PYIPerpm94jp1fou0rWtVl5+K0UdtQydxLIx3X2x66t38Azvd9yIJ6+dAeB37f7yGn9kI8caIV5g7Y6sMXtDfgEvINdL0rZnF6hHydOT+lNT17M1tqyjNMbuSorOzhPy7alhb4KbCdl3dr2R8I5xz8BUPJR/TSiuakN5o77GHpfkYe0K/X4ba/B19sP/Sgf8MHdLfD8gM0BfEx5jMtresN79GlOj09B4Lzepzd3roJRxukD9HyByqc3t6DTL4HBuld/4zsup3/VpzY5AI+nTqU87qRABw99Kfza5lI+pp9O4NXPpa9tdHn2D3cxa9Adr/9owGtsW30Ept0vKY5TSG3Y7W1OH6AXt/e7N3pF1jr9xw76lQ54BB+d/kNo6P4BbVl6p5e8np3+VQEup46cGcd4PAa6qmXR64Tj4tfnE2PFqLN49+Z48fWOwzCox6tZaE9WeH1gwE0L4fA3Xf9z8ycauJbZtuaog1zdPqQ37PKupHw+s3tDOb0TAW+hl716cvvg9A09PgzQmx2cp9xidlA3hD6GNoY0QJ0v47m2rfO0L3dcmMPa+EadfjG8qwKfrb5w+udZgE9GDX3fhpYaT+/9MQLB//ztAya1CRel+CYzcfq7HfROFnrO6fXiFKY3enGKoR+Oz7JU6Gmv3lyVxRRH9uoHdXvNQBdgtKWHVepUyrgFWcfDMWYsM6+ihiZobTy1q+BnRSD4q5fvhD5XnNq25sRB78NR8wzHMykWz9jFwFegl50bhN6VPr2hfD51es3p1enNDo5Lb/xevYX+pvfgcQe9QleBOOlX0LPjCrIFWup+3IzlXmfjmz9xl09j787D8Mw9uLuTh7qW8BrA2H8ugRa3SJaXOuOitbkdXhm5LeP0Ar0ogt7v3IjT3/Gpd3rM6T305PS8mB3i5BezBnqFMoXwePLzLei5tlNHr/2Bc/iNb7UB3pYtH0kJDXT9mQ3Loc+V87KAp8IcftzAMxt4jebGdpg7aEuAnvbqOZ/XFGe8bltSTh9Dz04vKc6dDnxayCL0ZjF7K0PP25aLadtyULfXDXwJxHQyVGGNAE7cO+2LZPul/tH4Zti3of2Ub+47qwN/PGzloq/ggeNczEKHb7j/XWhtqZ9/Mg/saoEZ/Tc66NXlWZzTK/C8bcnQsyLoMb1Bt5crswr9UExxEHq/V8+L2UE3BOgj1QLXaWmmD1Vxc2lnXX5YM6xb2AotR0/8B59/soHpzqAer2WBRz0/6uNO/bremRZ7v2qCafevF5cX6DG9kYUsQk9Ob8APOT07PQFPTu+gd25PTq8pDi5mHfic4ix20L9RBVLk4UZoOzgJaqnWybFibDMc/Kq9099GK2ECnzuDX+WbOXQ5DL33Hefs78DsUSth6/r9df1hbll1iB7RbaGP9+jlVoTI6TGvDzs4Ya9eUpzu7PaY4iD4Cv0TN77pYVw6pAqoFUKsyo1HcieJzgtlE2x6pw1aDhXYS2Rixct7XF4f0pvxqdN7l7eLWYE+ukAV8noLPS9oF8OTNzD0FUDdCYB1ajun17rvS8pK35AmKrXvo3HN8PXqOv0RtRKnL5bN2V0jvfnCu3zs9JrXf8I7OD0QfIXe/Wvoty4lxbl1iYP+LQ8tgmrhpbpxbN8v8/wcke3zr+WO/2J+83F/z7ZECYq21mPw7pSdAj2mN2Exy/v0aU7vhBepZK9+OEHPeX2U4tDWJbs9fk+2AquFWtoKdgA8zPF9ehyVTbBiXBMc2FRy9xInGPhrgLMGbAjAm7zepzh36lVZdnrUiFyKI9BzmmOhN7BG4DLUUb/t8+10vAm+fKUVWsvOTImTjcMHWmH2Ywx+cHl2+jE1oI/zeuP2Zs9+iHN7/CKJBzYHci3VGF85sRn2flly9xJdELs2HYXJ960l6HnnBp1+NUMfXaBi8HVBO5yuzOJ+feL2t7Lb43PqK/DqCVBD1VTGpTcNTbDmpRZobSzuXqILY8NHB+OcnuBnp+d76tXt8ZaE2O2Hidvjgtbm9oNvejcGWPS+qetY1Ge0rKERvtnWDviVSHmrJUp0XXy5/AClOQF65/Yut/cpDjm9QO+Eub1f0KLb0z32AXy8/8bCnAMb+7Rf69R2J8P6V13u3lRgL/EDBm79ffjSrhj6Sl6vTh8vaMntkzQH77/B/NxCfTzYUSvGNsGeteWuyBKnKTCNmD9kU0hvJK9H8CnFMW5P0Pcwbo8LWk1znPD+GwWZ4H42A7nr03HM3dcudLl7U9mGLHGaAx3/pYbNwelpMatuz+Cj0xP4DnoGX51e3J6g5/RGlQKPV2a1ju6+b0Nb2Xcv8eMFbmVO7b/Wuz3v4Di3v4PBJ+hJmOKw1O2909+yOIIcVQW/CdY5d285WmAvcQbE/l3NMKHPF8bt+ZYEcnyT4vhFrVyp1fwebzwjuJ9tZCnsUv9gdBPvzBR3L3EmxVerD8P43l+Qy4++i9OcKLevuL1A7xwfvyi+RIEn0Bn2JUOOwpqXmst3VkucufH54n0w9m5McRz0/q5Lhp6v0OpOTgAfUx383qyFHuvLnbvvW1+uqpaog3h3xnbJ7RF8m+KIEHxKc5xwYetSHbzr0qc0zuXx20ytzWXfvUSdBObdb07+imAn8GVB69McBV9cH91+Yu/PYMkzR+HD0Y2wf3Nx9xJ1GHhX5oIRWxh6BB5PAAf/SDwBBHq/f++c/rXH98KGt1qg6VBx9xJ1HEcOtsLMf64T8DW/VwW3n/3ol7Br9U/4MXolzq44eqgVZj26jnL8ALzTnfyrJa+O3gQtjSWdKXGWBX7zatuaw7Bg+EYH/Gcwrs/nsOi57bBn29FyR2SJEiVKlChRokSJEiVKlChRokSJEiVKlChRokSJEiVKlChRokSJEiVKlChRokSJEiVKlChRokSJEiVKlChRokSJEiVKlChRokSJEiVKlChRokSJEiVKlChRokSJEiVKlChR4icfP/vZ/wdWY4voDB5W9AAAAABJRU5ErkJggg==;" vertex="1" parent="rFS9sqAKDwRHuz8FRO1v-1">
                    <mxGeometry x="221.63" y="10" width="76.75" height="80" as="geometry"/>
                </mxCell>
                <mxCell id="rFS9sqAKDwRHuz8FRO1v-8" value="&amp;nbsp;.c" style="rounded=0;whiteSpace=wrap;html=1;labelBackgroundColor=none;strokeColor=#000000;strokeWidth=2;fontSize=16;fontColor=#000000;fillColor=none;" vertex="1" parent="rFS9sqAKDwRHuz8FRO1v-1">
                    <mxGeometry x="20" y="50" width="80" height="40" as="geometry"/>
                </mxCell>
                <mxCell id="rFS9sqAKDwRHuz8FRO1v-9" value="" style="shape=image;verticalLabelPosition=bottom;labelBackgroundColor=default;verticalAlign=top;aspect=fixed;imageAspect=0;image=data:image/png,iVBORw0KGgoAAAANSUhEUgAAACsAAAAwCAYAAACITIOYAAAAAXNSR0IArs4c6QAAAARnQU1BAACxjwv8YQUAAAAJcEhZcwAAFiUAABYlAUlSJPAAAAJWSURBVGhD7ZnLjRpRFESJjQS8JgqyIARvnBZ52N7wkYC2XqvwlGpOw8N9p2cxLuls6OLWkcYLq1l9yRwOh+EZqo6h54mq9aGxRNUx9DxRtT40lqg6hp4nqr7P7XYbzufzcDwe8Yuv8OPb97/Q86SnL83V6nK5lEje6Rl3evqj6PV6xYdz6Bl3evqjbPvT3z/Y7/fDdrsd1ut1F37MB6eY0x9l/YPNZoNSU/h3aSyZ038nS0KP8O/SWDKnXyrrTA1O0dN/Kvvr5++H+HednnGnp/+1ZB2/M8Vut8PPpxgFPf7wo2XbzVeEpfgWf7iEbKNXWIpv8Ycu2iCpHvIOkcKn02lo/z+RFse/kAdJpIe8MwUJS4vj5TxGIj3knUeksLQ4XsxDJFJB7riDtDhezCM0VEHuuIO0OF7MIzRUQe64g7Q4XswjNFRB7riDtDhezCM0VEHuuIO0OF7MIzRUQe64g7Q4XswjNFRB7riDtDhezCM0VEHuuIO0OF7MIzRUQe64g7Q4XswjNFRB7riDtDhezCM0VEHuuIO0OF7MIzRUQe64g7Q4XswjNFRB7riDtDhezCM0VEHuuIO0OF7MIzRUQe64g7Q4XswjNFRB7riDtDhezCM0VEHuuIO0OF7MIzRUQe64g7Q4XswjNFRB7riDtDhezCM0VEHuuIO0OF7MI0vhDtLieJEOLYE7SIvjvyW88ta7irZ5328u0uLka/pX337PoW21zft+c5EWp72yqfyl5l9pDk9fH7W0n5bowJI0B+k8T/uJyf9JLEXbbNvS+J9PyGr1B0N4rwqB9WVYAAAAAElFTkSuQmCC;" vertex="1" parent="rFS9sqAKDwRHuz8FRO1v-1">
                    <mxGeometry x="30" y="104" width="26.88" height="30" as="geometry"/>
                </mxCell>
                <mxCell id="rFS9sqAKDwRHuz8FRO1v-10" value="" style="shape=image;verticalLabelPosition=bottom;labelBackgroundColor=default;verticalAlign=top;aspect=fixed;imageAspect=0;image=data:image/png,iVBORw0KGgoAAAANSUhEUgAAABMAAAAWCAYAAAAinad/AAAAAXNSR0IArs4c6QAAAARnQU1BAACxjwv8YQUAAAAJcEhZcwAAFiUAABYlAUlSJPAAAADGSURBVDhPvZQ7CgIxEED3bLmAdY7iRWy08QBaeI7FKvV6AYutAoGQyCxOmIxDPktw4DWZl8eyRSYc51y01lYJIcTvFXmkSyWKQRC01lEpVaUahCWXJZqCkiiBTjFIRZQkaIy6WZCKKEjQEPdTkIq4lKARCu67YhJdscfxHs+HU4Lvm2MYWt9rdk5pjkHoeZuzM05X7DUv2RmnKzbsy676Mu6fARhE+L4rVuN/sT38xIwxolgDHlW4D8/+FvPep/pettC4maYPhgp7wXcZQ74AAAAASUVORK5CYII=;" vertex="1" parent="rFS9sqAKDwRHuz8FRO1v-1">
                    <mxGeometry x="27" y="54" width="26.77" height="31" as="geometry"/>
                </mxCell>
                <mxCell id="rFS9sqAKDwRHuz8FRO1v-11" value="　 .cpp" style="rounded=0;whiteSpace=wrap;html=1;labelBackgroundColor=none;strokeColor=#000000;strokeWidth=2;fontSize=16;fontColor=#000000;fillColor=none;" vertex="1" parent="rFS9sqAKDwRHuz8FRO1v-1">
                    <mxGeometry x="19" y="100" width="80" height="40" as="geometry"/>
                </mxCell>
                <mxCell id="rFS9sqAKDwRHuz8FRO1v-12" value="..." style="rounded=0;whiteSpace=wrap;html=1;labelBackgroundColor=none;strokeColor=#000000;strokeWidth=2;fontSize=16;fontColor=#000000;fillColor=none;" vertex="1" parent="rFS9sqAKDwRHuz8FRO1v-1">
                    <mxGeometry x="19" y="150" width="80" height="20" as="geometry"/>
                </mxCell>
                <mxCell id="rFS9sqAKDwRHuz8FRO1v-13" value="&amp;nbsp;.rc" style="rounded=0;whiteSpace=wrap;html=1;labelBackgroundColor=none;strokeColor=#000000;strokeWidth=2;fontSize=16;fontColor=#000000;fillColor=none;" vertex="1" parent="rFS9sqAKDwRHuz8FRO1v-1">
                    <mxGeometry x="20" y="180" width="80" height="40" as="geometry"/>
                </mxCell>
                <mxCell id="rFS9sqAKDwRHuz8FRO1v-14" value="" style="shape=image;verticalLabelPosition=bottom;labelBackgroundColor=default;verticalAlign=top;aspect=fixed;imageAspect=0;image=data:image/png,iVBORw0KGgoAAAANSUhEUgAAABMAAAAUCAYAAABvVQZ0AAAAAXNSR0IArs4c6QAAAARnQU1BAACxjwv8YQUAAAAJcEhZcwAAFiUAABYlAUlSJPAAAADeSURBVDhP5ZKhDsIwEIZ5tvr5avYSQ4+XGJZppplmeljAAhYwtV3+S27pdetIQx3iS9pr7+vdpStjjE0FyZRSSRhl79fnJ6Jlj/vTdqdu9ixKdr3cbJZldDdf55PzKFlV7ege41e4KOv7s9gjmUWoEC2750FZva8pVpZbEYcQFaJlNw4mMrxWFBvaa61nhSGEDG2xAAOGuDk0QWF7bOk+j0PIGD/RF7rVA8wPQqyFLNQSCyHh74E1qsOeY6Ps22xYiERIOI414kLmJoZAov8lAP/BKNkS/yhLAcnSYOwAKZzCYM/rBHIAAAAASUVORK5CYII=;" vertex="1" parent="rFS9sqAKDwRHuz8FRO1v-1">
                    <mxGeometry x="29" y="190" width="19" height="20" as="geometry"/>
                </mxCell>
                <mxCell id="rFS9sqAKDwRHuz8FRO1v-15" value="" style="shape=flexArrow;endArrow=classic;html=1;fontSize=16;fontColor=#000000;fillColor=#dae8fc;strokeColor=#6c8ebf;gradientColor=#7ea6e0;entryX=0;entryY=0.568;entryDx=0;entryDy=0;exitX=1;exitY=0.5;exitDx=0;exitDy=0;entryPerimeter=0;" edge="1" parent="rFS9sqAKDwRHuz8FRO1v-1" source="rFS9sqAKDwRHuz8FRO1v-31" target="rFS9sqAKDwRHuz8FRO1v-5">
                    <mxGeometry width="50" height="50" relative="1" as="geometry">
                        <mxPoint x="380" y="120" as="sourcePoint"/>
                        <mxPoint x="410" y="120" as="targetPoint"/>
                    </mxGeometry>
                </mxCell>
                <mxCell id="rFS9sqAKDwRHuz8FRO1v-16" value="" style="shape=flexArrow;endArrow=classic;html=1;fontSize=16;fontColor=#000000;fillColor=#dae8fc;strokeColor=#6c8ebf;gradientColor=#7ea6e0;exitX=1;exitY=0.5;exitDx=0;exitDy=0;" edge="1" parent="rFS9sqAKDwRHuz8FRO1v-1" source="rFS9sqAKDwRHuz8FRO1v-8" target="rFS9sqAKDwRHuz8FRO1v-19">
                    <mxGeometry width="50" height="50" relative="1" as="geometry">
                        <mxPoint x="120" y="130" as="sourcePoint"/>
                        <mxPoint x="420" y="130" as="targetPoint"/>
                    </mxGeometry>
                </mxCell>
                <mxCell id="rFS9sqAKDwRHuz8FRO1v-17" value="" style="shape=flexArrow;endArrow=classic;html=1;fontSize=16;fontColor=#000000;fillColor=#dae8fc;strokeColor=#6c8ebf;gradientColor=#7ea6e0;exitX=1;exitY=0.5;exitDx=0;exitDy=0;" edge="1" parent="rFS9sqAKDwRHuz8FRO1v-1" source="rFS9sqAKDwRHuz8FRO1v-11" target="rFS9sqAKDwRHuz8FRO1v-22">
                    <mxGeometry width="50" height="50" relative="1" as="geometry">
                        <mxPoint x="130" y="140" as="sourcePoint"/>
                        <mxPoint x="430" y="140" as="targetPoint"/>
                    </mxGeometry>
                </mxCell>
                <mxCell id="rFS9sqAKDwRHuz8FRO1v-18" value="" style="shape=flexArrow;endArrow=classic;html=1;fontSize=16;fontColor=#000000;fillColor=#dae8fc;strokeColor=#6c8ebf;gradientColor=#7ea6e0;exitX=1;exitY=0.5;exitDx=0;exitDy=0;" edge="1" parent="rFS9sqAKDwRHuz8FRO1v-1" source="rFS9sqAKDwRHuz8FRO1v-13" target="rFS9sqAKDwRHuz8FRO1v-25">
                    <mxGeometry width="50" height="50" relative="1" as="geometry">
                        <mxPoint x="140" y="150" as="sourcePoint"/>
                        <mxPoint x="440" y="150" as="targetPoint"/>
                    </mxGeometry>
                </mxCell>
                <mxCell id="rFS9sqAKDwRHuz8FRO1v-19" value="&amp;nbsp;.obj" style="rounded=0;whiteSpace=wrap;html=1;labelBackgroundColor=none;strokeColor=#000000;strokeWidth=2;fontSize=16;fontColor=#000000;fillColor=#FFFFFF;" vertex="1" parent="rFS9sqAKDwRHuz8FRO1v-1">
                    <mxGeometry x="224.38" y="49.5" width="80" height="40" as="geometry"/>
                </mxCell>
                <mxCell id="rFS9sqAKDwRHuz8FRO1v-20" value="" style="shape=image;verticalLabelPosition=bottom;labelBackgroundColor=default;verticalAlign=top;aspect=fixed;imageAspect=0;image=data:image/png,iVBORw0KGgoAAAANSUhEUgAAABgAAAAYCAYAAADgdz34AAAAAXNSR0IArs4c6QAAAARnQU1BAACxjwv8YQUAAAAJcEhZcwAAFiUAABYlAUlSJPAAAAIeSURBVEhLrVU7rwFhEPXbSNCQICFEoZBoPKLQ6jXodaLRiYZKolQSlVBItBKJ93Nuztydze5n97p7905yYvd7nPPNmdmP51Pcbjc6Ho90Pp/pfr+TNvw/AfLT6UT9fp9GoxE/Y0ybdhdycpCHw2FKpVI0n895zHUmQj4ejykWi5HX62Vks1mazWbu7DLaYiQXJBIJW7sg+nq97IVVW1RyQbvdZoHL5aKTyV7jmCnsbDEiFApRq9XSyR+PBz2fT84EexeLBW23W54zZYIFP9ki5L1ej/b7Pa9Vgb3JZJKazSbtdjuuky7yG1t8Ph/PRyIRSwSDQV7n9/upVquZ7YIaCodWVIlx8kKhQKVSiYkwhmeBjKmQOrEAqo8X9DlaURaptlSrVR432hKPx/X1gnw+z/UwFVwKhT5HK2IhCgry6/VqKdBoNEzEAMg3mw3XAE2g0X8HMhG7kCIEQY45KwGgXq/r/udyOT65JbmE2AWAXDoB71YCaEt0DuoBchzKllwCdqkfjJ0AgLaEEJ6NWTsKbLYTAJbLJVUqFRoOh3Q4HJzfuiARAfyqSKfTPIe27XQ6nIkjEaPAJwQCAep2uyyibf8cRjsEsKVYLL4JRKNRGgwG3E3a9s+BzhCgASBg9R1kMhmaTCZM/uf/DNygEEDnlMtlnRwnB7lj/60CmUBkvV7zXYVbWGxxTS6BTGDXarWi6XTqzha7ELuA95N7PF/GPvCsXwT47gAAAABJRU5ErkJggg==;" vertex="1" parent="rFS9sqAKDwRHuz8FRO1v-1">
                    <mxGeometry x="226.38" y="58" width="24" height="24" as="geometry"/>
                </mxCell>
                <mxCell id="rFS9sqAKDwRHuz8FRO1v-21" value="Cコンパイラ" style="rounded=0;whiteSpace=wrap;html=1;labelBackgroundColor=none;strokeColor=#000000;strokeWidth=2;fontSize=12;fontColor=#000000;fillColor=#FFFFFF;" vertex="1" parent="rFS9sqAKDwRHuz8FRO1v-1">
                    <mxGeometry x="150" y="50" width="50" height="40" as="geometry"/>
                </mxCell>
                <mxCell id="rFS9sqAKDwRHuz8FRO1v-22" value="&amp;nbsp;.obj" style="rounded=0;whiteSpace=wrap;html=1;labelBackgroundColor=none;strokeColor=#000000;strokeWidth=2;fontSize=16;fontColor=#000000;fillColor=#FFFFFF;" vertex="1" parent="rFS9sqAKDwRHuz8FRO1v-1">
                    <mxGeometry x="224.38" y="100" width="80" height="40" as="geometry"/>
                </mxCell>
                <mxCell id="rFS9sqAKDwRHuz8FRO1v-23" value="" style="shape=image;verticalLabelPosition=bottom;labelBackgroundColor=default;verticalAlign=top;aspect=fixed;imageAspect=0;image=data:image/png,iVBORw0KGgoAAAANSUhEUgAAABgAAAAYCAYAAADgdz34AAAAAXNSR0IArs4c6QAAAARnQU1BAACxjwv8YQUAAAAJcEhZcwAAFiUAABYlAUlSJPAAAAIeSURBVEhLrVU7rwFhEPXbSNCQICFEoZBoPKLQ6jXodaLRiYZKolQSlVBItBKJ93Nuztydze5n97p7905yYvd7nPPNmdmP51Pcbjc6Ho90Pp/pfr+TNvw/AfLT6UT9fp9GoxE/Y0ybdhdycpCHw2FKpVI0n895zHUmQj4ejykWi5HX62Vks1mazWbu7DLaYiQXJBIJW7sg+nq97IVVW1RyQbvdZoHL5aKTyV7jmCnsbDEiFApRq9XSyR+PBz2fT84EexeLBW23W54zZYIFP9ki5L1ej/b7Pa9Vgb3JZJKazSbtdjuuky7yG1t8Ph/PRyIRSwSDQV7n9/upVquZ7YIaCodWVIlx8kKhQKVSiYkwhmeBjKmQOrEAqo8X9DlaURaptlSrVR432hKPx/X1gnw+z/UwFVwKhT5HK2IhCgry6/VqKdBoNEzEAMg3mw3XAE2g0X8HMhG7kCIEQY45KwGgXq/r/udyOT65JbmE2AWAXDoB71YCaEt0DuoBchzKllwCdqkfjJ0AgLaEEJ6NWTsKbLYTAJbLJVUqFRoOh3Q4HJzfuiARAfyqSKfTPIe27XQ6nIkjEaPAJwQCAep2uyyibf8cRjsEsKVYLL4JRKNRGgwG3E3a9s+BzhCgASBg9R1kMhmaTCZM/uf/DNygEEDnlMtlnRwnB7lj/60CmUBkvV7zXYVbWGxxTS6BTGDXarWi6XTqzha7ELuA95N7PF/GPvCsXwT47gAAAABJRU5ErkJggg==;" vertex="1" parent="rFS9sqAKDwRHuz8FRO1v-1">
                    <mxGeometry x="226.38" y="108.5" width="24" height="24" as="geometry"/>
                </mxCell>
                <mxCell id="rFS9sqAKDwRHuz8FRO1v-24" value="C++コンパイラ" style="rounded=0;whiteSpace=wrap;html=1;labelBackgroundColor=none;strokeColor=#000000;strokeWidth=2;fontSize=12;fontColor=#000000;fillColor=#FFFFFF;" vertex="1" parent="rFS9sqAKDwRHuz8FRO1v-1">
                    <mxGeometry x="150" y="99" width="50" height="40" as="geometry"/>
                </mxCell>
                <mxCell id="rFS9sqAKDwRHuz8FRO1v-25" value="&amp;nbsp;.res" style="rounded=0;whiteSpace=wrap;html=1;labelBackgroundColor=none;strokeColor=#000000;strokeWidth=2;fontSize=16;fontColor=#000000;fillColor=#FFFFFF;" vertex="1" parent="rFS9sqAKDwRHuz8FRO1v-1">
                    <mxGeometry x="224.38" y="180" width="80" height="40" as="geometry"/>
                </mxCell>
                <mxCell id="rFS9sqAKDwRHuz8FRO1v-26" value="" style="shape=image;verticalLabelPosition=bottom;labelBackgroundColor=default;verticalAlign=top;aspect=fixed;imageAspect=0;image=data:image/png,iVBORw0KGgoAAAANSUhEUgAAACwAAAAtCAYAAADV2ImkAAAAAXNSR0IArs4c6QAAAARnQU1BAACxjwv8YQUAAAAJcEhZcwAAFiUAABYlAUlSJPAAAAHDSURBVGhD7ZaxTsNAEET5NvfpXZOa/ESoQx1aUpOa1KQOLdACLdC4NRpLi+Yuu7bP9kIiXfGEPD7fPMOexUVVVfU5kYW9CYSLovjlVPMs7J3nQ+fNeQtrMxPn3li9kmXhsVi9kvWaYX7w6/N7cnh/rZ/JwkPg/bV+JnmGtUKL97ePerm8rhdXi+YnrrV1vL/VK5mr8PxyHjyLa20dr7F6JXMT3j/ug+cE5PFavm/1SuY2w1MIa4wWfnl+PcqEPiOBueY1Wj8zSni9vm2y7f02yAU5dBDVDh2u45fS+plBM4winHzOIcQyXWiywOqVLFkYMzibzYJMwEvEv0UNSxZYvZIlC3cBkcPhSRUFbbLA6pUseYaZ1eqmkcA4cI6/gPY10GQx/3yt9TODhCG0e9gFMpu7zdE6PoyWLO5xpvUzycIotT5leIl4vuXrYMkCzrV+JnmGWVAD81uWZfBMTPwZ5HtWr2STC4O2gxXLAr5v9UrmIizEh1GTBbzG6pUseYa1wjbkMFqygPfX+hl3YdD2/wbg/bV+5k+Eu+D9tX4meYa9sXoly8JjsXol6zXDp0QW9iZ5hv87z8LeeT503pyZcFX/ALDZ2MzEQu5eAAAAAElFTkSuQmCC;" vertex="1" parent="rFS9sqAKDwRHuz8FRO1v-1">
                    <mxGeometry x="230.63" y="187.5" width="22" height="22.5" as="geometry"/>
                </mxCell>
                <mxCell id="rFS9sqAKDwRHuz8FRO1v-27" value="&lt;font style=&quot;font-size: 10px;&quot;&gt;リソース&lt;br style=&quot;font-size: 10px;&quot;&gt;コンパイラ&lt;/font&gt;" style="rounded=0;html=1;labelBackgroundColor=none;strokeColor=#000000;strokeWidth=2;fontSize=10;fontColor=#000000;fillColor=#FFFFFF;spacing=2;" vertex="1" parent="rFS9sqAKDwRHuz8FRO1v-1">
                    <mxGeometry x="150" y="180" width="50" height="40" as="geometry"/>
                </mxCell>
                <mxCell id="rFS9sqAKDwRHuz8FRO1v-28" value="" style="shape=flexArrow;endArrow=classic;html=1;fontSize=16;fontColor=#000000;fillColor=#dae8fc;strokeColor=#6c8ebf;gradientColor=#7ea6e0;exitX=1;exitY=0.5;exitDx=0;exitDy=0;" edge="1" parent="rFS9sqAKDwRHuz8FRO1v-1" source="rFS9sqAKDwRHuz8FRO1v-25">
                    <mxGeometry width="50" height="50" relative="1" as="geometry">
                        <mxPoint x="110" y="210" as="sourcePoint"/>
                        <mxPoint x="350" y="200" as="targetPoint"/>
                    </mxGeometry>
                </mxCell>
                <mxCell id="rFS9sqAKDwRHuz8FRO1v-29" value="" style="shape=flexArrow;endArrow=classic;html=1;fontSize=16;fontColor=#000000;fillColor=#dae8fc;strokeColor=#6c8ebf;gradientColor=#7ea6e0;exitX=1;exitY=0.5;exitDx=0;exitDy=0;entryX=0.6;entryY=0.412;entryDx=0;entryDy=0;entryPerimeter=0;" edge="1" parent="rFS9sqAKDwRHuz8FRO1v-1" source="rFS9sqAKDwRHuz8FRO1v-22" target="rFS9sqAKDwRHuz8FRO1v-31">
                    <mxGeometry width="50" height="50" relative="1" as="geometry">
                        <mxPoint x="314.3800000000001" y="210" as="sourcePoint"/>
                        <mxPoint x="370" y="210.00199999999995" as="targetPoint"/>
                    </mxGeometry>
                </mxCell>
                <mxCell id="rFS9sqAKDwRHuz8FRO1v-30" value="" style="shape=flexArrow;endArrow=classic;html=1;fontSize=16;fontColor=#000000;fillColor=#dae8fc;strokeColor=#6c8ebf;gradientColor=#7ea6e0;exitX=1;exitY=0.5;exitDx=0;exitDy=0;entryX=0.6;entryY=0.118;entryDx=0;entryDy=0;entryPerimeter=0;" edge="1" parent="rFS9sqAKDwRHuz8FRO1v-1" source="rFS9sqAKDwRHuz8FRO1v-19" target="rFS9sqAKDwRHuz8FRO1v-31">
                    <mxGeometry width="50" height="50" relative="1" as="geometry">
                        <mxPoint x="324.3800000000001" y="220" as="sourcePoint"/>
                        <mxPoint x="380" y="220.00199999999995" as="targetPoint"/>
                    </mxGeometry>
                </mxCell>
                <mxCell id="rFS9sqAKDwRHuz8FRO1v-31" value="リンカ" style="rounded=0;whiteSpace=wrap;html=1;labelBackgroundColor=none;strokeColor=#000000;strokeWidth=2;fontSize=12;fontColor=#000000;fillColor=#FFFFFF;" vertex="1" parent="rFS9sqAKDwRHuz8FRO1v-1">
                    <mxGeometry x="320" y="50" width="50" height="170" as="geometry"/>
                </mxCell>
                <mxCell id="2NC4eO-HQ3F5RLa15b0S-0" value="" style="rounded=1;whiteSpace=wrap;html=1;labelBackgroundColor=none;strokeColor=#82b366;strokeWidth=2;fontSize=10;fillColor=#d5e8d4;gradientColor=#97d077;opacity=50;verticalAlign=top;" vertex="1" parent="rFS9sqAKDwRHuz8FRO1v-1">
                    <mxGeometry x="145" y="38" width="65" height="192" as="geometry"/>
                </mxCell>
                <mxCell id="2NC4eO-HQ3F5RLa15b0S-2" value="&lt;font size=&quot;1&quot; style=&quot;&quot;&gt;&lt;span style=&quot;font-size: 14px;&quot;&gt;コンパイラ&lt;/span&gt;&lt;/font&gt;" style="text;html=1;strokeColor=none;fillColor=none;align=center;verticalAlign=middle;whiteSpace=wrap;rounded=0;labelBackgroundColor=#FFFFFF;strokeWidth=2;fontSize=10;fontColor=#FF3333;opacity=50;labelBorderColor=none;fontStyle=1;dropTarget=0;" vertex="1" parent="rFS9sqAKDwRHuz8FRO1v-1">
                    <mxGeometry x="133" y="10" width="90" height="30" as="geometry"/>
                </mxCell>
                <mxCell id="2NC4eO-HQ3F5RLa15b0S-3" value="&lt;font size=&quot;1&quot; style=&quot;&quot;&gt;&lt;span style=&quot;font-size: 14px;&quot;&gt;中間コード&lt;/span&gt;&lt;/font&gt;" style="text;html=1;strokeColor=none;fillColor=none;align=center;verticalAlign=middle;whiteSpace=wrap;rounded=0;labelBackgroundColor=#FFFFFF;strokeWidth=2;fontSize=10;fontColor=#FF3333;opacity=50;labelBorderColor=none;fontStyle=1;dropTarget=0;" vertex="1" parent="rFS9sqAKDwRHuz8FRO1v-1">
                    <mxGeometry x="219.38" y="10" width="90" height="30" as="geometry"/>
                </mxCell>
                <mxCell id="2NC4eO-HQ3F5RLa15b0S-5" value="" style="rounded=1;whiteSpace=wrap;html=1;labelBackgroundColor=none;strokeColor=#d6b656;strokeWidth=2;fontSize=10;fillColor=#fff2cc;gradientColor=#ffd966;opacity=50;verticalAlign=top;" vertex="1" parent="rFS9sqAKDwRHuz8FRO1v-1">
                    <mxGeometry x="219.38" y="36" width="90.62" height="192" as="geometry"/>
                </mxCell>
            </root>
        </mxGraphModel>
    </diagram>
</mxfile>